<svg width="72" height="106" viewBox="0 0 72 106" fill="none" xmlns="http://www.w3.org/2000/svg">
<path d="M0.285714 87.7092C3.52381 85.1169 5 83.9167 4.71429 84.1087C14.0476 76.3315 21.381 69.9466 26.7143 64.9538C32.1429 59.961 36.7143 54.7283 40.4286 49.2554C44.1429 43.7826 46 38.4538 46 33.269C46 29.3324 45.0952 26.26 43.2857 24.0516C41.4762 21.8433 38.7619 20.7391 35.1429 20.7391C31.5238 20.7391 28.6667 22.1313 26.5714 24.9158C24.5714 27.6042 23.5714 31.4447 23.5714 36.4375H0C0.190476 28.2763 1.90476 21.4592 5.14286 15.9864C8.47619 10.5136 12.8095 6.48098 18.1429 3.88859C23.5714 1.2962 29.5714 0 36.1429 0C47.4762 0 56 2.92844 61.7143 8.78533C67.5238 14.6422 70.4286 22.2754 70.4286 31.6848C70.4286 41.9583 66.9524 51.5118 60 60.3451C53.0476 69.0824 44.1905 77.6277 33.4286 85.981H72V106H0.285714V87.7092Z" fill="#084887" fill-opacity="0.38"/>
</svg>
