<svg width="72" height="106" viewBox="0 0 72 106" fill="none" xmlns="http://www.w3.org/2000/svg">
<path d="M1.27559 31.3918C1.65354 21.3502 4.96063 13.6078 11.1969 8.16468C17.4331 2.72156 25.8898 0 36.5669 0C43.6535 0 49.7008 1.22001 54.7087 3.66003C59.811 6.10004 63.6378 9.4316 66.189 13.6547C68.8346 17.8778 70.1575 22.6171 70.1575 27.8725C70.1575 34.0664 68.5984 39.1341 65.4803 43.0757C62.3622 46.9234 58.7244 49.5511 54.5669 50.9588V51.5219C59.9528 53.305 64.2047 56.2612 67.3228 60.3904C70.4409 64.5197 72 69.822 72 76.2975C72 82.116 70.6299 87.2776 67.8898 91.7822C65.2441 96.193 61.3228 99.6653 56.126 102.199C51.0236 104.733 44.9291 106 37.8425 106C26.5039 106 17.4331 103.232 10.6299 97.6946C3.92126 92.1576 0.377953 83.8052 0 72.6374H23.5276C23.622 76.7667 24.8031 80.0513 27.0709 82.4914C29.3386 84.8375 32.6457 86.0106 36.9921 86.0106C40.6772 86.0106 43.5118 84.9783 45.4961 82.9137C47.5748 80.7552 48.6142 77.9398 48.6142 74.4675C48.6142 69.9628 47.1496 66.7251 44.2205 64.7543C41.3858 62.6897 36.8031 61.6574 30.4724 61.6574H25.937V42.0903H30.4724C35.2913 42.0903 39.1654 41.2926 42.0945 39.6972C45.1181 38.008 46.6299 35.0518 46.6299 30.8287C46.6299 27.4502 45.685 24.8225 43.7953 22.9455C41.9055 21.0686 39.3071 20.1301 36 20.1301C32.4094 20.1301 29.7165 21.2094 27.9213 23.3679C26.2205 25.5263 25.2283 28.201 24.9449 31.3918H1.27559Z" fill="#084887" fill-opacity="0.38"/>
</svg>
