<svg width="432" height="361" viewBox="0 0 432 361" fill="none" xmlns="http://www.w3.org/2000/svg">
<path d="M431.166 236.155C431.166 243.02 425.601 248.584 418.736 248.584C411.872 248.584 406.307 243.02 406.307 236.155C406.307 229.291 411.872 223.726 418.736 223.726C425.601 223.726 431.166 229.291 431.166 236.155Z" fill="#F58A07"/>
<circle cx="386.592" cy="296.587" r="32.5731" fill="#F9AB55"/>
<path d="M155.031 25.2013H59.7462V191.907H155.031V25.2013Z" fill="#FAFAFA"/>
<path d="M89.422 193.51C89.422 193.51 78.9643 118.506 73.5212 110.269C73.5212 110.269 104.731 86.8245 105.691 23.3069H58.3232V193.51H89.422Z" fill="#EBEBEB"/>
<path d="M125.33 193.176C125.33 193.176 135.77 118.172 141.239 109.934C141.239 109.934 110.02 86.4988 109.069 22.9726H156.437V193.176H125.33Z" fill="#EBEBEB"/>
<path d="M157.534 18.8581H50.9084V197.419H161.949V18.8581H157.534ZM78.8956 111.632V154.088H59.7461V111.632H78.8956ZM59.7461 108.554V64.6062H78.8956V108.554H59.7461ZM108.049 108.554V64.6062H131.998V108.554H108.049ZM131.998 111.632V154.088H108.049V111.632H131.998ZM79.71 108.554V64.6062H104.946V108.554H79.71ZM104.946 111.632V154.088H79.7443V111.632H104.946ZM79.7443 63.8519V25.2013H104.98V63.8519H79.7443ZM104.98 154.851V191.924H79.7443V154.851H104.98ZM108.049 154.851H131.998V191.924H108.049V154.851ZM108.049 63.8519V25.2013H131.998V63.8519H108.049ZM132.856 111.632H153.12V154.088H132.856V111.632ZM132.856 108.554V64.6062H153.12V108.554H132.856ZM153.12 63.8519H132.856V25.2013H153.12V63.8519ZM78.8956 25.2013V63.8519H59.7461V25.2013H78.8956ZM59.7461 154.851H78.8956V191.924H59.7461V154.851ZM132.856 191.924V154.851H153.12V191.924H132.856Z" fill="#1D2445"/>
<path d="M396.518 25.2013H301.233V191.907H396.518V25.2013Z" fill="#FAFAFA"/>
<path d="M330.918 193.51C330.918 193.51 320.477 118.506 315.008 110.269C315.008 110.269 346.227 86.8245 347.178 23.3069H299.81V193.51H330.918Z" fill="#EBEBEB"/>
<path d="M366.825 193.176C366.825 193.176 377.257 118.172 382.726 109.934C382.726 109.934 351.516 86.4988 350.556 22.9726H397.924V193.176H366.825Z" fill="#EBEBEB"/>
<path d="M399.03 18.8581H292.404V197.419H403.444V18.8581H399.03ZM320.391 111.632V154.088H301.233V111.632H320.391ZM301.233 108.554V64.6062H320.391V108.554H301.233ZM349.536 108.554V64.6062H373.537V108.554H349.536ZM373.537 111.632V154.088H349.536V111.632H373.537ZM321.248 108.554V64.6062H346.475V108.554H321.248ZM346.475 111.632V154.088H321.24V111.632H346.475ZM321.24 63.8519V25.2013H346.467V63.8519H321.24ZM346.467 154.851V191.924H321.24V154.851H346.467ZM349.536 154.851H373.537V191.924H349.536V154.851ZM349.536 63.8519V25.2013H373.537V63.8519H349.536ZM374.343 111.632H394.607V154.088H374.343V111.632ZM374.343 108.554V64.6062H394.607V108.554H374.343ZM394.607 63.8519H374.343V25.2013H394.607V63.8519ZM320.391 25.2013V63.8519H301.233V25.2013H320.391ZM301.233 154.851H320.391V191.924H301.233V154.851ZM374.343 191.924V154.851H394.607V191.924H374.343Z" fill="#1D2445"/>
<path d="M201.045 94.0249H197.831V94.8049H201.045V94.0249Z" fill="#E0E0E0"/>
<path d="M201.499 65.0348H198.285V65.7034H201.499V65.0348Z" fill="#E0E0E0"/>
<path d="M250.685 74.1382H245.319V75.4411H250.685V74.1382Z" fill="#E0E0E0"/>
<path d="M251.439 25.7327H246.073V26.8471H251.439V25.7327Z" fill="#E0E0E0"/>
<path d="M202.279 230.043C197.033 230.901 194.693 237.33 195.147 242.627C195.602 247.924 197.788 253.093 197.205 258.374C196.459 265.085 191.393 270.751 190.802 277.472C190.107 285.401 195.713 292.43 197.385 300.213C198.199 303.993 198.088 307.996 199.493 311.605C200.692 314.678 202.92 317.239 205.797 318.852C208.674 320.465 212.022 321.03 215.269 320.451C218.516 319.871 221.461 318.183 223.602 315.674C225.743 313.165 226.947 309.991 227.009 306.693C227.121 300.607 223.366 294.873 223.82 288.804C224.155 284.312 226.786 280.06 226.229 275.594C225.552 270.288 220.632 266.517 218.9 261.451C217.169 256.385 218.832 250.805 218.232 245.481C217.151 235.932 211.863 229.272 202.279 230.052" fill="#F9AB55"/>
<path d="M175.492 276.272C174.635 285.118 178.51 295.524 183.061 303.162C187.671 310.849 194.61 316.869 202.871 320.348C203.788 320.734 204.945 321.06 205.725 320.434C206 320.129 206.207 319.768 206.331 319.376C206.455 318.984 206.494 318.57 206.445 318.162C206.506 308.773 203.523 299.616 197.943 292.064C192.363 284.512 184.486 278.971 175.492 276.272" fill="#F9AB55"/>
<path d="M214.031 338.846C213.926 338.695 213.84 338.531 213.774 338.358C213.611 337.972 213.406 337.501 213.148 336.909C212.617 335.64 211.82 333.823 210.808 331.595C208.169 325.781 205.237 320.105 202.022 314.588C198.795 309.079 195.291 303.737 191.522 298.584C190.073 296.613 188.873 295.027 188.033 293.938L187.081 292.678C186.961 292.541 186.86 292.388 186.781 292.224C186.781 292.224 186.927 292.344 187.159 292.618L188.187 293.818C189.044 294.864 190.313 296.39 191.804 298.379C195.669 303.48 199.226 308.807 202.459 314.331C205.685 319.87 208.582 325.595 211.134 331.475C212.103 333.729 212.848 335.572 213.328 336.858C213.551 337.458 213.731 337.955 213.869 338.341C213.941 338.503 213.996 338.672 214.031 338.846Z" fill="#1D2445"/>
<path d="M208.331 254.516C208.387 254.799 208.422 255.085 208.434 255.373C208.477 255.973 208.537 256.788 208.605 257.808C208.742 259.976 208.94 263.02 209.188 266.774C209.66 274.343 210.337 284.775 211.143 296.338C211.948 307.902 212.754 318.334 213.346 325.894C213.628 329.64 213.868 332.692 214.031 334.852C214.1 335.872 214.151 336.686 214.194 337.286C214.217 337.572 214.217 337.858 214.194 338.143C214.13 337.861 214.087 337.575 214.066 337.286C214.006 336.695 213.92 335.88 213.808 334.86C213.603 332.7 213.32 329.657 212.951 325.92C212.274 318.36 211.417 307.919 210.603 296.364C209.788 284.809 209.171 274.36 208.785 266.783C208.614 263.028 208.468 259.976 208.365 257.808C208.365 256.788 208.305 255.973 208.288 255.373C208.28 255.087 208.294 254.8 208.331 254.516Z" fill="#1D2445"/>
<path d="M211.717 352.661C209.122 352.661 206.626 351.665 204.743 349.88C202.86 348.094 201.734 345.654 201.596 343.063L201.596 343.063L200.724 326.737H221.855V342.524C221.855 345.212 220.787 347.791 218.885 349.692C216.984 351.593 214.406 352.661 211.717 352.661H211.717Z" fill="#1D2445" stroke="#1D2445"/>
<path d="M414.879 353.436C414.879 353.556 328.14 353.659 221.155 353.659C114.169 353.659 27.4301 353.556 27.4301 353.436C27.4301 353.316 114.152 353.213 221.155 353.213C328.157 353.213 414.879 353.316 414.879 353.436Z" fill="#1D2445"/>
<path d="M293.707 172.303L290.278 171.592C287.218 170.675 285.486 170.28 284.775 169.278C283.832 167.932 285.632 167.16 285.632 167.16C285.632 167.16 283.523 165.934 284.012 164.589C284.132 164.322 284.334 164.1 284.588 163.955C284.842 163.81 285.136 163.75 285.426 163.783C285.426 163.783 283.592 162.609 283.361 161.7C283.043 160.466 284.569 160.14 284.569 160.14C282.186 157.928 282.761 156.317 283.421 156.283C284.081 156.248 285.992 157.628 285.992 157.628C287.707 158.486 292.267 160.946 290.99 157.894C289.712 154.842 289.875 152.022 290.45 151.285C290.601 151.128 290.799 151.023 291.014 150.984C291.229 150.946 291.45 150.977 291.647 151.072C291.844 151.167 292.005 151.321 292.109 151.514C292.212 151.706 292.253 151.926 292.224 152.142C292.3 153.257 292.528 154.355 292.901 155.408C293.172 156.263 293.587 157.066 294.127 157.783C294.761 158.64 295.327 159.3 295.841 159.866L298.318 163.414L293.707 172.303Z" fill="#FFBE9D"/>
<path d="M283.216 343.121L283.666 343.331L295.358 348.782L295.809 348.993L295.601 349.445L291.384 358.591L291.186 359.019L290.747 358.847L290.002 358.556L289.997 358.554L289.997 358.554C288.337 357.888 284.149 356.143 280.142 354.356C278.139 353.463 276.176 352.557 274.596 351.769C273.807 351.375 273.108 351.009 272.545 350.686C271.993 350.369 271.54 350.077 271.266 349.831L283.216 343.121ZM283.216 343.121L283.003 343.57M283.216 343.121L283.003 343.57M283.003 343.57L280.224 349.435M283.003 343.57L280.224 349.435M280.224 349.435C280.197 349.43 280.17 349.424 280.141 349.418C279.844 349.356 279.421 349.269 278.921 349.17C277.921 348.974 276.605 348.73 275.352 348.544C274.112 348.36 272.889 348.226 272.096 348.264C271.895 348.273 271.702 348.295 271.534 348.336C271.382 348.374 271.174 348.446 271.021 348.612C270.936 348.705 270.87 348.826 270.848 348.97C270.827 349.11 270.853 349.238 270.894 349.343C270.97 349.536 271.118 349.698 271.266 349.83L280.224 349.435Z" fill="white" stroke="#1D2445"/>
<g opacity="0.3">
<path opacity="0.3" d="M286.729 356.307C287.364 355.403 288.31 354.765 289.387 354.516C290.445 354.253 291.564 354.403 292.515 354.936L290.99 358.202L286.729 356.307Z" fill="white"/>
</g>
<g opacity="0.3">
<path opacity="0.3" d="M275.063 349.004C275.063 349.004 271.12 348.387 271.283 349.167C271.446 349.947 284.801 356.153 290.929 358.382L291.032 358.107L275.397 350.993C275.397 350.993 275.732 349.381 275.063 349.004Z" fill="white"/>
</g>
<path d="M291.212 358.185L291.007 358.116L290.415 357.885L288.247 356.984C286.421 356.213 283.909 355.116 281.175 353.839C278.44 352.561 275.972 351.361 274.206 350.461L272.123 349.381L271.566 349.081L271.369 348.97C271.441 348.988 271.51 349.017 271.574 349.056L272.149 349.33L274.257 350.367C276.032 351.224 278.5 352.424 281.235 353.701C283.969 354.979 286.472 356.084 288.289 356.882L290.432 357.825L291.015 358.082L291.212 358.185Z" fill="#1D2445"/>
<path d="M275.32 351.173C275.386 350.779 275.409 350.38 275.389 349.981C275.318 349.584 275.203 349.196 275.046 348.824C275.32 349.144 275.493 349.538 275.541 349.957C275.59 350.375 275.513 350.798 275.32 351.173Z" fill="#1D2445"/>
<path d="M279.546 351.036C279.446 350.842 279.391 350.628 279.383 350.41C279.332 350.202 279.332 349.984 279.383 349.776C279.383 349.776 279.495 350.041 279.537 350.393C279.594 350.603 279.597 350.824 279.546 351.036Z" fill="#1D2445"/>
<path d="M280.763 350.976C280.72 350.976 280.592 350.778 280.472 350.504C280.352 350.23 280.292 349.998 280.335 349.981C280.378 349.964 280.506 350.17 280.618 350.444C280.711 350.606 280.762 350.789 280.763 350.976V350.976Z" fill="#1D2445"/>
<path d="M281.869 350.144C281.869 350.187 281.569 350.093 281.226 349.938C281.01 349.866 280.811 349.75 280.643 349.596C280.643 349.553 280.952 349.647 281.286 349.801C281.502 349.873 281.701 349.99 281.869 350.144V350.144Z" fill="#1D2445"/>
<path d="M282.443 349.467C282.177 349.507 281.905 349.465 281.663 349.347C281.409 349.276 281.181 349.13 281.012 348.927C281.257 348.996 281.495 349.087 281.723 349.201C281.97 349.269 282.211 349.358 282.443 349.467V349.467Z" fill="#1D2445"/>
<path d="M279.658 349.827C279.391 349.753 279.139 349.634 278.912 349.476C278.654 349.317 278.413 349.133 278.192 348.927C278.057 348.806 277.936 348.671 277.832 348.524C277.767 348.432 277.739 348.319 277.755 348.207C277.766 348.145 277.796 348.088 277.84 348.044C277.884 347.999 277.941 347.97 278.003 347.958C278.23 347.956 278.454 348.004 278.659 348.098C278.865 348.192 279.048 348.33 279.194 348.503C279.341 348.676 279.447 348.878 279.507 349.097C279.566 349.315 279.577 349.544 279.538 349.767C279.527 349.843 279.501 349.916 279.46 349.981C279.489 349.712 279.474 349.44 279.418 349.176C279.338 348.902 279.183 348.655 278.972 348.464C278.849 348.346 278.704 348.253 278.545 348.191C278.386 348.129 278.217 348.1 278.046 348.104C277.883 348.104 277.866 348.301 277.96 348.447C278.061 348.585 278.176 348.711 278.303 348.824C278.515 349.026 278.741 349.213 278.98 349.381C279.383 349.673 279.666 349.801 279.658 349.827Z" fill="#1D2445"/>
<path d="M279.443 349.776C279.429 349.574 279.487 349.373 279.606 349.21C279.721 349.026 279.877 348.871 280.06 348.755C280.177 348.676 280.312 348.626 280.453 348.611C280.593 348.596 280.735 348.617 280.866 348.67C280.934 348.722 280.978 348.799 280.991 348.883C281.004 348.968 280.984 349.054 280.935 349.124C280.863 349.236 280.766 349.33 280.652 349.398C280.477 349.52 280.287 349.619 280.086 349.69C279.906 349.771 279.709 349.806 279.512 349.793C279.512 349.793 279.726 349.724 280.043 349.587C280.23 349.506 280.405 349.403 280.566 349.278C280.746 349.167 280.952 348.918 280.78 348.798C280.609 348.678 280.318 348.798 280.138 348.884C279.964 348.981 279.812 349.112 279.692 349.27C279.599 349.433 279.516 349.602 279.443 349.776V349.776Z" fill="#1D2445"/>
<path d="M292.464 354.876C292.464 354.876 292.147 354.687 291.607 354.507C290.882 354.268 290.105 354.232 289.361 354.404C288.622 354.595 287.947 354.98 287.406 355.519C286.995 355.939 286.824 356.264 286.798 356.256C286.819 356.169 286.857 356.088 286.909 356.016C287.027 355.809 287.168 355.616 287.329 355.442C287.862 354.856 288.558 354.441 289.327 354.25C290.096 354.069 290.902 354.123 291.641 354.404C291.863 354.485 292.075 354.588 292.275 354.713C292.404 354.807 292.472 354.867 292.464 354.876Z" fill="#1D2445"/>
<path d="M293.518 349.45C293.233 350.285 292.895 351.101 292.507 351.893C292.165 352.712 291.775 353.51 291.341 354.284C291.635 353.449 291.976 352.63 292.361 351.833C292.702 351.017 293.088 350.222 293.518 349.45V349.45Z" fill="#1D2445"/>
<path d="M285.786 354.524C285.169 354.387 284.571 354.177 284.003 353.899C283.419 353.655 282.866 353.342 282.358 352.964C282.358 352.921 283.121 353.324 284.072 353.753C285.024 354.182 285.804 354.447 285.786 354.524Z" fill="#1D2445"/>
<path d="M288.118 355.553C288.118 355.553 287.981 355.682 287.818 355.819C287.655 355.956 287.544 356.093 287.509 356.076C287.475 356.059 287.509 355.862 287.715 355.699C287.921 355.536 288.118 355.51 288.118 355.553Z" fill="#1D2445"/>
<path d="M289.447 354.876C289.447 354.876 289.327 355.004 289.155 355.073C288.984 355.142 288.821 355.159 288.804 355.116C288.787 355.073 288.924 354.987 289.095 354.927C289.267 354.867 289.43 354.833 289.447 354.876Z" fill="#1D2445"/>
<path d="M290.912 354.962C290.912 354.962 290.732 354.919 290.527 354.902C290.321 354.884 290.167 354.902 290.149 354.902C290.132 354.902 290.304 354.747 290.544 354.773C290.784 354.799 290.938 354.927 290.912 354.962Z" fill="#1D2445"/>
<path d="M291.898 355.142C291.898 355.142 291.804 355.21 291.684 355.202C291.564 355.193 291.478 355.15 291.487 355.107C291.495 355.064 291.581 355.039 291.701 355.047C291.821 355.056 291.898 355.099 291.898 355.142Z" fill="#1D2445"/>
<path d="M375.998 346.718L375.547 346.93L375.758 347.381L378.505 353.263C378.484 353.28 378.462 353.298 378.439 353.316C378.202 353.506 377.865 353.776 377.471 354.099C376.682 354.745 375.656 355.604 374.715 356.454C373.783 357.294 372.901 358.153 372.425 358.793C372.304 358.955 372.198 359.118 372.123 359.275C372.055 359.418 371.979 359.625 372.01 359.848C372.027 359.971 372.076 360.098 372.171 360.207C372.264 360.313 372.378 360.377 372.485 360.413C372.683 360.481 372.903 360.473 373.101 360.445L373.101 360.446L373.105 360.445C373.469 360.39 373.983 360.228 374.579 360.004C375.186 359.777 375.913 359.473 376.72 359.116C378.334 358.403 380.282 357.47 382.247 356.497C386.176 354.552 390.19 352.438 391.761 351.577L391.761 351.577L391.765 351.575L392.468 351.18L392.877 350.951L392.674 350.528L388.311 341.45L388.096 341.002L387.647 341.214L375.998 346.718Z" fill="white" stroke="#1D2445"/>
<g opacity="0.3">
<path opacity="0.3" d="M387.955 352.63C387.655 351.566 387.766 350.428 388.263 349.441C388.74 348.465 389.566 347.703 390.578 347.307L392.129 350.556L387.955 352.63Z" fill="white"/>
</g>
<g opacity="0.3">
<path opacity="0.3" d="M374.891 356.967C374.891 356.967 371.899 359.616 372.602 359.985C373.305 360.353 386.6 353.984 392.223 350.718L392.078 350.47L376.648 357.979C376.648 357.979 375.551 356.676 374.891 356.967Z" fill="white"/>
</g>
<path d="M392.258 350.376L392.069 350.487L391.512 350.796L389.438 351.893C387.681 352.81 385.238 354.044 382.503 355.322C379.769 356.599 377.283 357.739 375.466 358.527L373.305 359.453L372.714 359.693L372.508 359.762L372.705 359.659L373.28 359.393L375.423 358.433C377.223 357.619 379.709 356.479 382.443 355.176C385.178 353.873 387.586 352.664 389.386 351.747L391.478 350.693L392.052 350.41C392.119 350.391 392.188 350.379 392.258 350.376V350.376Z" fill="#1D2445"/>
<path d="M376.725 358.159C376.472 357.842 376.185 357.555 375.868 357.302C375.518 357.105 375.147 356.947 374.762 356.83C375.185 356.824 375.6 356.944 375.954 357.174C376.308 357.405 376.586 357.736 376.751 358.125L376.725 358.159Z" fill="#1D2445"/>
<path d="M379.331 354.782C379.331 354.782 379.048 354.696 378.748 354.507C378.448 354.319 378.226 354.139 378.251 354.104C378.277 354.07 378.534 354.19 378.834 354.379C379.134 354.567 379.348 354.747 379.331 354.782Z" fill="#1D2445"/>
<path d="M380.034 353.83C380.034 353.873 379.777 353.83 379.494 353.753C379.211 353.676 378.988 353.564 378.997 353.521C379.181 353.505 379.367 353.535 379.537 353.607C379.837 353.667 380.043 353.787 380.034 353.83Z" fill="#1D2445"/>
<path d="M380.112 352.45C380.112 352.493 379.871 352.656 379.537 352.819C379.203 352.981 378.92 353.084 378.894 353.041C379.057 352.879 379.253 352.754 379.469 352.673C379.837 352.51 380.086 352.407 380.112 352.45Z" fill="#1D2445"/>
<path d="M379.94 351.576C379.94 351.576 379.743 351.884 379.357 352.099C379.136 352.248 378.878 352.331 378.611 352.339C379.058 352.091 379.501 351.837 379.94 351.576Z" fill="#1D2445"/>
<path d="M378.448 353.95C378.224 354.112 377.971 354.232 377.703 354.302C377.424 354.398 377.137 354.467 376.845 354.507C376.663 354.529 376.479 354.529 376.297 354.507C376.241 354.504 376.186 354.49 376.136 354.464C376.086 354.439 376.041 354.404 376.005 354.362C375.972 354.309 375.954 354.248 375.954 354.186C375.954 354.124 375.972 354.063 376.005 354.01C376.226 353.734 376.535 353.543 376.88 353.47C377.226 353.396 377.586 353.445 377.9 353.607C378.083 353.703 378.247 353.834 378.38 353.993C378.43 354.047 378.468 354.111 378.491 354.182C378.305 353.989 378.088 353.829 377.848 353.71C377.581 353.586 377.281 353.547 376.991 353.599C376.823 353.618 376.661 353.67 376.514 353.752C376.367 353.835 376.238 353.946 376.134 354.079C376.057 354.224 376.134 354.344 376.34 354.362C376.508 354.379 376.677 354.379 376.845 354.362C377.135 354.331 377.422 354.277 377.703 354.199C378.123 354.062 378.44 353.933 378.448 353.95Z" fill="#1D2445"/>
<path d="M378.277 354.079C378.277 354.079 378.063 353.959 377.943 353.599C377.872 353.392 377.852 353.172 377.883 352.956C377.895 352.815 377.943 352.679 378.02 352.561C378.098 352.443 378.204 352.346 378.328 352.279C378.412 352.26 378.5 352.275 378.574 352.32C378.647 352.364 378.7 352.436 378.723 352.519C378.751 352.648 378.751 352.783 378.723 352.913C378.702 353.124 378.653 353.332 378.577 353.53C378.457 353.873 378.311 354.053 378.294 354.036C378.277 354.019 378.38 353.83 378.474 353.496C378.53 353.303 378.564 353.105 378.577 352.904C378.577 352.69 378.534 352.373 378.337 352.433C378.14 352.493 378.037 352.784 377.994 352.981C377.95 353.176 377.95 353.378 377.994 353.573C378.068 353.752 378.162 353.922 378.277 354.079V354.079Z" fill="#1D2445"/>
<path d="M390.501 347.298C390.501 347.298 390.158 347.427 389.643 347.744C389.003 348.139 388.486 348.707 388.152 349.381C387.823 350.069 387.689 350.834 387.766 351.593C387.826 352.184 387.963 352.527 387.938 352.536C387.888 352.462 387.851 352.381 387.826 352.296C387.743 352.074 387.686 351.844 387.655 351.61C387.543 350.826 387.665 350.027 388.006 349.313C388.351 348.592 388.907 347.994 389.601 347.598C389.806 347.477 390.025 347.38 390.252 347.307C390.334 347.29 390.418 347.288 390.501 347.298V347.298Z" fill="#1D2445"/>
<path d="M386.995 343.029C387.449 343.786 387.861 344.567 388.229 345.37C388.642 346.153 389.008 346.96 389.326 347.787C388.871 347.028 388.458 346.244 388.092 345.438C387.674 344.66 387.308 343.855 386.995 343.029V343.029Z" fill="#1D2445"/>
<path d="M385.949 352.193C385.453 352.587 384.909 352.916 384.329 353.17C383.773 353.473 383.179 353.7 382.563 353.847C382.563 353.847 383.326 353.487 384.277 353.033C385.229 352.579 385.923 352.159 385.949 352.193Z" fill="#1D2445"/>
<path d="M388.229 351.096C388.229 351.096 388.229 351.293 388.229 351.499C388.229 351.704 388.272 351.884 388.229 351.901C388.186 351.919 388.075 351.747 388.075 351.507C388.075 351.267 388.186 351.096 388.229 351.096Z" fill="#1D2445"/>
<path d="M388.58 349.63C388.623 349.63 388.58 349.801 388.538 349.981C388.495 350.161 388.392 350.29 388.358 350.281C388.323 350.273 388.358 350.11 388.358 349.93C388.358 349.75 388.538 349.613 388.58 349.63Z" fill="#1D2445"/>
<path d="M389.575 348.524C389.575 348.567 389.429 348.644 389.292 348.781C389.155 348.918 389.069 349.073 389.026 349.064C388.983 349.056 389.026 348.841 389.18 348.67C389.335 348.498 389.575 348.524 389.575 348.524Z" fill="#1D2445"/>
<path d="M390.346 347.907C390.346 347.907 390.346 348.027 390.26 348.113C390.175 348.198 390.089 348.233 390.055 348.207C390.02 348.181 390.055 348.087 390.14 348.001C390.226 347.915 390.312 347.873 390.346 347.907Z" fill="#1D2445"/>
<path d="M392.746 344.735L373.888 353.504L339.978 293.133C335.563 277.206 331.303 221.129 331.303 221.129L355.836 222.997C355.836 222.997 359.616 263.285 365.539 283.995L392.746 344.735Z" fill="#1D2445"/>
<path d="M370.871 347.598C370.871 347.598 371.111 347.418 371.582 347.17C372.054 346.921 372.748 346.57 373.605 346.15C375.32 345.292 377.711 344.17 380.36 342.935C383.009 341.701 385.409 340.612 387.157 339.849C388.015 339.464 388.752 339.155 389.24 338.992C389.49 338.865 389.755 338.773 390.029 338.718C389.814 338.894 389.574 339.038 389.318 339.146C388.837 339.395 388.152 339.746 387.295 340.166C385.58 341.024 383.189 342.147 380.548 343.381C377.908 344.615 375.5 345.695 373.742 346.467C372.885 346.853 372.157 347.161 371.659 347.324C371.411 347.452 371.145 347.544 370.871 347.598V347.598Z" fill="white"/>
<path d="M366.979 198.559C367.442 198.559 372.457 213.414 367.631 223.263C367.142 224.249 363.345 229.675 363.345 229.675C349.99 245.43 336.463 275.963 332.692 284.012C324.977 300.479 296.381 354.644 296.381 354.644L278.037 344.144L304.859 275.183L329.203 212.951L366.979 198.559Z" fill="#1D2445"/>
<path d="M333.909 262.274C333.909 262.274 332.615 268.54 331.946 268.18C330.034 267.143 316.894 262.248 316.894 262.248L320.443 258.314L333.909 262.274Z" fill="white"/>
<path d="M330.034 267.143C330.034 267.143 327.574 277.249 324.411 276.7C321.248 276.152 314.639 272.826 314.639 272.826L318.625 262.857L330.034 267.143Z" fill="white"/>
<path d="M331.946 268.18L317.28 262.317L317.982 264.468L329.597 268.72L331.946 268.18Z" fill="#1D2445"/>
<path d="M357.405 237.604C357.343 237.74 357.262 237.867 357.165 237.981L356.41 239.001C355.759 239.858 354.833 241.196 353.761 242.85C351.61 246.159 348.901 250.89 346.133 256.239C343.364 261.588 340.989 266.525 339.318 270.074L337.303 274.3L336.746 275.44C336.687 275.577 336.613 275.707 336.523 275.826C336.551 275.681 336.597 275.539 336.661 275.406L337.149 274.232C337.578 273.212 338.221 271.746 339.026 269.946C340.655 266.345 342.952 261.374 345.738 256.033C348.058 251.441 350.634 246.983 353.453 242.678C354.567 241.041 355.527 239.755 356.23 238.898C356.556 238.504 356.83 238.187 357.087 237.93C357.179 237.808 357.285 237.699 357.405 237.604V237.604Z" fill="#455A64"/>
<path d="M279.435 340.929C279.486 340.827 283.815 342.884 289.104 345.532C294.393 348.181 298.627 350.427 298.533 350.538C298.439 350.65 294.153 348.584 288.864 345.935C283.575 343.287 279.383 341.041 279.435 340.929Z" fill="white"/>
<path d="M301.233 163.054C300.238 165.3 299.11 167.484 297.856 169.595C296.732 171.78 295.472 173.893 294.084 175.921C295.081 173.674 296.208 171.487 297.461 169.372C298.592 167.193 299.851 165.083 301.233 163.054V163.054Z" fill="#1D2445"/>
<path d="M335.889 136.97C336.892 136.97 338.084 144.256 339.095 157.345C340.244 172.192 340.141 187.176 336.035 196.596C335.656 197.602 335.082 198.523 334.347 199.307C333.611 200.091 332.729 200.722 331.749 201.165C321.12 205.554 291.795 174.112 291.795 174.112L299.013 161.451L319.663 178.124C319.663 178.124 321.72 161.254 321.326 153.48C321.008 147.582 326.897 137.039 335.889 136.97Z" fill="#1D2445"/>
<path d="M345.027 137.116C345.027 137.116 362.959 139.739 367.596 146.785C372.234 153.831 369.885 215.977 369.885 215.977L323.786 218.703C323.786 218.703 327.506 139.602 329.786 138.702C335.512 136.456 344.341 136.893 345.027 137.116Z" fill="#1D2445"/>
<path d="M269.727 120.859L269.826 122.252H269.954C270.191 123.586 270.64 124.877 271.289 126.073C272.163 127.685 273.378 129.088 274.848 130.184C276.319 131.28 278.01 132.043 279.805 132.42C281.6 132.797 283.455 132.779 285.243 132.367C287.03 131.955 288.706 131.16 290.155 130.035C291.604 128.911 292.791 127.485 293.634 125.856C294.476 124.227 294.955 122.434 295.035 120.602C295.116 118.77 294.797 116.942 294.1 115.245L294.099 115.241C293.912 114.789 293.816 114.304 293.818 113.815V113.809V112.334L318.548 112.334L318.552 112.334C318.796 112.334 319.038 112.381 319.263 112.474C319.489 112.568 319.694 112.704 319.866 112.877C320.039 113.049 320.175 113.254 320.268 113.48C320.361 113.705 320.409 113.947 320.408 114.191V114.195V187.741C320.408 188.235 320.212 188.708 319.864 189.057C319.515 189.406 319.042 189.602 318.548 189.602H245.953C245.608 189.602 245.267 189.534 244.948 189.401C244.629 189.269 244.34 189.075 244.096 188.831C243.853 188.587 243.659 188.297 243.528 187.978C243.396 187.66 243.329 187.318 243.33 186.973V186.97V160.877V159.377H241.83L239.473 159.377L239.462 159.377C238.477 159.384 237.504 159.598 236.606 160.005C235.128 160.655 233.509 160.922 231.9 160.784C230.289 160.646 228.737 160.104 227.39 159.208C226.042 158.313 224.942 157.093 224.189 155.661C223.437 154.229 223.057 152.63 223.085 151.013C223.112 149.395 223.546 147.811 224.346 146.405C225.147 144.999 226.288 143.817 227.665 142.968C229.042 142.119 230.611 141.63 232.226 141.546C233.838 141.462 235.446 141.784 236.901 142.483C237.853 142.957 238.9 143.209 239.964 143.219L239.971 143.219H239.978H241.796H243.296V141.719V114.958C243.296 114.262 243.572 113.595 244.064 113.103C244.556 112.611 245.223 112.334 245.919 112.334H271.292V112.912C271.287 113.501 271.151 114.081 270.894 114.611L270.889 114.62L270.885 114.629C269.973 116.572 269.574 118.717 269.727 120.859Z" fill="#F9F7F8" stroke="#1D2445" stroke-width="3"/>
<path d="M326.914 150.334C326.941 150.504 326.955 150.676 326.957 150.848C326.957 151.242 326.957 151.705 326.957 152.331C326.957 153.677 326.957 155.528 327.026 157.783C327.026 162.386 327.103 168.746 326.957 175.784C326.811 182.821 326.426 189.173 325.954 193.785C325.714 196.082 325.483 197.925 325.294 199.202C325.2 199.802 325.123 200.282 325.054 200.668C325.042 200.841 325.004 201.011 324.943 201.173C324.931 201.002 324.931 200.83 324.943 200.659C324.986 200.273 325.029 199.802 325.097 199.185C325.226 197.899 325.414 196.048 325.611 193.759C326.006 189.173 326.357 182.83 326.469 175.809C326.58 168.789 326.606 162.437 326.666 157.808C326.666 155.554 326.726 153.702 326.743 152.357C326.743 151.757 326.743 151.259 326.786 150.874C326.804 150.689 326.847 150.507 326.914 150.334V150.334Z" fill="white"/>
<path d="M354.336 107.817C353.599 112.497 353.641 116.603 355.93 119.655C356.427 120.242 356.885 120.86 357.302 121.506C357.508 121.832 357.646 122.195 357.706 122.576C357.767 122.956 357.749 123.345 357.653 123.718C357.547 124.049 357.355 124.345 357.096 124.577C356.837 124.809 356.521 124.968 356.18 125.037C355.84 125.106 355.487 125.082 355.158 124.97C354.829 124.857 354.537 124.659 354.31 124.395C354.384 124.925 354.299 125.464 354.066 125.945C353.832 126.426 353.461 126.826 352.999 127.095C352.762 127.204 352.504 127.257 352.245 127.252C351.985 127.246 351.729 127.181 351.498 127.062C351.267 126.943 351.066 126.773 350.91 126.565C350.754 126.357 350.647 126.116 350.598 125.861C350.598 125.861 351.207 128.235 348.481 127.867L350.401 111.58L354.336 107.817Z" fill="#1D2445"/>
<path d="M330.416 104.654C333.67 103.314 337.217 102.84 340.711 103.28C344.305 103.733 347.712 105.136 350.582 107.346L351.229 107.857L349.165 136.737L349.165 136.737C349.038 138.521 348.241 140.191 346.934 141.411C345.628 142.632 343.908 143.313 342.121 143.319C341.127 143.319 340.145 143.11 339.238 142.706C338.331 142.302 337.519 141.711 336.854 140.973C336.19 140.234 335.688 139.364 335.381 138.42C335.075 137.475 334.97 136.476 335.075 135.488L335.075 135.487C335.199 134.271 335.317 133.168 335.404 132.37C335.447 131.97 335.483 131.647 335.507 131.424L335.536 131.167L335.543 131.1L335.545 131.083L335.546 131.079L335.546 131.077L335.546 131.077L335.546 131.077L335.049 131.021L335.546 131.077L335.6 130.601L335.127 130.527L335.127 130.527L335.126 130.527L335.126 130.527L335.125 130.527L335.117 130.526C335.108 130.524 335.094 130.522 335.074 130.518C335.036 130.511 334.978 130.499 334.902 130.482C334.75 130.447 334.53 130.391 334.263 130.305C333.73 130.134 333.02 129.846 332.312 129.385C330.91 128.471 329.508 126.878 329.472 124.08C329.433 121.101 329.674 116.175 329.926 111.979C330.052 109.884 330.18 107.976 330.277 106.592C330.325 105.9 330.366 105.339 330.394 104.951C330.403 104.837 330.41 104.737 330.416 104.654Z" fill="white" stroke="#1D2445"/>
<path d="M331.483 115.146C331.607 115.031 331.694 114.883 331.733 114.719C331.772 114.555 331.763 114.383 331.705 114.224C331.647 114.066 331.544 113.928 331.408 113.828C331.272 113.728 331.11 113.67 330.941 113.662C330.773 113.654 330.606 113.695 330.461 113.782C330.316 113.868 330.2 113.995 330.127 114.147C330.054 114.299 330.027 114.469 330.051 114.636C330.074 114.803 330.146 114.96 330.257 115.086C330.333 115.172 330.425 115.241 330.528 115.291C330.631 115.34 330.743 115.369 330.858 115.374C330.972 115.38 331.086 115.363 331.193 115.324C331.301 115.284 331.399 115.224 331.483 115.146Z" fill="#1D2445"/>
<path d="M329.82 113.252C329.914 113.355 330.506 112.9 331.329 112.9C332.152 112.9 332.76 113.32 332.846 113.217C332.932 113.115 332.803 112.986 332.537 112.78C332.186 112.526 331.762 112.394 331.329 112.403C330.894 112.403 330.471 112.541 330.12 112.797C329.863 113.02 329.777 113.209 329.82 113.252Z" fill="#1D2445"/>
<path d="M339.344 114.512C339.245 114.57 339.159 114.647 339.091 114.739C339.023 114.831 338.974 114.935 338.947 115.046C338.92 115.157 338.915 115.272 338.933 115.385C338.951 115.498 338.992 115.606 339.052 115.703C339.11 115.803 339.188 115.89 339.28 115.959C339.373 116.027 339.478 116.077 339.59 116.104C339.702 116.131 339.819 116.136 339.932 116.117C340.046 116.098 340.155 116.057 340.252 115.995C340.351 115.936 340.437 115.858 340.505 115.765C340.573 115.672 340.622 115.567 340.648 115.455C340.675 115.343 340.678 115.227 340.659 115.113C340.639 115 340.597 114.891 340.535 114.795C340.476 114.697 340.398 114.612 340.306 114.545C340.214 114.477 340.11 114.429 339.999 114.403C339.888 114.377 339.773 114.373 339.66 114.391C339.548 114.41 339.44 114.451 339.344 114.512Z" fill="#1D2445"/>
<path d="M338.795 113.98C338.889 114.083 339.481 113.629 340.304 113.629C341.127 113.629 341.735 114.049 341.821 113.946C341.907 113.843 341.769 113.715 341.512 113.509C341.159 113.254 340.731 113.121 340.295 113.132C339.86 113.132 339.438 113.277 339.095 113.543C338.838 113.749 338.752 113.937 338.795 113.98Z" fill="#1D2445"/>
<path d="M335.486 120.795C335.058 120.632 334.607 120.536 334.149 120.512C333.935 120.512 333.763 120.444 333.746 120.324C333.737 120.107 333.791 119.893 333.901 119.706L334.552 117.992C335.174 116.573 335.648 115.094 335.966 113.577C335.207 114.94 334.587 116.376 334.115 117.863C333.901 118.446 333.695 119.003 333.498 119.578C333.354 119.855 333.311 120.173 333.378 120.478C333.408 120.56 333.457 120.634 333.521 120.693C333.585 120.753 333.662 120.796 333.746 120.821C333.867 120.852 333.99 120.869 334.115 120.872C334.573 120.925 335.037 120.899 335.486 120.795Z" fill="#1D2445"/>
<path d="M337.69 121.854C337.69 121.854 337.69 121.854 337.69 121.855L337.69 121.853C337.689 121.853 337.689 121.853 337.689 121.853C337.689 121.853 337.69 121.853 337.69 121.854ZM338.646 122.634C338.719 122.357 338.724 122.107 338.709 121.923C338.726 121.901 338.745 121.872 338.762 121.836C338.787 121.784 338.878 121.564 338.725 121.338C338.592 121.142 338.388 121.124 338.355 121.121L338.355 121.12C338.295 121.115 338.247 121.122 338.23 121.125C338.207 121.128 338.189 121.133 338.178 121.136C338.156 121.141 338.137 121.148 338.127 121.151C338.105 121.159 338.083 121.168 338.066 121.175C338.03 121.19 337.982 121.211 337.931 121.234C337.901 121.247 337.869 121.261 337.835 121.277C337.616 121.374 337.29 121.52 336.906 121.675C336.46 121.856 335.944 122.046 335.444 122.185C334.934 122.327 334.479 122.404 334.14 122.387L333.166 122.337L333.695 123.157C334.035 123.686 334.546 124.084 335.142 124.285C335.738 124.486 336.385 124.479 336.976 124.265L336.976 124.265L336.978 124.265C338.021 123.882 338.486 123.24 338.646 122.634Z" fill="white" stroke="#1D2445"/>
<path d="M334.998 130.936C337.767 130.987 340.489 130.211 342.815 128.707C342.815 128.707 340.964 132.993 334.98 132.487L334.998 130.936Z" fill="#1D2445"/>
<path d="M351.947 114.673L352.139 113.924C352.225 113.927 352.325 113.933 352.435 113.945C352.807 113.985 353.272 114.089 353.703 114.324C354.128 114.555 354.524 114.915 354.781 115.484C355.04 116.059 355.177 116.887 355.006 118.084C354.838 119.266 354.439 119.94 353.997 120.324C353.554 120.708 353.005 120.856 352.433 120.862C351.857 120.868 351.287 120.73 350.856 120.576C350.713 120.525 350.589 120.473 350.489 120.427C350.539 120.222 350.61 119.937 350.695 119.597C350.866 118.914 351.094 118.016 351.322 117.122C351.549 116.228 351.777 115.339 351.947 114.673ZM350.414 120.748C350.414 120.748 350.414 120.747 350.415 120.743C350.414 120.746 350.414 120.748 350.414 120.748Z" fill="#F9F7F8" stroke="#1D2445"/>
<path d="M351.721 119.115C351.721 119.115 351.798 119.192 351.944 119.278C352.04 119.339 352.147 119.38 352.259 119.399C352.37 119.418 352.485 119.415 352.596 119.389C352.952 119.228 353.259 118.974 353.485 118.655C353.711 118.336 353.848 117.962 353.881 117.572C353.962 117.142 353.941 116.699 353.821 116.278C353.796 116.113 353.731 115.957 353.633 115.823C353.534 115.688 353.405 115.58 353.256 115.506C353.158 115.463 353.047 115.457 352.945 115.488C352.843 115.52 352.755 115.587 352.698 115.678C352.613 115.806 352.63 115.909 352.596 115.918C352.561 115.926 352.501 115.815 352.596 115.618C352.639 115.493 352.728 115.389 352.844 115.326C352.92 115.282 353.004 115.253 353.091 115.243C353.178 115.233 353.266 115.241 353.35 115.266C353.551 115.345 353.728 115.476 353.863 115.644C353.998 115.812 354.087 116.013 354.121 116.226C354.278 116.693 354.313 117.191 354.224 117.675C354.187 118.129 354.015 118.563 353.731 118.92C353.447 119.277 353.064 119.541 352.63 119.681C352.488 119.7 352.344 119.688 352.208 119.645C352.071 119.602 351.946 119.529 351.841 119.432C351.713 119.235 351.704 119.123 351.721 119.115Z" fill="#1D2445"/>
<path d="M328.329 103.737C328.417 103.227 328.702 102.773 329.122 102.472C329.542 102.17 330.064 102.046 330.574 102.125C330.229 102.096 329.896 101.987 329.6 101.808C329.304 101.629 329.053 101.383 328.866 101.092C328.68 100.8 328.564 100.469 328.526 100.124C328.488 99.7802 328.531 99.432 328.649 99.1067C328.768 98.7814 328.96 98.4878 329.21 98.2487C329.461 98.0096 329.763 97.8314 330.093 97.7279C330.424 97.6244 330.774 97.5984 331.116 97.652C331.458 97.7055 331.783 97.8371 332.066 98.0366C331.39 97.4021 330.853 96.6346 330.489 95.7822C330.305 95.3464 330.262 94.864 330.367 94.4028C330.472 93.9415 330.718 93.5246 331.072 93.2107C331.463 92.985 331.906 92.8661 332.357 92.8661C332.809 92.8661 333.252 92.985 333.643 93.2107C334.878 93.8364 335.812 94.9679 337.072 95.4994C338.332 96.0308 339.815 95.9022 341.212 96.048C342.765 96.1747 344.239 96.7898 345.421 97.8052C346.01 98.3116 346.472 98.9493 346.77 99.6669C347.068 100.385 347.193 101.162 347.135 101.937C349.03 101.825 351.104 101.937 352.57 103.111C352.459 102.348 352.553 101.568 352.842 100.853C353.131 100.137 353.605 99.5115 354.216 99.0395C354.994 98.498 355.899 98.1649 356.842 98.0719C357.786 97.9788 358.738 98.129 359.607 98.5081C360.02 98.6486 360.398 98.8737 360.718 99.1689C361.039 99.4641 361.294 99.823 361.468 100.222C361.853 101.38 361.125 102.623 360.207 103.428C359.349 104.157 358.332 104.673 357.238 104.937C356.144 105.2 355.003 105.203 353.907 104.946C354.254 105.84 354.401 106.8 354.336 107.757C354.241 109.412 352.913 111.126 352.33 112.677L352.201 113.697L351.207 117.941L348.55 117.726L349.278 108.811C349.278 108.811 349.775 105.066 346.518 105.194C343.261 105.323 338.641 108.709 332.4 107.397C331.376 107.275 330.393 106.927 329.52 106.377C329.109 106.079 328.782 105.679 328.573 105.216C328.364 104.752 328.28 104.243 328.329 103.737V103.737Z" fill="#1D2445"/>
<path d="M363.276 107.654C362.775 108.038 362.186 108.292 361.562 108.391C360.047 108.736 358.459 108.55 357.065 107.865C355.67 107.18 354.553 106.038 353.899 104.628C353.592 104.072 353.43 103.447 353.427 102.811C353.504 102.811 353.642 103.505 354.182 104.526C354.873 105.814 355.951 106.854 357.264 107.498C358.577 108.143 360.059 108.359 361.502 108.117C362.599 107.894 363.242 107.569 363.276 107.654Z" fill="#1D2445"/>
<path d="M356.907 112.592C356.839 112.592 356.907 112.06 356.753 111.272C356.509 110.241 356.089 109.261 355.51 108.374C354.905 107.469 354.361 106.524 353.881 105.546C353.659 105.141 353.541 104.687 353.539 104.226C353.778 104.603 353.988 104.998 354.164 105.408C354.55 106.128 355.21 107.054 355.879 108.143C356.493 109.07 356.897 110.12 357.062 111.22C357.162 111.682 357.107 112.164 356.907 112.592V112.592Z" fill="#1D2445"/>
<path d="M305.177 145.833L305.216 145.877C305.258 145.923 305.32 145.99 305.398 146.076C305.556 146.247 305.781 146.492 306.054 146.784C306.601 147.368 307.335 148.139 308.088 148.891C308.844 149.646 309.608 150.371 310.218 150.868C310.343 150.97 310.458 151.059 310.563 151.136C310.351 150.719 310.001 150.189 309.582 149.621C308.722 148.452 307.631 147.204 307.049 146.613C306.411 145.966 306.034 145.284 306.029 144.67C306.027 144.349 306.129 144.039 306.36 143.801C306.587 143.567 306.893 143.448 307.218 143.416L307.221 143.415L307.221 143.415C307.374 143.401 307.511 143.443 307.599 143.476C307.697 143.513 307.797 143.564 307.893 143.62C308.085 143.732 308.307 143.888 308.542 144.07C309.015 144.434 309.587 144.932 310.167 145.462C311.328 146.525 312.552 147.749 313.136 148.372C313.193 148.433 313.254 148.498 313.319 148.568C313.923 149.216 314.823 150.182 315.582 150.731C315.788 150.881 315.965 150.984 316.105 151.042C316.185 151.075 316.237 151.086 316.265 151.09C316.267 151.086 316.269 151.081 316.271 151.075C316.305 150.985 316.337 150.797 316.318 150.457C316.228 148.924 316.428 147.542 316.745 146.475C316.902 145.941 317.092 145.478 317.295 145.11C317.49 144.757 317.725 144.44 317.998 144.259C318.577 143.875 319.223 144.055 319.616 144.44C320.002 144.818 320.201 145.433 319.977 146.054C319.731 146.97 319.612 147.914 319.623 148.862L319.623 148.873L319.622 148.883C319.599 149.632 319.702 150.378 319.925 151.093L319.926 151.094C320.128 151.743 320.33 152.316 320.524 152.821L320.527 152.829L320.527 152.829L322.541 158.375L322.636 158.637L322.464 158.855L317.406 165.259L317.131 165.607L316.752 165.375L312.237 162.599C312.236 162.598 312.236 162.598 312.236 162.598C309.237 160.774 306.34 158.786 303.56 156.644L303.551 156.637L303.542 156.63C301.893 155.237 301.065 154.414 300.712 153.876C300.536 153.607 300.408 153.307 300.475 152.991C300.539 152.693 300.755 152.516 300.846 152.441C300.847 152.44 300.848 152.439 300.85 152.438C301.167 152.163 301.568 152.195 301.855 152.272C302.158 152.353 302.484 152.52 302.8 152.714C303.437 153.103 304.169 153.685 304.825 154.211C304.855 154.235 304.885 154.259 304.914 154.282C305.291 154.584 305.635 154.86 305.931 155.081C305.747 154.835 305.51 154.563 305.232 154.27C304.679 153.686 303.997 153.055 303.315 152.424C303.222 152.337 303.128 152.25 303.035 152.164C302.275 151.459 301.529 150.754 301.043 150.163C300.805 149.873 300.593 149.567 300.49 149.273C300.437 149.123 300.401 148.942 300.43 148.752C300.462 148.547 300.564 148.368 300.726 148.234L300.728 148.232L300.728 148.232C301.061 147.96 301.467 147.926 301.835 147.992C302.197 148.058 302.575 148.228 302.944 148.442C303.48 148.753 304.06 149.198 304.63 149.689C303.89 148.826 303.199 147.932 302.767 147.16C302.542 146.759 302.365 146.354 302.305 145.982C302.245 145.604 302.296 145.164 302.661 144.859L305.177 145.833ZM305.177 145.833C305.168 145.821 305.158 145.806 305.145 145.788C305.112 145.741 305.064 145.675 305.004 145.599C304.886 145.449 304.714 145.249 304.507 145.068C304.306 144.892 304.036 144.702 303.721 144.62C303.378 144.531 302.996 144.578 302.661 144.858L305.177 145.833ZM308.447 153.542C308.447 153.542 308.447 153.543 308.446 153.544C308.447 153.543 308.447 153.542 308.447 153.542ZM306.699 155.562C306.699 155.562 306.697 155.562 306.693 155.561C306.697 155.562 306.699 155.562 306.699 155.562ZM310.763 151.684C310.763 151.684 310.762 151.681 310.763 151.676C310.763 151.682 310.763 151.684 310.763 151.684Z" fill="white" stroke="#1D2445"/>
<path d="M362.393 143.108C363.456 143.373 369.782 146.648 369.885 160.989C369.962 172.389 369.088 197.693 361.313 201.456C357.79 203.171 352.441 203.171 347.795 200.128C334.698 191.667 311.502 164.392 311.502 164.392L321.883 153.334C321.883 153.334 348.833 180.764 349.981 179.752C351.696 178.227 349.064 165.129 350.538 152.185C351.55 142.979 355.836 141.47 362.393 143.108Z" fill="#1D2445"/>
<path d="M321.865 153.728C321.814 153.798 321.753 153.862 321.685 153.917L321.128 154.465C320.64 154.937 319.92 155.64 319.011 156.583C316.424 159.254 314.046 162.12 311.896 165.154V164.957C319.217 172.423 329.897 183.284 341.752 195.362C344.553 198.025 347.969 199.954 351.696 200.976C353.451 201.465 355.295 201.547 357.087 201.216C358.792 200.839 360.375 200.041 361.69 198.893C364.092 196.694 365.849 193.881 366.773 190.759C367.593 188.036 368.144 185.24 368.419 182.41C369.114 177.267 369.482 172.981 369.645 170.092C369.731 168.635 369.774 167.52 369.808 166.732V165.874C369.796 165.778 369.796 165.68 369.808 165.583C369.821 165.683 369.821 165.783 369.808 165.883C369.808 166.097 369.808 166.389 369.808 166.74C369.808 167.512 369.808 168.643 369.731 170.109C369.619 173.032 369.302 177.267 368.642 182.461C368.386 185.316 367.849 188.138 367.039 190.887C366.113 194.08 364.335 196.96 361.896 199.219C360.531 200.417 358.886 201.251 357.113 201.645C355.259 201.989 353.351 201.907 351.533 201.405C347.729 200.373 344.241 198.411 341.384 195.696C329.486 183.601 318.891 172.663 311.622 165.18L311.528 165.086L311.605 164.983C313.784 161.956 316.204 159.11 318.84 156.471C319.774 155.554 320.554 154.868 321.025 154.405L321.608 153.9L321.865 153.728Z" fill="white"/>
<path d="M321.874 153.334C321.874 153.334 321.934 153.334 322.02 153.454L322.423 153.857L323.957 155.408C325.286 156.763 327.232 158.7 329.675 161.074C332.118 163.449 335.066 166.277 338.392 169.38L343.638 174.241C345.481 175.904 347.384 177.669 349.424 179.332L349.073 179.504C349.133 178.492 349.193 177.421 349.253 176.341C349.596 170.675 349.913 165.274 350.204 160.363C350.384 157.911 350.427 155.571 350.693 153.385C350.89 151.341 351.454 149.35 352.356 147.505C353.104 145.972 354.238 144.66 355.647 143.699C356.725 142.993 357.963 142.572 359.248 142.473C360.053 142.406 360.864 142.505 361.63 142.765C361.899 142.844 362.156 142.959 362.393 143.108C362.393 143.108 362.128 142.996 361.605 142.85C360.842 142.633 360.045 142.563 359.256 142.645C358.013 142.773 356.821 143.206 355.784 143.905C354.435 144.869 353.351 146.157 352.63 147.651C351.771 149.47 351.237 151.425 351.053 153.428C350.813 155.588 350.787 157.928 350.616 160.38L349.698 176.358C349.638 177.438 349.57 178.518 349.518 179.521V179.958L349.184 179.692C347.093 177.978 345.224 176.264 343.381 174.549C341.538 172.835 339.806 171.223 338.144 169.663C334.835 166.534 331.903 163.663 329.486 161.289C327.069 158.914 325.157 156.9 323.863 155.511C323.203 154.825 322.723 154.277 322.388 153.9L322.02 153.48C321.908 153.385 321.866 153.334 321.874 153.334Z" fill="white"/>
<path d="M316.079 168.969C316.449 168.312 316.889 167.697 317.391 167.135C318.248 166.046 319.465 164.563 320.863 162.96C322.26 161.357 323.554 159.943 324.514 158.94C325.005 158.368 325.554 157.848 326.151 157.388C325.741 158.021 325.27 158.612 324.746 159.154L321.197 163.251L317.631 167.34C317.166 167.931 316.647 168.476 316.079 168.969V168.969Z" fill="white"/>
<path d="M351.764 185.941C351.234 184.893 350.798 183.8 350.461 182.675C349.977 181.605 349.587 180.495 349.295 179.358C350.567 181.357 351.407 183.599 351.764 185.941V185.941Z" fill="white"/>
<path d="M354.121 184.115C353.112 183.494 352.185 182.748 351.361 181.895C350.44 181.141 349.614 180.277 348.901 179.324C350.838 180.692 352.592 182.303 354.121 184.115Z" fill="white"/>
<path d="M86.4143 297.934L96.7036 311.744L69.907 335.93L62.9388 327.014L86.4143 297.934Z" fill="white" stroke="#1D2445"/>
<path d="M70.1415 337.225L69.8502 337.49L70.0393 337.835L70.4778 337.595L70.0393 337.835L70.0395 337.835L70.0402 337.837L70.0432 337.842L70.0552 337.864L70.102 337.95C70.143 338.026 70.2029 338.137 70.2783 338.277C70.4292 338.559 70.6421 338.96 70.8899 339.436C71.3859 340.389 72.0194 341.64 72.5741 342.841C73.1343 344.053 73.5954 345.175 73.7673 345.885C73.7736 345.912 73.7795 345.937 73.7849 345.961C73.5592 345.793 73.2557 345.529 72.8806 345.169C72.4034 344.712 71.8352 344.127 71.2039 343.447C69.9417 342.09 68.4408 340.375 66.9335 338.607C63.9197 335.071 60.8941 331.337 59.7278 329.855C59.7277 329.854 59.7275 329.854 59.7274 329.854L59.4968 329.559L62.6683 326.783L70.734 336.686L70.1415 337.225Z" fill="white" stroke="#1D2445"/>
<g opacity="0.5">
<path opacity="0.5" d="M62.1804 333.146C62.9143 332.232 63.281 331.076 63.209 329.906C63.1571 328.749 62.6668 327.655 61.8375 326.846L58.9659 329.417L62.1804 333.146Z" fill="white"/>
</g>
<path d="M73.1266 342.841C73.1266 342.841 74.9438 346.681 74.0952 346.741C73.2466 346.801 62.9517 335.066 58.8115 329.494L59.0601 329.306L71.0007 343.098C71.0007 343.098 72.5694 342.267 73.1266 342.841Z" fill="#1D2445"/>
<path d="M58.923 329.143C58.9617 329.211 59.0077 329.274 59.0601 329.332L59.4716 329.872L61.0402 331.809C62.3689 333.438 64.2461 335.658 66.3634 338.066C68.4806 340.475 70.4522 342.618 71.9008 344.152L73.6152 345.952L74.0866 346.433C74.1406 346.493 74.201 346.548 74.2666 346.595L74.1123 346.407L73.658 345.91C73.2037 345.404 72.638 344.795 71.9437 344.075C70.5207 342.524 68.5663 340.372 66.4491 337.963C64.3318 335.555 62.446 333.343 61.0831 331.732L59.4801 329.829L59.043 329.314C59.0092 329.253 58.969 329.196 58.923 329.143V329.143Z" fill="#1D2445"/>
<path d="M70.8379 343.235C71.2187 343.041 71.6217 342.895 72.038 342.798C72.4623 342.75 72.8908 342.75 73.3152 342.798C72.9175 342.58 72.4527 342.519 72.0122 342.627C71.5592 342.678 71.1411 342.895 70.8379 343.235V343.235Z" fill="#1D2445"/>
<path d="M69.7064 338.846C69.9291 338.899 70.161 338.899 70.3836 338.846C70.7522 338.795 71.0436 338.709 71.0351 338.658C70.5813 338.62 70.1251 338.693 69.7064 338.872V338.846Z" fill="#1D2445"/>
<path d="M69.4149 337.629C69.4149 337.629 69.6549 337.741 69.9721 337.775C70.2892 337.809 70.5464 337.775 70.555 337.775C70.5636 337.775 70.3064 337.663 69.9892 337.629C69.6721 337.595 69.4149 337.578 69.4149 337.629Z" fill="#1D2445"/>
<path d="M69.9207 336.249C69.9207 336.249 70.0664 336.541 70.3235 336.841C70.5807 337.141 70.8207 337.363 70.855 337.329C70.8893 337.295 70.7093 337.038 70.4435 336.738C70.1778 336.438 69.9549 336.215 69.9207 336.249Z" fill="#1D2445"/>
<path d="M70.4435 335.461C70.478 335.743 70.601 336.007 70.7949 336.215C71.0778 336.583 71.395 336.798 71.4207 336.763C71.4464 336.729 71.1892 336.472 70.9321 336.112C70.7867 335.882 70.6233 335.664 70.4435 335.461V335.461Z" fill="#1D2445"/>
<path d="M70.9064 338.409C71.0637 338.66 71.2639 338.88 71.4979 339.061C71.7348 339.275 71.9933 339.465 72.2694 339.626C72.43 339.737 72.6062 339.824 72.7922 339.884C72.9026 339.926 73.0247 339.926 73.1351 339.884C73.1947 339.852 73.2436 339.803 73.2756 339.744C73.3076 339.684 73.3214 339.617 73.3151 339.549C73.2487 339.318 73.1322 339.105 72.9739 338.924C72.8157 338.743 72.6195 338.599 72.3994 338.503C72.1794 338.406 71.9407 338.359 71.7005 338.365C71.4602 338.371 71.2242 338.43 71.0093 338.538C70.9344 338.573 70.8673 338.622 70.8121 338.684C71.0826 338.563 71.3736 338.496 71.6693 338.486C71.9721 338.483 72.2696 338.566 72.5265 338.726C72.6851 338.819 72.8231 338.942 72.9322 339.089C73.0413 339.237 73.1191 339.405 73.1608 339.584C73.1608 339.755 73.0237 339.824 72.8522 339.772C72.6831 339.709 72.5197 339.632 72.3636 339.541C72.0913 339.386 71.8306 339.211 71.5836 339.018C71.1464 338.641 70.9321 338.384 70.9064 338.409Z" fill="#1D2445"/>
<path d="M71.0265 338.606C71.2351 338.566 71.4215 338.45 71.5494 338.281C71.7063 338.108 71.8182 337.899 71.8751 337.672C71.9295 337.529 71.9446 337.374 71.919 337.224C71.8934 337.073 71.8279 336.932 71.7294 336.815C71.6545 336.762 71.5623 336.74 71.4715 336.752C71.3807 336.765 71.2982 336.812 71.2408 336.883C71.1506 336.992 71.0835 337.117 71.0437 337.252C70.9749 337.469 70.9346 337.694 70.9237 337.921C70.8911 338.125 70.9118 338.335 70.9837 338.529C71.0152 338.331 71.0324 338.13 71.0351 337.929C71.0681 337.717 71.1197 337.507 71.1894 337.303C71.2494 337.089 71.4465 336.806 71.6265 336.943C71.6905 337.044 71.7327 337.157 71.7504 337.275C71.7681 337.394 71.761 337.514 71.7294 337.629C71.6831 337.835 71.5924 338.028 71.4637 338.195C71.3297 338.344 71.1835 338.482 71.0265 338.606V338.606Z" fill="#1D2445"/>
<path d="M61.9146 326.871C61.9146 326.871 62.206 327.137 62.5574 327.652C63.0213 328.319 63.2913 329.103 63.3375 329.915C63.3675 330.724 63.1779 331.527 62.7889 332.237C62.4803 332.778 62.1974 333.095 62.2231 333.095C62.2489 333.095 62.3089 333.043 62.4289 332.915C62.6023 332.732 62.7547 332.531 62.8832 332.315C63.3254 331.598 63.5406 330.764 63.5003 329.923C63.4524 329.081 63.154 328.272 62.6432 327.6C62.4932 327.398 62.3206 327.214 62.1288 327.051C62.0088 326.914 61.9231 326.863 61.9146 326.871Z" fill="#1D2445"/>
<path d="M64.3062 333.566C64.6317 334.155 65.0322 334.7 65.4976 335.186C65.9233 335.711 66.4161 336.178 66.9634 336.575C66.9634 336.575 66.3634 335.906 65.6348 335.075C64.9062 334.243 64.3919 333.54 64.3062 333.566Z" fill="#1D2445"/>
<path d="M62.5489 331.543C62.4974 331.543 62.4546 331.723 62.3603 331.92C62.266 332.117 62.1631 332.289 62.1974 332.323C62.2317 332.357 62.4031 332.229 62.5146 331.989C62.626 331.749 62.5917 331.543 62.5489 331.543Z" fill="#1D2445"/>
<path d="M62.8232 329.949C62.7803 329.949 62.7289 330.103 62.7117 330.309C62.6946 330.515 62.7117 330.677 62.7717 330.677C62.8318 330.677 62.866 330.523 62.8832 330.317C62.9003 330.112 62.866 329.949 62.8232 329.949Z" fill="#1D2445"/>
<path d="M62.3003 328.483C62.3003 328.483 62.3946 328.654 62.4717 328.852C62.5489 329.049 62.566 329.229 62.6175 329.237C62.6689 329.246 62.7289 329.032 62.6175 328.792C62.506 328.552 62.3174 328.44 62.3003 328.483Z" fill="#1D2445"/>
<path d="M61.8203 327.532C61.8203 327.532 61.8203 327.652 61.8203 327.763C61.8203 327.874 61.9317 327.96 61.9746 327.943C62.0175 327.926 61.9746 327.823 61.9746 327.703C61.9746 327.583 61.8632 327.514 61.8203 327.532Z" fill="#1D2445"/>
<path d="M129.811 312.054H145.89L149.119 348.59H135.902L129.811 312.054Z" fill="white" stroke="#1D2445"/>
<path d="M149.753 348.181V347.683L149.256 347.681L135.481 347.621L134.962 347.619L134.979 348.137L135.142 353.34L135.157 353.824H135.641H136.494C138.397 353.859 143.213 353.884 147.867 353.794C150.196 353.749 152.489 353.675 154.359 353.558C155.294 353.5 156.128 353.43 156.81 353.348C157.481 353.266 158.042 353.169 158.408 353.043L158.408 353.043C158.6 352.977 158.807 352.881 158.954 352.723C159.034 352.636 159.106 352.521 159.135 352.376C159.164 352.229 159.141 352.092 159.093 351.978C159.008 351.772 158.84 351.627 158.707 351.532C158.561 351.426 158.382 351.329 158.188 351.238C157.424 350.879 156.174 350.507 154.884 350.174C153.581 349.838 152.196 349.532 151.14 349.311C150.611 349.2 150.163 349.11 149.847 349.047C149.814 349.041 149.783 349.035 149.753 349.029V348.181Z" fill="white" stroke="#1D2445"/>
<g opacity="0.5">
<path opacity="0.5" d="M140.51 353.033C140.268 351.885 139.608 350.867 138.659 350.178C137.726 349.5 136.573 349.194 135.427 349.321L135.564 353.153L140.51 353.033Z" fill="white"/>
</g>
<path d="M154.954 350.718C154.954 350.718 159.068 351.747 158.588 352.433C158.108 353.119 142.473 353.676 135.556 353.29V352.981L153.797 352.493C153.797 352.493 154.157 350.787 154.954 350.718Z" fill="#1D2445"/>
<path d="M135.35 353.016H135.59H136.267H138.753C140.862 353.016 143.767 353.016 146.973 352.87C150.179 352.724 153.085 352.596 155.185 352.45L157.671 352.261L158.348 352.193H158.58H158.348H157.671L155.177 352.33C153.077 352.45 150.179 352.596 146.973 352.707C143.767 352.819 140.862 352.87 138.753 352.896H136.267H135.59L135.35 353.016Z" fill="#1D2445"/>
<path d="M153.805 352.741C153.899 352.324 154.04 351.919 154.225 351.533C154.472 351.175 154.76 350.847 155.082 350.556C154.659 350.721 154.315 351.044 154.122 351.456C153.862 351.83 153.749 352.288 153.805 352.741V352.741Z" fill="#1D2445"/>
<path d="M149.691 350.83C149.734 350.83 149.922 350.616 150.111 350.29C150.299 349.964 150.419 349.69 150.376 349.664C150.202 349.816 150.061 350.003 149.965 350.213C149.83 350.396 149.736 350.607 149.691 350.83Z" fill="#1D2445"/>
<path d="M148.568 350.29C148.568 350.29 148.808 350.17 149.039 349.947C149.271 349.724 149.425 349.518 149.391 349.493C149.356 349.467 149.151 349.604 148.919 349.827C148.688 350.05 148.533 350.238 148.568 350.29Z" fill="#1D2445"/>
<path d="M147.822 349.021C148.051 349.096 148.295 349.117 148.533 349.081C148.777 349.102 149.023 349.069 149.253 348.987C149.022 348.908 148.775 348.884 148.533 348.918C148.139 348.927 147.822 348.97 147.822 349.021Z" fill="#1D2445"/>
<path d="M147.539 348.113C147.78 348.263 148.061 348.335 148.345 348.318C148.638 348.366 148.938 348.318 149.202 348.181C148.934 348.153 148.664 348.153 148.396 348.181C148.113 348.134 147.826 348.111 147.539 348.113V348.113Z" fill="#1D2445"/>
<path d="M150.111 349.621C150.394 349.671 150.684 349.671 150.968 349.621C151.286 349.569 151.599 349.489 151.902 349.381C152.085 349.321 152.26 349.241 152.425 349.141C152.529 349.077 152.605 348.976 152.639 348.858C152.65 348.793 152.641 348.727 152.616 348.666C152.59 348.605 152.548 348.553 152.494 348.515C152.152 348.36 151.768 348.328 151.406 348.427C151.044 348.526 150.728 348.748 150.513 349.056C150.382 349.234 150.291 349.438 150.248 349.656C150.227 349.731 150.227 349.811 150.248 349.887C150.334 349.615 150.462 349.358 150.625 349.124C150.815 348.888 151.067 348.71 151.354 348.61C151.52 348.54 151.7 348.504 151.881 348.504C152.062 348.504 152.241 348.54 152.408 348.61C152.554 348.713 152.502 348.875 152.348 348.978C152.195 349.066 152.034 349.141 151.868 349.201C151.576 349.315 151.275 349.404 150.968 349.467C150.453 349.578 150.111 349.596 150.111 349.621Z" fill="#1D2445"/>
<path d="M150.351 349.656C150.446 349.468 150.473 349.253 150.428 349.047C150.394 348.816 150.303 348.598 150.162 348.413C150.087 348.282 149.978 348.173 149.847 348.098C149.716 348.023 149.567 347.983 149.416 347.984C149.328 348.008 149.252 348.065 149.205 348.143C149.157 348.221 149.141 348.314 149.159 348.404C149.181 348.544 149.237 348.677 149.322 348.79C149.443 348.981 149.59 349.154 149.759 349.304C149.898 349.461 150.075 349.579 150.274 349.647C150.274 349.647 150.094 349.493 149.836 349.227C149.694 349.066 149.565 348.894 149.451 348.713C149.322 348.524 149.228 348.198 149.451 348.147C149.673 348.095 149.905 348.335 150.042 348.498C150.172 348.665 150.263 348.858 150.308 349.064C150.338 349.26 150.352 349.458 150.351 349.656V349.656Z" fill="#1D2445"/>
<path d="M135.538 349.261C135.538 349.261 135.933 349.21 136.55 349.261C137.361 349.331 138.137 349.628 138.787 350.118C139.435 350.605 139.936 351.26 140.236 352.013C140.467 352.596 140.502 352.99 140.536 352.981C140.549 352.89 140.549 352.798 140.536 352.707C140.499 352.459 140.439 352.215 140.356 351.979C140.083 351.181 139.575 350.484 138.899 349.981C138.218 349.487 137.407 349.204 136.567 349.167C136.316 349.146 136.064 349.146 135.813 349.167C135.717 349.183 135.624 349.214 135.538 349.261V349.261Z" fill="#1D2445"/>
<path d="M142.19 351.653C142.851 351.779 143.525 351.817 144.196 351.764C144.869 351.769 145.54 351.688 146.193 351.524C146.193 351.473 145.293 351.567 144.187 351.601C143.082 351.636 142.19 351.61 142.19 351.653Z" fill="#1D2445"/>
<path d="M139.507 351.73C139.507 351.73 139.584 351.919 139.687 352.116C139.79 352.313 139.842 352.501 139.884 352.501C139.927 352.501 139.953 352.279 139.833 352.047C139.713 351.816 139.533 351.696 139.507 351.73Z" fill="#1D2445"/>
<path d="M138.453 350.513C138.453 350.513 138.513 350.684 138.659 350.821C138.804 350.958 138.95 351.044 138.984 351.01C139.019 350.976 138.924 350.838 138.77 350.701C138.616 350.564 138.479 350.478 138.453 350.513Z" fill="#1D2445"/>
<path d="M136.987 349.981C136.987 350.033 137.176 350.024 137.381 350.084C137.587 350.144 137.733 350.256 137.767 350.221C137.801 350.187 137.681 349.998 137.424 349.93C137.167 349.861 136.97 349.947 136.987 349.981Z" fill="#1D2445"/>
<path d="M135.941 349.75C135.941 349.793 136.01 349.861 136.121 349.904C136.233 349.947 136.344 349.904 136.361 349.904C136.378 349.904 136.293 349.793 136.181 349.75C136.07 349.707 135.958 349.707 135.941 349.75Z" fill="#1D2445"/>
<path d="M121.412 201.388C121.412 201.388 132.513 275.106 130.901 278.698C129.29 282.289 93.3306 319.071 93.3306 319.071L79.8213 295.961C79.8213 295.961 103.617 269.603 103.274 268.24C102.931 266.877 86.1302 195.456 86.1302 195.456L121.412 201.388Z" fill="#1D2445"/>
<path d="M125.364 228.612C125.252 227.823 116.295 207.688 116.295 207.688L120.64 201.551L121.412 201.388L125.364 228.612Z" fill="#1D2445"/>
<path d="M79.8212 194.445L79.144 197.179C77.183 205.248 78.4112 213.763 82.5727 220.949L112.643 273.092C114.779 276.786 116.335 280.787 117.255 284.955L124.755 318.694H149.442C149.442 318.694 146.39 295.55 143.673 278.672C141.616 265.925 124.558 226.383 116.295 207.662L121.438 201.362L112.549 199.879L79.8212 194.445Z" fill="#1D2445"/>
<path d="M116.946 207.542C117.29 208.67 117.711 209.772 118.206 210.843C119.063 212.857 120.16 215.643 121.36 218.737C122.561 221.832 123.615 224.66 124.369 226.701C124.731 227.822 125.167 228.919 125.672 229.984C125.641 229.664 125.569 229.35 125.458 229.049C125.295 228.466 125.038 227.618 124.703 226.58C124.026 224.506 122.989 221.669 121.823 218.557C120.658 215.446 119.432 212.685 118.523 210.705C118.069 209.711 117.666 208.914 117.417 208.374C117.298 208.077 117.139 207.797 116.946 207.542V207.542Z" fill="white"/>
<path d="M119.646 295.198C119.665 295.005 119.665 294.809 119.646 294.615C119.595 294.178 119.535 293.63 119.458 292.944C119.372 292.06 119.241 291.182 119.063 290.312C118.866 289.301 118.677 288.127 118.343 286.884C118.189 286.249 118.026 285.581 117.855 284.895C117.683 284.209 117.443 283.498 117.22 282.761C116.809 281.278 116.226 279.743 115.66 278.115C114.316 274.607 112.785 271.173 111.074 267.828C107.905 261.813 104.397 255.984 100.565 250.367C99.1165 248.207 97.9164 246.467 97.0763 245.276L96.1077 243.947C95.9989 243.785 95.8755 243.633 95.7391 243.493C95.8131 243.675 95.908 243.847 96.022 244.007L96.9221 245.421C97.7792 246.699 98.8936 248.447 100.282 250.565C103.102 254.936 106.994 261.005 110.646 268.051C112.332 271.368 113.851 274.766 115.197 278.235C115.772 279.846 116.372 281.372 116.8 282.838C117.023 283.566 117.255 284.269 117.452 284.955C117.649 285.641 117.803 286.292 117.966 286.927C118.326 288.178 118.532 289.335 118.755 290.355C118.977 291.375 119.132 292.241 119.235 292.927C119.338 293.613 119.44 294.153 119.518 294.581C119.537 294.791 119.58 294.998 119.646 295.198Z" fill="#455A64"/>
<path d="M83.8758 218.489C83.8758 218.489 83.8072 218.411 83.6872 218.231L83.1643 217.374C83.5763 216.727 84.1154 216.17 84.749 215.736C85.3825 215.303 86.0973 215.003 86.8502 214.854C87.976 214.601 89.14 214.566 90.279 214.751C91.6164 214.985 92.9303 215.338 94.2049 215.806C95.6774 216.261 97.1108 216.834 98.4908 217.52C100.066 218.305 101.305 219.632 101.98 221.257C102.316 222.145 102.373 223.114 102.142 224.035C101.861 224.927 101.491 225.788 101.037 226.606C100.573 227.404 100.322 228.307 100.308 229.229C100.383 230.16 100.809 231.027 101.5 231.655C103.145 233.292 105.58 233.592 107.594 234.612C109.56 235.607 111.162 237.197 112.172 239.155C113.119 240.897 113.564 242.867 113.457 244.847C113.356 246.573 112.8 248.241 111.846 249.682C110.483 251.774 108.449 253.34 106.077 254.122C105.438 254.323 104.78 254.458 104.114 254.525C103.883 254.542 103.651 254.542 103.42 254.525C104.292 254.397 105.152 254.197 105.991 253.925C108.284 253.101 110.238 251.539 111.546 249.485C112.45 248.083 112.97 246.47 113.054 244.804C113.135 242.894 112.693 240.997 111.777 239.318C110.794 237.445 109.251 235.926 107.363 234.972C106.394 234.492 105.305 234.167 104.217 233.755C103.076 233.379 102.029 232.762 101.148 231.946C100.378 231.239 99.9055 230.264 99.828 229.221C99.8434 228.224 100.112 227.248 100.608 226.383C101.053 225.587 101.418 224.749 101.697 223.88C101.908 223.042 101.855 222.158 101.542 221.352C100.916 219.814 99.752 218.556 98.268 217.811C96.9115 217.114 95.5012 216.526 94.0506 216.054C92.8042 215.575 91.5157 215.213 90.2018 214.974C89.1038 214.772 87.9769 214.787 86.8845 215.017C86.1535 215.152 85.4563 215.43 84.8327 215.834C84.2091 216.238 83.6713 216.762 83.25 217.374V217.374L83.7215 218.231C83.7824 218.311 83.8341 218.397 83.8758 218.489V218.489Z" fill="#FAFAFA"/>
<path d="M146.202 295.293C145.596 294.761 144.911 294.327 144.17 294.007C143.287 293.66 142.367 293.419 141.427 293.287C140.339 293.107 139.07 292.995 137.681 292.773C136.143 292.552 134.658 292.049 133.301 291.29C130.705 289.837 128.725 287.491 127.729 284.687C126.734 281.883 126.792 278.813 127.892 276.049C128.707 274.034 129.932 272.286 130.275 270.34C130.493 268.436 130.215 266.508 129.47 264.743C128.818 263.105 128.263 261.431 127.807 259.728C127.437 258.21 127.437 256.626 127.807 255.108C128.344 252.91 129.584 250.948 131.338 249.519C131.965 248.988 132.678 248.567 133.447 248.276C132.747 248.682 132.08 249.14 131.45 249.647C129.784 251.094 128.617 253.028 128.115 255.176C127.76 256.647 127.76 258.18 128.115 259.651C128.592 261.334 129.164 262.988 129.83 264.605C130.613 266.433 130.909 268.433 130.687 270.409C130.327 272.491 129.067 274.266 128.295 276.22C127.232 278.885 127.167 281.844 128.112 284.553C129.057 287.262 130.949 289.538 133.438 290.964C134.763 291.722 136.216 292.23 137.724 292.464C139.096 292.704 140.364 292.833 141.462 293.038C142.417 293.207 143.347 293.495 144.23 293.895C144.787 294.145 145.304 294.474 145.765 294.873C146.065 295.121 146.219 295.276 146.202 295.293Z" fill="#FAFAFA"/>
<path d="M134.681 319.885C134.596 319.885 134.57 318.771 134.124 317.048C133.862 316.041 133.504 315.062 133.053 314.125C132.489 312.983 131.808 311.903 131.021 310.902C130.215 309.915 129.307 309.016 128.312 308.219C127.495 307.565 126.617 306.991 125.689 306.505C124.104 305.699 123.015 305.433 123.041 305.348C123.304 305.351 123.565 305.4 123.812 305.493C124.104 305.559 124.391 305.648 124.669 305.759C125.056 305.888 125.434 306.043 125.801 306.222C126.771 306.667 127.691 307.216 128.544 307.859C130.637 309.443 132.304 311.523 133.395 313.911C133.84 314.88 134.179 315.895 134.407 316.937C134.502 317.335 134.571 317.738 134.613 318.145C134.662 318.449 134.685 318.755 134.681 319.063C134.729 319.335 134.729 319.613 134.681 319.885V319.885Z" fill="#FAFAFA"/>
<path d="M122.012 222.92C122.012 222.92 121.901 222.92 121.678 222.989C121.351 223.035 121.022 223.064 120.692 223.075C119.48 223.115 118.268 222.985 117.092 222.689C115.336 222.266 113.674 221.522 112.189 220.494C110.338 219.258 108.816 217.589 107.754 215.633C106.692 213.677 106.122 211.491 106.094 209.265C106.054 207.459 106.344 205.661 106.951 203.959C107.349 202.812 107.902 201.724 108.597 200.728C108.78 200.458 108.981 200.2 109.197 199.956C109.343 199.785 109.429 199.699 109.437 199.708C108.524 201.059 107.79 202.523 107.251 204.062C106.708 205.738 106.465 207.496 106.531 209.257C106.577 211.408 107.132 213.518 108.152 215.414C109.171 217.309 110.625 218.936 112.394 220.16C113.832 221.175 115.436 221.929 117.135 222.389C118.73 222.78 120.37 222.958 122.012 222.92Z" fill="#FAFAFA"/>
<path d="M100.034 271.017C100.2 271.075 100.36 271.146 100.514 271.231C100.831 271.377 101.277 271.626 101.842 271.96C103.444 272.931 104.863 274.176 106.034 275.637C106.843 276.663 107.464 277.824 107.868 279.066C108.317 280.505 108.417 282.03 108.16 283.515C107.903 285.18 107.108 286.716 105.897 287.887C104.628 289.121 102.768 289.532 101.688 290.887C100.608 292.241 100.368 294.015 100.205 295.67C100.153 297.314 99.8641 298.942 99.3478 300.504C98.7666 301.916 97.7077 303.078 96.3563 303.787C95.2075 304.414 93.9403 304.794 92.6361 304.902C90.7674 305.005 88.894 304.82 87.0815 304.353C86.4386 304.199 85.95 304.07 85.6157 303.976C85.4437 303.943 85.2766 303.888 85.1185 303.813C85.2949 303.822 85.4701 303.847 85.6414 303.89L87.1158 304.182C88.9155 304.579 90.7633 304.715 92.6018 304.585C93.8547 304.464 95.0689 304.084 96.1677 303.47C97.4349 302.786 98.4255 301.683 98.9707 300.35C99.453 298.82 99.7212 297.231 99.7679 295.627C99.8309 294.761 99.9627 293.901 100.162 293.055C100.363 292.158 100.768 291.32 101.345 290.604C102.579 289.121 104.448 288.718 105.631 287.569C106.777 286.468 107.532 285.024 107.783 283.455C108.037 282.027 107.955 280.56 107.543 279.169C107.165 277.968 106.585 276.84 105.828 275.835C104.696 274.381 103.332 273.124 101.791 272.114C101.251 271.754 100.814 271.489 100.514 271.317C100.342 271.237 100.181 271.137 100.034 271.017V271.017Z" fill="#FAFAFA"/>
<path d="M102.665 93.6478C97.9079 92.4649 92.7905 95.4393 90.4246 99.7253C88.0588 104.011 88.0331 109.266 89.1474 114.032C89.6189 116.029 90.2789 118.095 89.816 120.101C89.3189 122.252 87.6045 123.924 86.7816 125.981C85.2129 129.95 87.2102 134.347 89.1646 138.136C90.0218 139.85 91.1961 141.779 93.0991 142.156C95.2335 142.576 97.1107 140.87 98.9108 139.645C102.088 137.5 105.955 136.628 109.746 137.202C114.032 137.862 117.906 140.322 122.209 140.399C124.158 140.413 126.08 139.937 127.797 139.016C129.515 138.095 130.974 136.758 132.041 135.127C133.318 133.13 133.755 130.121 131.913 128.647C130.695 127.678 128.835 127.712 127.764 126.581C126.461 125.201 127.027 122.981 127.695 121.215C128.364 119.449 129.032 117.289 127.841 115.815C126.512 114.152 123.632 114.469 122.363 112.763C121.095 111.057 122.432 108.477 122.363 106.214C122.279 105.218 121.971 104.253 121.462 103.392C120.953 102.531 120.256 101.796 119.423 101.242C117.812 100.068 117.589 99.691 115.369 95.6536" fill="#1D2445"/>
<path d="M96.0307 132.847L113.174 134.313C113.174 134.313 125.664 132.487 130.447 164.16L149.425 163.38L150.282 175.998L124.181 177.284L121.103 175.441L121.412 201.388L78.2355 198.208C79.2127 192.319 83.8158 184.57 85.3587 179.598C83.79 175.672 75.1153 159.668 74.6867 151.448C73.5209 128.938 96.0307 132.847 96.0307 132.847Z" fill="white"/>
<path opacity="0.3" d="M123.032 156.068C123.032 156.068 126.066 159.497 126.118 162.386C126.195 167.015 125.029 169.389 126.478 174.446L122.346 175.441C122.346 175.441 121.712 174.206 122.252 171.566C122.792 168.926 123.838 165.712 124.301 162.84C124.712 160.504 124.261 158.097 123.032 156.068Z" fill="#1D2445"/>
<path d="M122.346 175.441C122.22 175.115 122.133 174.776 122.089 174.429C121.968 173.484 121.968 172.528 122.089 171.583C122.272 170.195 122.559 168.823 122.946 167.477C123.434 165.853 123.812 164.198 124.078 162.523C124.332 160.865 124.152 159.17 123.555 157.603C123.007 156.348 122.261 155.19 121.343 154.174C119.783 152.399 118.678 151.414 118.772 151.354C119.064 151.54 119.337 151.755 119.586 151.997C120.3 152.615 120.979 153.273 121.618 153.968C122.599 154.993 123.396 156.179 123.975 157.474C124.625 159.106 124.823 160.882 124.549 162.617C124.288 164.314 123.896 165.987 123.375 167.623C122.969 168.948 122.646 170.296 122.406 171.66C122.262 172.582 122.214 173.515 122.261 174.446C122.324 174.774 122.352 175.107 122.346 175.441V175.441Z" fill="#1D2445"/>
<g opacity="0.2">
<path opacity="0.2" d="M122.912 175.115L110.123 175.406C109.109 175.502 108.087 175.382 107.123 175.055C105.777 174.489 104.911 173.178 104.157 171.926C101.911 168.223 99.8537 164.417 97.985 160.508C97.985 160.508 101.362 171.249 103.48 175.938C103.685 176.53 104.11 177.02 104.667 177.307C105.224 177.594 105.87 177.656 106.471 177.481C112.037 177.491 117.575 176.694 122.912 175.115V175.115Z" fill="#1D2445"/>
</g>
<path d="M206.522 146.828C208.408 146.694 210.297 147.045 212.008 147.848C212.737 148.204 213.537 148.391 214.348 148.396H216.44V121.524C216.44 120.981 216.333 120.445 216.125 119.944C215.917 119.443 215.613 118.988 215.229 118.605C214.845 118.222 214.39 117.919 213.889 117.712C213.387 117.505 212.85 117.399 212.308 117.4H185.547V115.583C185.555 114.741 185.755 113.912 186.13 113.157C187.149 111.068 187.479 108.709 187.073 106.42C186.597 103.668 185.106 101.196 182.894 99.4911C180.682 97.7867 177.91 96.9748 175.128 97.2163C172.346 97.4577 169.757 98.7348 167.871 100.795C165.986 102.855 164.943 105.548 164.949 108.34C164.948 109.884 165.273 111.412 165.9 112.823C166.217 113.53 166.387 114.294 166.397 115.069V117.4H140.296C139.202 117.4 138.154 117.835 137.38 118.608C136.607 119.381 136.173 120.43 136.173 121.524V194.119C136.173 194.56 136.26 194.997 136.429 195.405C136.597 195.812 136.845 196.183 137.157 196.495C137.469 196.807 137.839 197.054 138.247 197.223C138.655 197.392 139.092 197.479 139.533 197.479H213.08C213.97 197.477 214.823 197.122 215.453 196.492C216.083 195.863 216.438 195.009 216.44 194.119V167.88H213.465C212.778 167.881 212.096 168.015 211.46 168.275C210.142 168.812 208.733 169.089 207.311 169.089C204.355 169.193 201.479 168.12 199.316 166.104C197.152 164.088 195.878 161.295 195.773 158.34C195.668 155.384 196.742 152.508 198.758 150.345C200.774 148.181 203.567 146.907 206.522 146.802V146.828Z" fill="#1D2445"/>
<path d="M110.532 125.693L111.031 125.672L110.532 125.693L110.532 125.693L110.532 125.694L110.532 125.696L110.532 125.703L110.534 125.733L110.538 125.85L110.557 126.294C110.573 126.677 110.595 127.226 110.622 127.89C110.675 129.217 110.746 131.002 110.815 132.831L110.815 132.831C110.852 133.815 110.689 134.796 110.336 135.714C109.983 136.633 109.447 137.47 108.761 138.176C108.075 138.882 107.252 139.441 106.344 139.819C105.436 140.198 104.46 140.388 103.476 140.379C101.618 140.356 99.8395 139.623 98.5048 138.33C97.1699 137.037 96.3806 135.282 96.2987 133.425C96.2987 133.425 96.2987 133.425 96.2987 133.425L94.9816 103.428L106.528 94.6694L116.9 99.7412C116.902 99.8243 116.904 99.9237 116.907 100.038C116.916 100.424 116.929 100.983 116.944 101.672C116.973 103.049 117.007 104.948 117.03 107.032C117.076 111.206 117.076 116.105 116.893 119.058C116.721 121.831 115.254 123.342 113.821 124.18C113.097 124.603 112.381 124.853 111.844 124.997C111.576 125.069 111.355 125.114 111.203 125.141C111.127 125.154 111.068 125.163 111.03 125.169C111.011 125.171 110.997 125.173 110.988 125.174L110.979 125.175L110.979 125.175L110.978 125.175L110.978 125.175L110.978 125.175L110.512 125.225L110.532 125.693Z" fill="#F9F7F8" stroke="#1D2445"/>
<path d="M116.226 109.42C116.226 109.571 116.181 109.718 116.097 109.844C116.014 109.969 115.894 110.067 115.755 110.125C115.616 110.183 115.462 110.198 115.314 110.168C115.166 110.139 115.03 110.066 114.924 109.959C114.817 109.853 114.744 109.717 114.715 109.569C114.685 109.421 114.701 109.267 114.758 109.128C114.816 108.989 114.914 108.87 115.039 108.786C115.165 108.702 115.312 108.657 115.463 108.657C115.665 108.657 115.859 108.738 116.003 108.881C116.146 109.024 116.226 109.218 116.226 109.42Z" fill="#1D2445"/>
<path d="M116.963 108.589C116.86 108.691 116.303 108.211 115.48 108.169C114.657 108.126 114.049 108.52 113.963 108.409C113.877 108.297 114.023 108.177 114.289 107.997C114.649 107.76 115.078 107.645 115.509 107.672C115.94 107.698 116.351 107.863 116.68 108.143C116.929 108.357 117.006 108.511 116.963 108.589Z" fill="#1D2445"/>
<path d="M107.406 109.42C107.406 109.571 107.361 109.718 107.277 109.844C107.193 109.969 107.074 110.067 106.935 110.125C106.795 110.183 106.642 110.198 106.494 110.168C106.346 110.139 106.21 110.066 106.103 109.959C105.997 109.853 105.924 109.717 105.894 109.569C105.865 109.421 105.88 109.267 105.938 109.128C105.996 108.989 106.093 108.87 106.219 108.786C106.344 108.702 106.492 108.657 106.643 108.657C106.845 108.657 107.039 108.738 107.182 108.881C107.325 109.024 107.406 109.218 107.406 109.42Z" fill="#1D2445"/>
<path d="M107.877 108.589C107.774 108.691 107.217 108.211 106.394 108.169C105.571 108.126 104.962 108.52 104.877 108.409C104.791 108.297 104.937 108.177 105.202 107.997C105.553 107.76 105.971 107.64 106.394 107.654C106.826 107.682 107.237 107.848 107.568 108.126C107.843 108.357 107.92 108.511 107.877 108.589Z" fill="#1D2445"/>
<path d="M111.057 125.655C108.231 125.535 105.498 124.61 103.18 122.989C103.18 122.989 105.151 127.438 111.117 127.198L111.057 125.655Z" fill="#1D2445"/>
<path d="M110.834 115.515C111.272 115.407 111.721 115.35 112.172 115.343C112.377 115.343 112.583 115.343 112.634 115.155C112.658 114.925 112.617 114.693 112.514 114.486C112.337 113.955 112.149 113.383 111.949 112.772C111.563 111.563 111.229 110.466 110.997 109.669C110.845 109.242 110.745 108.799 110.697 108.349C110.922 108.74 111.098 109.157 111.22 109.591C111.503 110.38 111.88 111.46 112.266 112.669L112.806 114.383C112.929 114.652 112.956 114.954 112.883 115.24C112.853 115.313 112.806 115.378 112.747 115.43C112.687 115.482 112.616 115.52 112.54 115.54C112.42 115.552 112.3 115.552 112.18 115.54C111.732 115.586 111.28 115.577 110.834 115.515V115.515Z" fill="#1D2445"/>
<path d="M110.226 116.226C109.904 116.311 109.609 116.476 109.368 116.706C109.221 116.831 109.123 117.006 109.095 117.197C109.066 117.389 109.108 117.584 109.213 117.747C109.318 117.91 109.479 118.029 109.665 118.082C109.852 118.135 110.051 118.118 110.226 118.035C110.383 118.001 110.53 117.933 110.659 117.837C110.788 117.741 110.894 117.618 110.971 117.478C111.044 117.331 111.072 117.167 111.054 117.004C111.036 116.841 110.971 116.688 110.869 116.56C110.761 116.445 110.618 116.369 110.462 116.346C110.307 116.323 110.148 116.353 110.011 116.432" fill="#1D2445"/>
<path d="M111.289 117.409C111.289 117.529 110.611 117.718 109.883 117.298C109.154 116.878 108.957 116.183 109.077 116.158C109.197 116.132 109.506 116.586 110.106 116.912C110.706 117.238 111.271 117.28 111.289 117.409Z" fill="#1D2445"/>
<path d="M107.14 92.9021C105.88 92.8584 104.626 93.0931 103.468 93.5895C102.309 94.0858 101.274 94.8316 100.437 95.7736C98.7736 97.6978 97.9278 100.195 98.0794 102.734C98.0624 103.688 98.3641 104.62 98.9366 105.383C99.7938 106.368 101.242 106.566 102.554 106.694C103.886 106.941 105.257 106.871 106.557 106.488C107.826 106 108.88 104.688 108.597 103.368C107.971 104.226 108.494 105.494 109.386 106.034C110.329 106.497 111.383 106.687 112.429 106.583H116.92C117.433 106.633 117.948 106.523 118.395 106.266C118.635 106.022 118.823 105.732 118.95 105.414C119.077 105.096 119.138 104.756 119.132 104.414C119.372 102.023 119.595 99.4767 118.498 97.3423C117.408 95.4512 115.63 94.054 113.534 93.4421C111.486 92.7649 109.249 93.0735 107.114 92.9363" fill="#1D2445"/>
<path d="M94.4706 132.59C96.1079 133.447 99.2109 130.07 100.222 128.518C101.123 126.883 101.426 124.986 101.08 123.152C100.865 121.309 100.377 119.501 100.334 117.649C100.274 114.649 101.405 111.777 101.937 108.82C102.507 105.603 102.369 102.301 101.534 99.1424C101.208 97.9166 100.677 96.5708 99.4766 96.1079C98.9751 95.9405 98.4382 95.9087 97.9204 96.0155C97.4026 96.1224 96.9222 96.3643 96.5279 96.7165C95.7518 97.4323 95.1431 98.3103 94.7449 99.2881L93.7935 106.506L94.5049 116.612L94.4706 132.59Z" fill="#1D2445"/>
<path d="M137.621 170.649L141.993 185.564C141.993 185.564 119.115 193.887 106.728 193.733C95.1134 193.596 91.7875 192.276 87.7073 182.898C83.6271 173.521 78.964 162.754 78.0125 156.557C78.0125 156.557 68.6777 130.653 93.6733 133.207L97.1021 152.922C97.1021 152.922 99.8708 162.069 100.068 162.6C101.937 167.537 104.354 174.772 106.694 175.646C109.034 176.521 137.621 170.649 137.621 170.649Z" fill="white"/>
<path d="M137.621 170.649C137.428 170.722 137.226 170.774 137.021 170.803L135.307 171.172C133.781 171.489 131.57 171.96 128.827 172.595C126.084 173.229 122.826 174.009 119.089 174.695C115.031 175.5 110.9 175.882 106.763 175.835H106.617L106.566 175.698C106.094 174.472 105.597 173.178 105.125 171.858C101.834 162.609 99.3308 154.105 97.3079 148.019C96.305 144.968 95.4649 142.508 94.8649 140.819C94.582 139.962 94.3506 139.353 94.1791 138.873C94.0861 138.649 94.0144 138.416 93.9648 138.179C93.9648 138.179 94.0763 138.402 94.2649 138.839C94.4534 139.276 94.7106 139.919 95.0278 140.759C95.6792 142.43 96.5621 144.873 97.5993 147.916C99.708 153.985 102.262 162.489 105.545 171.703C106.017 173.023 106.506 174.275 106.977 175.535L106.771 175.398C110.88 175.449 114.984 175.087 119.02 174.318C122.723 173.649 126.007 172.886 128.767 172.312C131.527 171.738 133.738 171.292 135.281 171.018L137.047 170.735C137.237 170.696 137.429 170.667 137.621 170.649Z" fill="#1D2445"/>
<path d="M141.993 185.564C141.78 185.688 141.556 185.791 141.324 185.873C140.879 186.061 140.219 186.318 139.362 186.636C137.647 187.27 135.127 188.11 131.981 189.027C128.835 189.944 125.072 190.947 120.881 192.01C116.346 193.275 111.697 194.088 107.003 194.436C105.762 194.495 104.519 194.463 103.282 194.342C102.072 194.231 100.878 193.98 99.7252 193.596C97.5654 192.814 95.5858 191.604 93.9049 190.039C91.1237 187.356 88.8065 184.23 87.0474 180.79C85.5044 177.901 84.4758 175.466 83.7386 173.778C83.3872 172.921 83.1214 172.278 82.95 171.823C82.8464 171.603 82.7631 171.373 82.7014 171.138C82.8323 171.343 82.9415 171.561 83.0271 171.789C83.2414 172.269 83.5329 172.903 83.8843 173.709C84.6472 175.372 85.7359 177.781 87.3131 180.644C89.0909 184.024 91.407 187.093 94.1706 189.73C95.8191 191.238 97.7509 192.404 99.8537 193.159C100.966 193.526 102.116 193.765 103.282 193.87C104.499 193.992 105.722 194.024 106.943 193.964C111.607 193.621 116.226 192.823 120.735 191.582C124.935 190.544 128.707 189.584 131.878 188.701C135.05 187.818 137.553 186.987 139.284 186.447L141.273 185.761C141.508 185.677 141.748 185.611 141.993 185.564V185.564Z" fill="#1D2445"/>
<path opacity="0.2" d="M86.8501 180.635C86.8501 180.635 91.136 197.093 102.279 196.759C113.423 196.425 123.889 191.659 123.889 191.659L123.392 191.144C123.392 191.144 104.534 195.207 99.2965 192.653C89.3445 187.818 86.8501 180.635 86.8501 180.635Z" fill="#1D2445"/>
<path d="M140.442 183.85H143.947C147.128 183.541 148.902 183.49 149.793 182.65C150.985 181.51 149.348 180.404 149.348 180.404C149.348 180.404 151.645 179.607 151.431 178.209C151.285 177.249 150.196 177.146 150.196 177.146C150.196 177.146 152.228 176.349 152.631 175.501C153.171 174.352 151.774 173.735 151.774 173.735C154.542 172.02 154.294 170.306 153.651 170.169C153.008 170.032 150.856 171.026 150.856 171.026C149.031 171.549 144.05 173.066 145.893 170.323C147.736 167.58 148.122 164.777 147.702 163.946C147.584 163.765 147.413 163.625 147.213 163.546C147.012 163.467 146.792 163.452 146.582 163.504C146.373 163.556 146.185 163.672 146.045 163.835C145.904 163.999 145.818 164.202 145.799 164.417C145.515 165.496 145.079 166.529 144.505 167.486C144.071 168.274 143.509 168.984 142.842 169.586C142.062 170.28 141.367 170.838 140.776 171.3L137.656 174.301L140.442 183.85Z" fill="white"/>
<path d="M24.8584 77.5755C24.8584 84.44 19.2937 90.0047 12.4292 90.0047C5.56475 90.0047 0 84.44 0 77.5755C0 70.711 5.56475 65.1463 12.4292 65.1463C19.2937 65.1463 24.8584 70.711 24.8584 77.5755Z" fill="#F58A07"/>
<circle cx="63.4319" cy="32.5731" r="32.5731" fill="#F58A07" fill-opacity="0.5"/>
</svg>
