<svg width="70" height="45" viewBox="0 0 70 45" fill="none" xmlns="http://www.w3.org/2000/svg">
<path d="M54.1875 43.5938H16.2188C15.4728 43.5938 14.7575 43.2974 14.23 42.77C13.7026 42.2425 13.4062 41.5272 13.4062 40.7812V2.8125C13.4062 2.43954 13.5544 2.08185 13.8181 1.81813C14.0819 1.55441 14.4395 1.40625 14.8125 1.40625C15.1855 1.40625 15.5431 1.55441 15.8069 1.81813C16.0706 2.08185 16.2188 2.43954 16.2188 2.8125V40.7812H54.1875C54.5605 40.7812 54.9181 40.9294 55.1819 41.1931C55.4456 41.4569 55.5938 41.8145 55.5938 42.1875C55.5938 42.5605 55.4456 42.9181 55.1819 43.1819C54.9181 43.4456 54.5605 43.5938 54.1875 43.5938Z" fill="#031D44"/>
<path d="M25.7109 37.9688H22.1953C21.3562 37.9688 20.5514 37.6354 19.958 37.042C19.3646 36.4486 19.0312 35.6438 19.0312 34.8047V21.4453C19.0312 20.6062 19.3646 19.8014 19.958 19.208C20.5514 18.6146 21.3562 18.2812 22.1953 18.2812H25.7109C26.5501 18.2812 27.3549 18.6146 27.9483 19.208C28.5416 19.8014 28.875 20.6062 28.875 21.4453V34.8047C28.875 35.6438 28.5416 36.4486 27.9483 37.042C27.3549 37.6354 26.5501 37.9688 25.7109 37.9688ZM38.3672 37.9688H34.8516C34.0124 37.9688 33.2076 37.6354 32.6142 37.042C32.0209 36.4486 31.6875 35.6438 31.6875 34.8047V17.2266C31.6875 16.3874 32.0209 15.5826 32.6142 14.9892C33.2076 14.3959 34.0124 14.0625 34.8516 14.0625H38.3672C39.2063 14.0625 40.0111 14.3959 40.6045 14.9892C41.1979 15.5826 41.5312 16.3874 41.5312 17.2266V34.8047C41.5312 35.6438 41.1979 36.4486 40.6045 37.042C40.0111 37.6354 39.2063 37.9688 38.3672 37.9688V37.9688ZM50.9918 37.9688H47.4762C46.637 37.9688 45.8322 37.6354 45.2388 37.042C44.6455 36.4486 44.3121 35.6438 44.3121 34.8047V11.6016C44.3121 10.7624 44.6455 9.95761 45.2388 9.36423C45.8322 8.77086 46.637 8.4375 47.4762 8.4375H50.9918C51.831 8.4375 52.6358 8.77086 53.2291 9.36423C53.8225 9.95761 54.1559 10.7624 54.1559 11.6016V34.8047C54.1559 35.6438 53.8225 36.4486 53.2291 37.042C52.6358 37.6354 51.831 37.9688 50.9918 37.9688Z" fill="#031D44"/>
</svg>
