<svg width="17" height="31" viewBox="0 0 17 31" fill="none" xmlns="http://www.w3.org/2000/svg">
<path d="M10.8134 1.98184L10.9992 2.0128H13.5694V4.98556H10.9992C10.8547 4.98556 10.7154 4.99588 10.5812 5.01652C10.447 5.03717 10.3386 5.07329 10.2561 5.12491C10.1735 5.17652 10.0961 5.23329 10.0238 5.29522C9.95155 5.35715 9.88962 5.41908 9.83801 5.48102C9.7864 5.54295 9.74511 5.61004 9.71415 5.6823C9.68318 5.75455 9.66254 5.81648 9.65221 5.86809L9.62125 6.02292L9.60576 6.13131V10.9001H14.6223L13.9101 13.8729H9.60576V28.7366H6.63301V13.8729H2.66934V10.9001H6.63301V6.28614C6.63301 5.64617 6.71559 5.07329 6.88074 4.56751C7.04589 4.06173 7.26782 3.66433 7.54651 3.37532C7.82521 3.0863 8.10906 2.83857 8.39808 2.63213C8.6871 2.42569 9.00708 2.28118 9.35803 2.1986C9.70898 2.11602 9.98768 2.05925 10.1941 2.02829C10.4006 1.99732 10.607 1.98184 10.8134 1.98184ZM10.8134 0C9.53351 0 8.38776 0.309662 7.3762 0.928986C5.55951 2.02312 4.65117 3.80884 4.65117 6.28614V8.91826H2.66934C2.13259 8.91826 1.6681 9.11438 1.27586 9.50662C0.883619 9.89886 0.6875 10.3634 0.6875 10.9001V13.8729C0.6875 14.4096 0.883619 14.8741 1.27586 15.2663C1.6681 15.6586 2.13259 15.8547 2.66934 15.8547H4.65117V28.7057C4.65117 29.2631 4.84213 29.7327 5.22405 30.1146C5.60596 30.4965 6.07562 30.6875 6.63301 30.6875H9.60576C10.1425 30.6875 10.607 30.4965 10.9992 30.1146C11.3915 29.7327 11.5876 29.2631 11.5876 28.7057V15.8547H13.9101C14.3642 15.8547 14.7668 15.7205 15.1177 15.4521C15.4687 15.1838 15.7061 14.8431 15.83 14.4302L16.5112 11.4575C16.697 10.8175 16.5938 10.2343 16.2016 9.7079C15.8093 9.18148 15.2829 8.91826 14.6223 8.91826H11.5876V6.96739H13.5694C14.1062 6.96739 14.5707 6.77127 14.9629 6.37904C15.3552 5.9868 15.5513 5.5223 15.5513 4.98556V2.0128C15.5513 1.45541 15.3603 0.985757 14.9784 0.603841C14.5965 0.221924 14.1372 0.0309662 13.6004 0.0309662H11.0612C10.9786 0.0103221 10.896 0 10.8134 0Z" fill="#031D44"/>
</svg>
