<svg width="70" height="45" viewBox="0 0 70 45" fill="none" xmlns="http://www.w3.org/2000/svg">
<path d="M35.4688 7.03125C30.8158 7.03125 27.0312 10.8158 27.0312 15.4688C27.0312 16.2457 27.6605 16.875 28.4375 16.875C29.2145 16.875 29.8438 16.2457 29.8438 15.4688C29.8438 12.3662 32.368 9.84375 35.4688 9.84375C36.2457 9.84375 36.875 9.21445 36.875 8.4375C36.875 7.66055 36.2457 7.03125 35.4688 7.03125ZM28.4428 40.3567C28.4428 40.6336 28.5245 40.9034 28.6783 41.1337L30.8325 44.3716C31.0936 44.7636 31.533 44.9991 32.0032 44.9991H38.9334C39.4045 44.9991 39.8439 44.7636 40.1041 44.3716L42.2583 41.1337C42.4112 40.9034 42.493 40.6327 42.4938 40.3567L42.4982 36.5616H28.4393L28.4428 40.3567ZM35.4688 0C26.4793 0 20 7.29229 20 15.4688C20 19.3685 21.4458 22.9263 23.8285 25.6447C25.291 27.3138 27.585 30.8127 28.4357 33.7447V33.75H32.6545V33.7395C32.6536 33.3202 32.5912 32.9036 32.4655 32.5028C31.9742 30.9375 30.4599 26.8102 27.0014 22.8639C25.1961 20.8046 24.2311 18.1925 24.2231 15.4688C24.2056 8.99648 29.4676 4.21875 35.4688 4.21875C41.6721 4.21875 46.7188 9.26543 46.7188 15.4688C46.7188 18.1907 45.7309 20.8169 43.937 22.8639C40.4996 26.7847 38.9782 30.9032 38.479 32.4844C38.3502 32.8909 38.2844 33.3148 38.2839 33.7412V33.75H42.5026V33.7456C43.3534 30.8127 45.6474 27.3138 47.1099 25.6456C49.4917 22.9263 50.9375 19.3685 50.9375 15.4688C50.9375 6.92578 44.0117 0 35.4688 0Z" fill="#031D44"/>
</svg>
