<svg width="1440" height="505" viewBox="0 0 1440 505" fill="none" xmlns="http://www.w3.org/2000/svg">
<mask id="mask0_235_2038" style="mask-type:alpha" maskUnits="userSpaceOnUse" x="0" y="0" width="1440" height="505">
<rect width="1440" height="505" fill="white"/>
</mask>
<g mask="url(#mask0_235_2038)">
<path fill-rule="evenodd" clip-rule="evenodd" d="M1591.71 205.181C1482.38 167.882 1267.11 94.4337 940.87 160.052C557.152 237.232 277.012 292.266 22.278 190.411C-286.324 67.0158 -450 188.574 -450 188.574L-295.457 439.272C-135.268 405.322 111.642 376.55 372.105 435.049C694.215 507.394 854.02 533.826 1191.48 466.388C1531.1 398.521 1706.19 421.604 1736 426.52L1622.44 215.465C1613.34 212.562 1603.1 209.068 1591.71 205.181Z" fill="#F9AB55"/>
<path fill-rule="evenodd" clip-rule="evenodd" d="M1622.44 89.1005C1526.04 46.2011 1304.15 4.89327 939.56 71.7247C556.601 141.924 310.905 159.473 22.2781 54.1668C-307.618 -66.1968 -450 51.6068 -450 51.6068L-295.457 401.155C-135.268 353.819 111.642 313.703 372.105 395.268C694.215 496.139 854.02 532.994 1191.48 438.964C1531.1 344.336 1706.19 376.521 1736 383.376L1622.44 89.1005Z" fill="#F9F7F8"/>
</g>
</svg>
