<svg width="102" height="84" viewBox="0 0 102 84" fill="none" xmlns="http://www.w3.org/2000/svg">
<path d="M11.5632 56.7739C11.1406 57.5462 10.5868 58.1291 9.90191 58.5298C9.21701 58.9306 8.48111 59.1273 7.67963 59.1273C6.90001 59.1273 6.1641 58.9233 5.47192 58.5153C4.77973 58.1072 4.2187 57.5098 3.7961 56.7302C3.3735 55.9505 3.1622 55.0398 3.1622 54.0124C3.1622 52.9778 3.3735 52.0889 3.7961 51.3311C4.2187 50.5806 4.77244 50.005 5.45734 49.6188C6.14224 49.2327 6.87815 49.036 7.67963 49.036C8.47382 49.036 9.20973 49.2327 9.90191 49.6334C10.5868 50.0342 11.1406 50.6098 11.5632 51.3748C11.9858 52.1399 12.1971 53.0361 12.1971 54.0634C12.1971 55.1053 11.9858 56.0088 11.5632 56.7739ZM15.3083 61.8232V46.5951H12.1971V48.7737C11.6943 48.0888 10.9948 47.5059 10.1059 47.0468C9.21701 46.5878 8.18966 46.3546 7.03845 46.3546C5.74151 46.3546 4.55386 46.6752 3.48279 47.3237C2.41172 47.9649 1.55924 48.8684 0.939915 50.0342C0.313303 51.1854 0 52.5187 0 54.027C0 55.5279 0.306019 56.8759 0.93263 58.0635C1.55924 59.2512 2.40444 60.1765 3.47551 60.8396C4.54657 61.5026 5.73422 61.8305 7.03116 61.8305C8.1678 61.8305 9.18058 61.59 10.0768 61.1092C10.9657 60.6356 11.6797 60.0381 12.2043 59.324V61.8232C12.2043 63.2731 11.8182 64.3806 11.0531 65.1384C10.2881 65.9035 9.2753 66.275 8.03665 66.275C6.97287 66.275 6.05481 66.0346 5.28976 65.5537C4.52471 65.0728 4.02197 64.4462 3.78881 63.6666H0.735903C0.910771 65.2914 1.67582 66.5884 3.00919 67.5428C4.34256 68.4973 6.01838 68.9709 8.04394 68.9709C9.55946 68.9709 10.8637 68.6576 11.9566 68.0456C13.0495 67.4336 13.8802 66.5811 14.4631 65.5027C15.0241 64.4244 15.3083 63.2003 15.3083 61.8232Z" fill="black"/>
<path d="M22.4487 53.6918C22.4487 52.169 22.7547 51.0979 23.3813 50.4859C24.0079 49.8739 24.9187 49.5606 26.1282 49.5606H26.9151V46.3546C25.8878 46.3546 24.9988 46.5659 24.2484 46.9958C23.4979 47.4184 22.9004 48.0159 22.4487 48.7809V46.6024H19.3593V61.5827H22.4487V53.6918Z" fill="black"/>
<path d="M32.489 51.3092C32.8898 50.5588 33.4217 49.9904 34.0993 49.6116C34.7769 49.2327 35.5128 49.036 36.307 49.036C37.1012 49.036 37.8371 49.2254 38.5293 49.6116C39.2142 49.9904 39.7606 50.5588 40.1759 51.3092C40.5912 52.0597 40.8025 52.9778 40.8025 54.0707C40.8025 55.1563 40.5912 56.0817 40.1541 56.8467C39.7242 57.6118 39.1559 58.1801 38.4637 58.559C37.7715 58.9379 37.0283 59.1346 36.2341 59.1346C34.9882 59.1346 33.9535 58.6901 33.1375 57.8158C32.3214 56.9415 31.9061 55.6955 31.9061 54.078C31.8916 52.9851 32.0883 52.0597 32.489 51.3092ZM32.4016 60.8541C33.5382 61.4953 34.8133 61.8232 36.2195 61.8232C37.6403 61.8232 38.9519 61.5026 40.1322 60.8541C41.3126 60.2129 42.2452 59.2949 42.9301 58.1218C43.615 56.9414 43.9575 55.5935 43.9575 54.0707C43.9575 52.5479 43.6223 51.1927 42.952 50.0196C42.2889 48.8392 41.3709 47.9357 40.2197 47.3018C39.0612 46.6679 37.7715 46.3474 36.3507 46.3474C34.9299 46.3474 33.6402 46.6607 32.4817 47.3018C31.3232 47.9357 30.4197 48.8392 29.7494 50.0196C29.0864 51.1999 28.7439 52.5479 28.7439 54.0707C28.7439 55.6081 29.0718 56.9633 29.7203 58.1291C30.376 59.3022 31.2722 60.2129 32.4016 60.8541Z" fill="black"/>
<path d="M53.1526 61.5755L56.1545 50.5151L59.1564 61.5755H62.4061L67.0255 46.5951H64.0017L60.9197 58.5881L57.8814 46.5951H54.6682L51.4987 58.6391L48.3875 46.5951H45.2471L49.9103 61.5755H53.1526Z" fill="black"/>
<path d="M79.8638 56.7739C79.4412 57.5462 78.8875 58.1291 78.2026 58.5298C77.5177 58.9306 76.7817 59.1273 75.9803 59.1273C75.2006 59.1273 74.4647 58.9233 73.7726 58.5153C73.0804 58.1072 72.5193 57.5098 72.0967 56.7302C71.6741 55.9505 71.4628 55.0398 71.4628 54.0124C71.4628 52.9778 71.6741 52.0889 72.0967 51.3311C72.5193 50.5806 73.0731 50.005 73.758 49.6188C74.4429 49.2327 75.1788 49.036 75.9803 49.036C76.7745 49.036 77.5104 49.2327 78.2026 49.6334C78.8875 50.0342 79.4412 50.6098 79.8638 51.3748C80.2864 52.1399 80.4977 53.0361 80.4977 54.0634C80.4977 55.1053 80.2937 56.0088 79.8638 56.7739ZM80.4977 48.7737C79.9731 48.0888 79.2736 47.5059 78.4066 47.0468C77.5322 46.5878 76.5049 46.3546 75.3391 46.3546C74.0421 46.3546 72.8545 46.6752 71.7834 47.3237C70.7124 47.9649 69.8599 48.8684 69.2406 50.0342C68.6139 51.1999 68.3079 52.526 68.3079 54.027C68.3079 55.5279 68.6139 56.8759 69.2406 58.0635C69.8672 59.2512 70.7051 60.1765 71.7689 60.8396C72.8326 61.5026 74.0057 61.8305 75.2881 61.8305C76.4393 61.8305 77.4739 61.59 78.3774 61.1237C79.2809 60.6501 79.9949 60.0599 80.5123 59.3605V61.59H83.6235V46.5951H80.5123L80.4977 48.7737Z" fill="black"/>
<path d="M97.8898 46.5951L93.5399 58.0125L89.3431 46.5951H85.9113L91.7767 61.335L88.7529 68.6212H91.9443L101.081 46.5951H97.8898Z" fill="black"/>
<path d="M38.1359 36.3362C37.706 36.4163 37.2761 36.4892 36.8389 36.5766L35.491 36.8243L33.9827 28.5254L35.338 28.2776C44.4967 26.6018 51.7319 25.2684 55.8704 22.8057C58.8432 21.0352 60.4607 18.6745 59.3095 12.3792L67.5647 10.8637C69.1968 19.833 66.7705 26.1136 60.1474 30.0628C54.9523 33.1521 47.5132 34.6093 38.1359 36.3362Z" fill="black"/>
<path d="M62.9526 0.488174C63.3825 0.408026 63.8123 0.335164 64.2495 0.24773L65.5975 0L67.1057 8.29895L65.7505 8.54669C56.5917 10.2225 49.3566 11.5559 45.218 14.0186C42.2453 15.7891 40.6277 18.1499 41.7789 24.4451L33.5164 25.9606C31.8843 16.9914 34.3106 10.7107 40.9337 6.76157C46.1361 3.66495 53.5753 2.215 62.9526 0.488174Z" fill="black"/>
<path d="M23.4151 79.8705C22.7604 79.8705 22.1661 79.7471 21.6324 79.5004C21.0987 79.2493 20.6749 78.8883 20.361 78.4174C20.047 77.942 19.89 77.3679 19.89 76.6952C19.89 76.1032 20.0067 75.6233 20.2399 75.2555C20.4731 74.8833 20.7848 74.5918 21.175 74.381C21.5651 74.1702 21.9957 74.0132 22.4666 73.9101C22.942 73.8024 23.4196 73.7172 23.8995 73.6544C24.5274 73.5737 25.0364 73.5132 25.4266 73.4728C25.8213 73.4279 26.1083 73.3539 26.2877 73.2508C26.4716 73.1476 26.5635 72.9682 26.5635 72.7126V72.6588C26.5635 71.995 26.3819 71.4793 26.0186 71.1115C25.6598 70.7438 25.1149 70.5599 24.3839 70.5599C23.6259 70.5599 23.0317 70.7258 22.6011 71.0577C22.1706 71.3896 21.8679 71.7439 21.693 72.1206L20.186 71.5824C20.4551 70.9545 20.8139 70.4657 21.2624 70.1159C21.7154 69.7616 22.2087 69.5149 22.7424 69.3759C23.2806 69.2324 23.8098 69.1606 24.3301 69.1606C24.6619 69.1606 25.0432 69.201 25.4737 69.2817C25.9087 69.3579 26.3281 69.5171 26.7317 69.7593C27.1398 70.0015 27.4784 70.367 27.7475 70.8559C28.0166 71.3447 28.1512 71.9995 28.1512 72.8202V79.6283H26.5635V78.229H26.4828C26.3752 78.4532 26.1958 78.6932 25.9446 78.9488C25.6935 79.2044 25.3593 79.422 24.9422 79.6014C24.5252 79.7808 24.0161 79.8705 23.4151 79.8705ZM23.6573 78.4443C24.2852 78.4443 24.8144 78.3209 25.245 78.0743C25.68 77.8276 26.0074 77.5092 26.2272 77.119C26.4514 76.7288 26.5635 76.3184 26.5635 75.8879V74.4348C26.4962 74.5155 26.3482 74.5895 26.1195 74.6568C25.8953 74.7196 25.6352 74.7756 25.3392 74.825C25.0476 74.8698 24.7628 74.9102 24.4848 74.9461C24.2112 74.9775 23.9892 75.0044 23.8188 75.0268C23.4062 75.0806 23.0205 75.1681 22.6617 75.2892C22.3074 75.4058 22.0204 75.5829 21.8006 75.8206C21.5853 76.0538 21.4777 76.3723 21.4777 76.7759C21.4777 77.3275 21.6817 77.7446 22.0899 78.0272C22.5025 78.3052 23.025 78.4443 23.6573 78.4443Z" fill="black"/>
<path d="M35.2468 79.8435C34.278 79.8435 33.4439 79.6148 32.7442 79.1574C32.0446 78.6999 31.5064 78.0698 31.1297 77.267C30.7529 76.4642 30.5646 75.547 30.5646 74.5155C30.5646 73.4661 30.7574 72.5399 31.1431 71.7372C31.5333 70.9299 32.076 70.2998 32.7711 69.8468C33.4708 69.3893 34.287 69.1606 35.2199 69.1606C35.9464 69.1606 36.6012 69.2951 37.1842 69.5642C37.7673 69.8333 38.2449 70.2101 38.6171 70.6944C38.9894 71.1788 39.2204 71.7439 39.3101 72.3897H37.7224C37.6013 71.9188 37.3322 71.5017 36.9151 71.1384C36.5025 70.7707 35.9464 70.5868 35.2468 70.5868C34.6279 70.5868 34.0852 70.7482 33.6188 71.0711C33.1568 71.3896 32.7958 71.8403 32.5357 72.4233C32.28 73.0019 32.1522 73.6813 32.1522 74.4617C32.1522 75.26 32.2778 75.9552 32.5289 76.5472C32.7846 77.1392 33.1434 77.5989 33.6053 77.9263C34.0717 78.2537 34.6189 78.4174 35.2468 78.4174C35.6594 78.4174 36.0339 78.3456 36.3702 78.2021C36.7066 78.0586 36.9914 77.8523 37.2246 77.5832C37.4578 77.3141 37.6238 76.9912 37.7224 76.6144H39.3101C39.2204 77.2244 38.9984 77.7738 38.6441 78.2626C38.2942 78.747 37.8301 79.1327 37.2515 79.4197C36.6774 79.7023 36.0092 79.8435 35.2468 79.8435Z" fill="black"/>
<path d="M44.6717 79.8705C44.0169 79.8705 43.4227 79.7471 42.889 79.5004C42.3553 79.2493 41.9315 78.8883 41.6175 78.4174C41.3036 77.942 41.1466 77.3679 41.1466 76.6952C41.1466 76.1032 41.2632 75.6233 41.4964 75.2555C41.7296 74.8833 42.0413 74.5918 42.4315 74.381C42.8217 74.1702 43.2523 74.0132 43.7232 73.9101C44.1986 73.8024 44.6762 73.7172 45.1561 73.6544C45.784 73.5737 46.293 73.5132 46.6832 73.4728C47.0778 73.4279 47.3649 73.3539 47.5443 73.2508C47.7281 73.1476 47.8201 72.9682 47.8201 72.7126V72.6588C47.8201 71.995 47.6385 71.4793 47.2752 71.1115C46.9164 70.7438 46.3715 70.5599 45.6404 70.5599C44.8825 70.5599 44.2883 70.7258 43.8577 71.0577C43.4272 71.3896 43.1244 71.7439 42.9495 72.1206L41.4426 71.5824C41.7117 70.9545 42.0705 70.4657 42.519 70.1159C42.972 69.7616 43.4653 69.5149 43.999 69.3759C44.5372 69.2324 45.0664 69.1606 45.5866 69.1606C45.9185 69.1606 46.2997 69.201 46.7303 69.2817C47.1653 69.3579 47.5846 69.5171 47.9883 69.7593C48.3964 70.0015 48.735 70.367 49.0041 70.8559C49.2732 71.3447 49.4077 71.9995 49.4077 72.8202V79.6283H47.8201V78.229H47.7394C47.6317 78.4532 47.4523 78.6932 47.2012 78.9488C46.95 79.2044 46.6159 79.422 46.1988 79.6014C45.7817 79.7808 45.2727 79.8705 44.6717 79.8705ZM44.9139 78.4443C45.5418 78.4443 46.071 78.3209 46.5015 78.0743C46.9366 77.8276 47.264 77.5092 47.4837 77.119C47.708 76.7288 47.8201 76.3184 47.8201 75.8879V74.4348C47.7528 74.5155 47.6048 74.5895 47.3761 74.6568C47.1518 74.7196 46.8917 74.7756 46.5957 74.825C46.3042 74.8698 46.0194 74.9102 45.7414 74.9461C45.4678 74.9775 45.2458 75.0044 45.0754 75.0268C44.6627 75.0806 44.277 75.1681 43.9183 75.2892C43.564 75.4058 43.2769 75.5829 43.0572 75.8206C42.8419 76.0538 42.7343 76.3723 42.7343 76.7759C42.7343 77.3275 42.9383 77.7446 43.3464 78.0272C43.759 78.3052 44.2815 78.4443 44.9139 78.4443Z" fill="black"/>
<path d="M56.2073 79.8435C55.3462 79.8435 54.5861 79.626 53.9268 79.191C53.2675 78.7515 52.7518 78.1326 52.3795 77.3343C52.0073 76.5315 51.8211 75.5829 51.8211 74.4886C51.8211 73.4033 52.0073 72.4615 52.3795 71.6632C52.7518 70.8648 53.2698 70.2482 53.9335 69.8131C54.5973 69.3781 55.3642 69.1606 56.2342 69.1606C56.907 69.1606 57.4384 69.2727 57.8286 69.497C58.2233 69.7167 58.5238 69.9679 58.7301 70.2504C58.9409 70.5285 59.1046 70.7572 59.2212 70.9366H59.3557V65.8508H60.9434V79.6283H59.4095V78.0406H59.2212C59.1046 78.229 58.9386 78.4667 58.7233 78.7537C58.5081 79.0363 58.2009 79.2897 57.8017 79.5139C57.4026 79.7337 56.8711 79.8435 56.2073 79.8435ZM56.4226 78.4174C57.0595 78.4174 57.5976 78.2514 58.0372 77.9195C58.4767 77.5832 58.8108 77.119 59.0395 76.527C59.2683 75.9305 59.3826 75.2421 59.3826 74.4617C59.3826 73.6903 59.2705 73.0153 59.0463 72.4368C58.822 71.8538 58.4901 71.4008 58.0506 71.0779C57.6111 70.7505 57.0684 70.5868 56.4226 70.5868C55.7499 70.5868 55.1893 70.7595 54.7408 71.1048C54.2968 71.4456 53.9627 71.9098 53.7384 72.4973C53.5187 73.0804 53.4088 73.7352 53.4088 74.4617C53.4088 75.1972 53.5209 75.8655 53.7451 76.4664C53.9739 77.0629 54.3102 77.5383 54.7542 77.8926C55.2027 78.2424 55.7589 78.4174 56.4226 78.4174Z" fill="black"/>
<path d="M68.4039 79.8435C67.4083 79.8435 66.5494 79.6238 65.8274 79.1843C65.1098 78.7403 64.5559 78.1214 64.1657 77.3275C63.78 76.5292 63.5872 75.6009 63.5872 74.5424C63.5872 73.484 63.78 72.5512 64.1657 71.7439C64.5559 70.9321 65.0986 70.2998 65.7937 69.8468C66.4934 69.3893 67.3096 69.1606 68.2425 69.1606C68.7807 69.1606 69.3121 69.2503 69.8368 69.4297C70.3616 69.6091 70.8392 69.9006 71.2697 70.3042C71.7003 70.7034 72.0434 71.2326 72.299 71.8919C72.5547 72.5512 72.6825 73.3629 72.6825 74.3272V74.9999H64.7174V73.6275H71.0679C71.0679 73.0445 70.9513 72.5242 70.7181 72.0668C70.4894 71.6093 70.162 71.2483 69.7359 70.9837C69.3143 70.7191 68.8165 70.5868 68.2425 70.5868C67.6101 70.5868 67.063 70.7438 66.601 71.0577C66.1436 71.3672 65.7915 71.7708 65.5448 72.2686C65.2982 72.7664 65.1748 73.3001 65.1748 73.8697V74.7846C65.1748 75.565 65.3094 76.2265 65.5785 76.7692C65.852 77.3074 66.231 77.7177 66.7154 78.0003C67.1997 78.2783 67.7626 78.4174 68.4039 78.4174C68.821 78.4174 69.1977 78.3591 69.5341 78.2424C69.875 78.1214 70.1687 77.942 70.4154 77.7043C70.6621 77.4621 70.8527 77.1616 70.9872 76.8028L72.521 77.2334C72.3596 77.7536 72.0882 78.2111 71.707 78.6057C71.3258 78.9959 70.8549 79.3009 70.2943 79.5206C69.7337 79.7359 69.1036 79.8435 68.4039 79.8435Z" fill="black"/>
<path d="M75.0976 79.6283V69.2951H76.6314V70.9097H76.7659C76.9812 70.3581 77.3288 69.9298 77.8087 69.6248C78.2886 69.3153 78.8649 69.1606 79.5376 69.1606C80.2193 69.1606 80.7866 69.3153 81.2396 69.6248C81.6971 69.9298 82.0536 70.3581 82.3092 70.9097H82.4169C82.6815 70.376 83.0784 69.9522 83.6076 69.6382C84.1368 69.3198 84.7714 69.1606 85.5114 69.1606C86.4353 69.1606 87.191 69.4499 87.7785 70.0284C88.366 70.6025 88.6598 71.4972 88.6598 72.7126V79.6283H87.0722V72.7126C87.0722 71.9502 86.8636 71.4053 86.4465 71.0779C86.0294 70.7505 85.5383 70.5868 84.9732 70.5868C84.2467 70.5868 83.6838 70.8065 83.2847 71.2461C82.8855 71.6811 82.686 72.2327 82.686 72.901V79.6283H81.0714V72.5512C81.0714 71.9636 80.8808 71.4905 80.4996 71.1317C80.1184 70.7684 79.6273 70.5868 79.0263 70.5868C78.6137 70.5868 78.228 70.6967 77.8692 70.9164C77.5149 71.1362 77.2279 71.4412 77.0081 71.8313C76.7929 72.217 76.6852 72.6633 76.6852 73.1701V79.6283H75.0976Z" fill="black"/>
<path d="M92.2152 83.5032C91.9461 83.5032 91.7061 83.4808 91.4954 83.4359C91.2846 83.3956 91.1388 83.3552 91.0581 83.3148L91.4617 81.9155C91.8474 82.0142 92.1883 82.0501 92.4843 82.0232C92.7803 81.9963 93.0426 81.864 93.2714 81.6263C93.5046 81.3931 93.7176 81.0141 93.9105 80.4894L94.2065 79.6821L90.3854 69.2951H92.1075L94.9599 77.5294H95.0676L97.9199 69.2951H99.6421L95.2559 81.1352C95.0586 81.6689 94.8142 82.1106 94.5226 82.4605C94.2311 82.8148 93.8925 83.0771 93.5068 83.2476C93.1256 83.418 92.6951 83.5032 92.2152 83.5032Z" fill="black"/>
<path d="M16.2911 78.9643C15.8954 78.9643 15.5558 78.8225 15.2724 78.5391C14.989 78.2557 14.8473 77.9162 14.8473 77.5205C14.8473 77.1248 14.989 76.7852 15.2724 76.5018C15.5558 76.2184 15.8954 76.0767 16.2911 76.0767C16.6868 76.0767 17.0263 76.2184 17.3097 76.5018C17.5931 76.7852 17.7349 77.1248 17.7349 77.5205C17.7349 77.7825 17.668 78.0231 17.5343 78.2424C17.406 78.4616 17.2322 78.6381 17.013 78.7717C16.7991 78.9001 16.5584 78.9643 16.2911 78.9643Z" fill="black"/>
</svg>
