<svg width="32" height="32" viewBox="0 0 32 32" fill="none" xmlns="http://www.w3.org/2000/svg">
<path d="M16 1C18.5247 1 20.5858 1.02959 22.1834 1.08876C23.5444 1.14793 24.7574 1.38462 25.8225 1.79882C26.8481 2.19329 27.7357 2.76529 28.4852 3.51479C29.2347 4.2643 29.8067 5.15187 30.2012 6.17751C30.6154 7.2426 30.8521 8.45562 30.9112 9.81657C30.9704 11.4142 31 13.4753 31 16C31 18.5247 30.9704 20.5858 30.9112 22.1834C30.8521 23.5444 30.6154 24.7574 30.2012 25.8225C29.8067 26.8481 29.2347 27.7357 28.4852 28.4852C27.7357 29.2347 26.8481 29.8067 25.8225 30.2012C24.7574 30.6154 23.5444 30.8521 22.1834 30.9112C20.5858 30.9704 18.5247 31 16 31C13.4753 31 11.4142 30.9704 9.81657 30.9112C8.45562 30.8521 7.2426 30.6154 6.17751 30.2012C5.15187 29.8067 4.2643 29.2347 3.51479 28.4852C2.76529 27.7357 2.19329 26.8481 1.79882 25.8225C1.38462 24.7574 1.14793 23.5444 1.08876 22.1834C1.02959 20.5858 1 18.5247 1 16C1 13.4753 1.02959 11.4142 1.08876 9.81657C1.14793 8.45562 1.38462 7.2426 1.79882 6.17751C2.19329 5.15187 2.76529 4.2643 3.51479 3.51479C4.2643 2.76529 5.15187 2.19329 6.17751 1.79882C7.2426 1.38462 8.45562 1.14793 9.81657 1.08876C11.4142 1.02959 13.4753 1 16 1ZM16 2.95266C13.3767 2.95266 11.2367 2.98225 9.57988 3.04142C8.51479 3.08087 7.5286 3.26824 6.6213 3.60355C5.20118 4.19527 4.19527 5.20118 3.60355 6.6213C3.26824 7.5286 3.08087 8.51479 3.04142 9.57988C2.98225 11.2367 2.95266 13.3767 2.95266 16C2.95266 18.6233 2.98225 20.7633 3.04142 22.4201C3.08087 23.4852 3.26824 24.4714 3.60355 25.3787C4.19527 26.7988 5.20118 27.8047 6.6213 28.3964C7.5286 28.7318 8.51479 28.9191 9.57988 28.9586C11.2367 29.0178 13.3767 29.0473 16 29.0473C18.6233 29.0473 20.7633 29.0178 22.4201 28.9586C23.4852 28.9191 24.4714 28.7318 25.3787 28.3964C26.7988 27.8047 27.8047 26.7988 28.3964 25.3787C28.7318 24.4714 28.9191 23.4852 28.9586 22.4201C29.0178 20.7633 29.0473 18.6233 29.0473 16C29.0473 13.3767 29.0178 11.2367 28.9586 9.57988C28.9191 8.51479 28.7318 7.5286 28.3964 6.6213C27.8047 5.20118 26.7988 4.19527 25.3787 3.60355C24.4714 3.26824 23.4852 3.08087 22.4201 3.04142C20.7633 2.98225 18.6233 2.95266 16 2.95266ZM16 22.0059C17.6568 22.0059 19.072 21.4191 20.2456 20.2456C21.4191 19.072 22.0059 17.6568 22.0059 16C22.0059 14.3432 21.4191 12.928 20.2456 11.7544C19.072 10.5809 17.6568 9.99408 16 9.99408C14.3432 9.99408 12.928 10.5809 11.7544 11.7544C10.5809 12.928 9.99408 14.3432 9.99408 16C9.99408 17.6568 10.5809 19.072 11.7544 20.2456C12.928 21.4191 14.3432 22.0059 16 22.0059ZM16 8.30769C18.1302 8.30769 19.9448 9.0572 21.4438 10.5562C22.9428 12.0552 23.6923 13.8698 23.6923 16C23.6923 18.1302 22.9428 19.9448 21.4438 21.4438C19.9448 22.9428 18.1302 23.6923 16 23.6923C13.8698 23.6923 12.0552 22.9428 10.5562 21.4438C9.0572 19.9448 8.30769 18.1302 8.30769 16C8.30769 13.8698 9.0572 12.0552 10.5562 10.5562C12.0552 9.0572 13.8698 8.30769 16 8.30769ZM25.8225 8.01183C25.8225 8.50493 25.645 8.92406 25.2899 9.26923C24.9349 9.6144 24.501 9.78698 23.9882 9.78698C23.4951 9.78698 23.0759 9.6144 22.7308 9.26923C22.3856 8.92406 22.213 8.50493 22.213 8.01183C22.213 7.49901 22.3856 7.06509 22.7308 6.71006C23.0759 6.35503 23.4951 6.17751 23.9882 6.17751C24.4813 6.17751 24.9103 6.35996 25.2751 6.72485C25.64 7.08974 25.8225 7.51874 25.8225 8.01183Z" fill="white"/>
</svg>
