<svg width="31" height="31" viewBox="0 0 31 31" fill="none" xmlns="http://www.w3.org/2000/svg">
<path d="M15.3437 0C17.9263 0 20.0346 0.0302638 21.6689 0.0907914C23.061 0.151319 24.3018 0.393429 25.3913 0.817123C26.4405 1.22064 27.3484 1.80574 28.1151 2.57242C28.8818 3.33911 29.4669 4.24702 29.8704 5.29617C30.2941 6.38566 30.5362 7.62648 30.5967 9.01861C30.6572 10.6529 30.6875 12.7612 30.6875 15.3437C30.6875 17.9263 30.6572 20.0346 30.5967 21.6689C30.5362 23.061 30.2941 24.3018 29.8704 25.3913C29.4669 26.4405 28.8818 27.3484 28.1151 28.1151C27.3484 28.8818 26.4405 29.4669 25.3913 29.8704C24.3018 30.2941 23.061 30.5362 21.6689 30.5967C20.0346 30.6572 17.9263 30.6875 15.3437 30.6875C12.7612 30.6875 10.6529 30.6572 9.01861 30.5967C7.62648 30.5362 6.38566 30.2941 5.29617 29.8704C4.24702 29.4669 3.33911 28.8818 2.57242 28.1151C1.80574 27.3484 1.22064 26.4405 0.817123 25.3913C0.393429 24.3018 0.151319 23.061 0.0907914 21.6689C0.0302638 20.0346 0 17.9263 0 15.3437C0 12.7612 0.0302638 10.6529 0.0907914 9.01861C0.151319 7.62648 0.393429 6.38566 0.817123 5.29617C1.22064 4.24702 1.80574 3.33911 2.57242 2.57242C3.33911 1.80574 4.24702 1.22064 5.29617 0.817123C6.38566 0.393429 7.62648 0.151319 9.01861 0.0907914C10.6529 0.0302638 12.7612 0 15.3437 0ZM15.3437 1.99741C12.6604 1.99741 10.4713 2.02767 8.7765 2.0882C7.68701 2.12855 6.67821 2.32022 5.75012 2.66321C4.29746 3.26849 3.26849 4.29746 2.66321 5.75012C2.32022 6.67821 2.12855 7.68701 2.0882 8.7765C2.02767 10.4713 1.99741 12.6604 1.99741 15.3437C1.99741 18.0271 2.02767 20.2162 2.0882 21.911C2.12855 23.0005 2.32022 24.0093 2.66321 24.9374C3.26849 26.39 4.29746 27.419 5.75012 28.0243C6.67821 28.3673 7.68701 28.5589 8.7765 28.5993C10.4713 28.6598 12.6604 28.6901 15.3437 28.6901C18.0271 28.6901 20.2162 28.6598 21.911 28.5993C23.0005 28.5589 24.0093 28.3673 24.9374 28.0243C26.39 27.419 27.419 26.39 28.0243 24.9374C28.3673 24.0093 28.5589 23.0005 28.5993 21.911C28.6598 20.2162 28.6901 18.0271 28.6901 15.3437C28.6901 12.6604 28.6598 10.4713 28.5993 8.7765C28.5589 7.68701 28.3673 6.67821 28.0243 5.75012C27.419 4.29746 26.39 3.26849 24.9374 2.66321C24.0093 2.32022 23.0005 2.12855 21.911 2.0882C20.2162 2.02767 18.0271 1.99741 15.3437 1.99741ZM15.3437 21.4873C17.0385 21.4873 18.4861 20.8871 19.6866 19.6866C20.8871 18.4861 21.4873 17.0385 21.4873 15.3437C21.4873 13.649 20.8871 12.2014 19.6866 11.0009C18.4861 9.80043 17.0385 9.2002 15.3437 9.2002C13.649 9.2002 12.2014 9.80043 11.0009 11.0009C9.80043 12.2014 9.2002 13.649 9.2002 15.3437C9.2002 17.0385 9.80043 18.4861 11.0009 19.6866C12.2014 20.8871 13.649 21.4873 15.3437 21.4873ZM15.3437 7.47516C17.5227 7.47516 19.3789 8.24184 20.9123 9.77521C22.4457 11.3086 23.2123 13.1648 23.2123 15.3437C23.2123 17.5227 22.4457 19.3789 20.9123 20.9123C19.3789 22.4457 17.5227 23.2123 15.3437 23.2123C13.1648 23.2123 11.3086 22.4457 9.77521 20.9123C8.24184 19.3789 7.47516 17.5227 7.47516 15.3437C7.47516 13.1648 8.24184 11.3086 9.77521 9.77521C11.3086 8.24184 13.1648 7.47516 15.3437 7.47516ZM25.3913 7.17252C25.3913 7.67692 25.2097 8.10566 24.8466 8.45873C24.4834 8.81181 24.0395 8.98835 23.515 8.98835C23.0106 8.98835 22.5818 8.81181 22.2288 8.45873C21.8757 8.10566 21.6991 7.67692 21.6991 7.17252C21.6991 6.64795 21.8757 6.20408 22.2288 5.84091C22.5818 5.47775 23.0106 5.29617 23.515 5.29617C24.0194 5.29617 24.4582 5.48279 24.8315 5.85605C25.2047 6.2293 25.3913 6.66812 25.3913 7.17252Z" fill="#031D44"/>
</svg>
