<svg width="33" height="31" viewBox="0 0 33 31" fill="none" xmlns="http://www.w3.org/2000/svg">
<path d="M31.875 30.6562H25.375C25.1458 30.6562 24.9479 30.5781 24.7812 30.4219C24.6146 30.2656 24.5312 30.0729 24.5312 29.8437V19.375C24.5312 18.6875 24.4635 18.1042 24.3281 17.625C24.1927 17.1458 24.0365 16.7917 23.8594 16.5625C23.6823 16.3333 23.4583 16.151 23.1875 16.0156C22.9167 15.8802 22.7135 15.8073 22.5781 15.7969C22.4427 15.7865 22.2708 15.7812 22.0625 15.7812C21.5625 15.7812 21.1146 15.9062 20.7188 16.1562C20.3229 16.4062 20.0469 16.651 19.8906 16.8906C19.7344 17.1302 19.6042 17.375 19.5 17.625C19.4583 17.75 19.4219 17.9219 19.3906 18.1406C19.3594 18.3594 19.3438 18.6146 19.3438 18.9062V29.8437C19.3438 30.0729 19.2604 30.2708 19.0938 30.4375C18.9271 30.6042 18.7292 30.6875 18.5 30.6875H12C11.8958 30.6875 11.7917 30.6667 11.6875 30.625C11.5833 30.5833 11.4896 30.5208 11.4062 30.4375C11.2396 30.2708 11.1667 30.0729 11.1875 29.8437V26.9687L11.2031 24.0625L11.2188 20.6875V14.0937L11.2031 11.6562L11.1875 10.3125C11.1667 10.0833 11.2396 9.88021 11.4062 9.70312C11.5729 9.52604 11.7708 9.4375 12 9.4375H18.5C18.625 9.4375 18.7396 9.45833 18.8438 9.5C18.9479 9.54167 19.0365 9.59896 19.1094 9.67187C19.1823 9.74479 19.2396 9.83333 19.2812 9.9375C19.3229 10.0417 19.3438 10.1562 19.3438 10.2812V10.75C20.6771 9.5625 22.3542 8.96875 24.375 8.96875C26.9792 8.96875 29.0156 9.82292 30.4844 11.5312C31.9531 13.2396 32.6875 15.6042 32.6875 18.625V29.8437C32.6875 29.9479 32.6667 30.0521 32.625 30.1562C32.5833 30.2604 32.526 30.349 32.4531 30.4219C32.3802 30.4948 32.2917 30.5521 32.1875 30.5937C32.0833 30.6354 31.9792 30.6562 31.875 30.6562ZM26.1875 29H31.0312V18.625C31.0312 16.0833 30.4531 14.1198 29.2969 12.7344C28.1406 11.349 26.5 10.6562 24.375 10.6562C22.2083 10.6562 20.5208 11.5521 19.3125 13.3437C19.2083 13.7396 18.9479 13.9375 18.5312 13.9375H18.4688C18.1562 13.9375 17.9167 13.7917 17.75 13.5C17.625 13.2917 17.6042 13.0729 17.6875 12.8437V11.0937H12.8438C12.8854 13.4062 12.8854 19.375 12.8438 29H17.6875V18.9062C17.6875 18.0937 17.7812 17.4583 17.9688 17C18.1146 16.6458 18.2917 16.3177 18.5 16.0156C18.7083 15.7135 18.9427 15.4427 19.2031 15.2031C19.4635 14.9635 19.7448 14.7656 20.0469 14.6094C20.349 14.4531 20.6719 14.3281 21.0156 14.2344C21.3594 14.1406 21.7083 14.0937 22.0625 14.0937C22.9375 14.0937 23.6823 14.3021 24.2969 14.7187C24.9115 15.1354 25.3802 15.7344 25.7031 16.5156C26.026 17.2969 26.1875 18.25 26.1875 19.375V29ZM8.40625 30.6562H1.90625C1.67708 30.6562 1.47917 30.5781 1.3125 30.4219C1.14583 30.2656 1.0625 30.0729 1.0625 29.8437V10.2812C1.0625 10.0521 1.14583 9.85417 1.3125 9.6875C1.47917 9.52083 1.67708 9.4375 1.90625 9.4375H8.40625C8.63542 9.4375 8.83333 9.52083 9 9.6875C9.16667 9.85417 9.25 10.0521 9.25 10.2812V29.8437C9.25 29.9896 9.21354 30.125 9.14062 30.25C9.06771 30.375 8.96354 30.474 8.82812 30.5469C8.69271 30.6198 8.55208 30.6562 8.40625 30.6562ZM2.75 29H7.59375V11.0937H2.75V29ZM5.15625 8.4375H5.125C3.83333 8.4375 2.77083 8.03646 1.9375 7.23437C1.10417 6.43229 0.6875 5.42187 0.6875 4.20312C0.6875 2.98437 1.11458 1.97917 1.96875 1.1875C2.82292 0.395833 3.90625 0 5.21875 0C6.48958 0 7.54167 0.390625 8.375 1.17187C9.20833 1.95312 9.63542 2.95833 9.65625 4.1875C9.65625 5.41667 9.23438 6.43229 8.39062 7.23437C7.54688 8.03646 6.46875 8.4375 5.15625 8.4375ZM5.21875 1.65625C4.36458 1.65625 3.67188 1.89062 3.14062 2.35937C2.60938 2.82812 2.34375 3.44792 2.34375 4.21875C2.34375 4.96875 2.60417 5.58333 3.125 6.0625C3.64583 6.54167 4.3125 6.78125 5.125 6.78125H5.15625C5.71875 6.78125 6.21354 6.67187 6.64062 6.45312C7.06771 6.23437 7.40104 5.93229 7.64062 5.54687C7.88021 5.16146 8 4.71875 8 4.21875C7.97917 3.44792 7.71875 2.82812 7.21875 2.35937C6.71875 1.89062 6.05208 1.65625 5.21875 1.65625Z" fill="#031D44"/>
</svg>
