<svg width="70" height="45" viewBox="0 0 70 45" fill="none" xmlns="http://www.w3.org/2000/svg">
<path d="M5.83333 27.3913C6.64352 27.3913 7.21065 27.0652 7.53472 26.413C7.8588 25.7609 7.8588 25.1087 7.53472 24.4565C7.21065 23.8043 6.64352 23.4783 5.83333 23.4783C5.02315 23.4783 4.45602 23.8043 4.13194 24.4565C3.80787 25.1087 3.80787 25.7609 4.13194 26.413C4.45602 27.0652 5.02315 27.3913 5.83333 27.3913ZM50.5859 25.6182C50.3834 25.3533 49.9935 24.8438 49.4162 24.0897C48.839 23.3356 48.4187 22.7853 48.1554 22.4389C47.8921 22.0924 47.5072 21.5931 47.0009 20.9409C46.4945 20.2887 46.0641 19.7486 45.7096 19.3207C45.3552 18.8927 44.945 18.4137 44.4792 17.8838C44.0133 17.3539 43.5576 16.8546 43.112 16.3859L39.3142 20.6658C37.6331 22.5815 35.5216 23.519 32.9796 23.4783C30.4376 23.4375 28.3565 22.4389 26.7361 20.4823C25.5816 19.0761 25.0094 17.466 25.0195 15.6522C25.0297 13.8383 25.6221 12.2385 26.7969 10.8526L32.1745 4.55503C31.7289 4.33084 31.2124 4.1627 30.625 4.05061C30.0376 3.93852 29.5566 3.87738 29.1819 3.86719C28.8071 3.857 28.235 3.86209 27.4653 3.88247C26.6956 3.90285 26.1994 3.91304 25.9766 3.91304C24.1131 3.91304 22.513 4.5856 21.1762 5.93071L16.3759 10.7609H11.6667V27.3913C11.7679 27.3913 11.9806 27.3862 12.3047 27.376C12.6288 27.3658 12.8516 27.3658 12.9731 27.376C13.0946 27.3862 13.2921 27.4066 13.5655 27.4372C13.839 27.4677 14.0466 27.5136 14.1884 27.5747C14.3302 27.6359 14.5074 27.7225 14.7201 27.8346C14.9327 27.9467 15.1201 28.0842 15.2821 28.2473L24.3056 37.1739C26.6348 39.4361 28.9337 40.5673 31.2023 40.5673C32.7821 40.5673 34.048 40.0883 35 39.1304C36.1545 39.538 37.2938 39.4565 38.418 38.8859C39.5421 38.3152 40.2763 37.449 40.6207 36.2874C42.1195 36.4096 43.4057 35.9613 44.4792 34.9423C44.8843 34.5754 45.2488 34.1118 45.5729 33.5513C45.897 32.9908 46.0388 32.4762 45.9983 32.0075C46.2008 32.2113 46.6363 32.3132 47.3047 32.3132C48.1756 32.3132 48.9554 32.0992 49.6441 31.6712C50.3328 31.2432 50.8341 30.7031 51.148 30.051C51.4619 29.3988 51.5835 28.6702 51.5126 27.8651C51.4417 27.0601 51.1328 26.3111 50.5859 25.6182ZM55.4167 27.3913H58.3333V11.7391H55.5078L50.7378 6.23641C49.401 4.6875 47.6895 3.91304 45.6033 3.91304H40.5295C38.7269 3.91304 37.2483 4.59579 36.0937 5.96128L29.7439 13.3899C29.1768 14.0625 28.8932 14.8268 28.8932 15.6827C28.8932 16.5387 29.1667 17.303 29.7135 17.9755C30.5845 19.0149 31.6985 19.5448 33.0556 19.5652C34.4126 19.5856 35.5367 19.0863 36.428 18.0673L42.2917 11.4029C42.798 10.9341 43.3398 10.715 43.9171 10.7456C44.4944 10.7762 44.9703 11.0513 45.3451 11.571C45.7198 12.0907 45.8058 12.6664 45.6033 13.2982C45.9274 13.6855 46.4945 14.3274 47.3047 15.2242C48.1149 16.1209 48.7225 16.8139 49.1276 17.303C49.715 18.0367 50.5505 19.1118 51.6341 20.5282C52.7177 21.9446 53.3709 22.8057 53.5937 23.1114C54.647 24.4565 55.2546 25.8832 55.4167 27.3913ZM64.1667 27.3913C64.9769 27.3913 65.544 27.0652 65.8681 26.413C66.1921 25.7609 66.1921 25.1087 65.8681 24.4565C65.544 23.8043 64.9769 23.4783 64.1667 23.4783C63.3565 23.4783 62.7894 23.8043 62.4653 24.4565C62.1412 25.1087 62.1412 25.7609 62.4653 26.413C62.7894 27.0652 63.3565 27.3913 64.1667 27.3913ZM70 9.78261V29.3478C70 29.8777 69.8076 30.3363 69.4227 30.7235C69.0379 31.1107 68.5822 31.3043 68.0556 31.3043H54.8698C54.3229 32.6291 53.4925 33.7143 52.3785 34.5601C51.2645 35.4059 49.9986 35.9307 48.5807 36.1345C47.9123 37.1128 47.0971 37.9433 46.135 38.626C45.1729 39.3088 44.1348 39.7724 43.0208 40.017C42.1701 41.0971 41.1118 41.9276 39.8459 42.5085C38.58 43.0893 37.2786 43.339 35.9418 43.2575C34.7266 43.9504 33.4505 44.3529 32.1137 44.465C30.7769 44.5771 29.4857 44.4344 28.24 44.037C26.9944 43.6396 25.8095 43.0944 24.6853 42.4015C23.5612 41.7086 22.513 40.8832 21.5408 39.9253L12.8212 31.3043H1.94444C1.41782 31.3043 0.962095 31.1107 0.577257 30.7235C0.192419 30.3363 0 29.8777 0 29.3478V8.80435C0 8.27446 0.192419 7.8159 0.577257 7.42867C0.962095 7.04144 1.41782 6.84783 1.94444 6.84783H14.7352C15.0188 6.5625 15.4948 6.07337 16.1632 5.38043C16.8316 4.6875 17.3126 4.19837 17.6063 3.91304C17.9 3.62772 18.3456 3.22011 18.9431 2.69022C19.5407 2.16033 20.0521 1.77819 20.4774 1.54382C20.9028 1.30944 21.4193 1.04959 22.0269 0.764266C22.6345 0.47894 23.2624 0.280231 23.9106 0.168139C24.5587 0.0560462 25.2474 0 25.9766 0H29.5312C31.5365 0 33.3695 0.570652 35.0304 1.71196C36.6913 0.570652 38.5243 0 40.5295 0H45.6033C46.3122 0 46.9907 0.0611413 47.6389 0.183424C48.287 0.305707 48.8592 0.453465 49.3555 0.626698C49.8517 0.799932 50.3733 1.06997 50.9201 1.43682C51.467 1.80367 51.9177 2.11957 52.2721 2.38451C52.6266 2.64946 53.0621 3.05197 53.5786 3.59205C54.0951 4.13213 54.49 4.56012 54.7635 4.87602C55.0369 5.19192 55.4521 5.68105 56.0091 6.34341C56.5661 7.00577 56.9864 7.5 57.27 7.82609H68.0556C68.5822 7.82609 69.0379 8.0197 69.4227 8.40693C69.8076 8.79416 70 9.25272 70 9.78261Z" fill="#031D44"/>
</svg>
