<svg width="52" height="36" viewBox="0 0 52 36" fill="none" xmlns="http://www.w3.org/2000/svg">
<path d="M49.9146 1.80482C46.7976 0.497411 43.6781 9.66502e-08 40.5603 9.66502e-08C30.6627 -0.000803475 20.7659 5.00946 10.8683 5.00946C8.38607 5.00946 5.90545 4.69446 3.42321 3.90696C3.14437 3.81857 2.86473 3.77679 2.59152 3.77679C1.20857 3.77679 0 4.84714 0 6.33295V31.8271C0 32.842 0.580982 33.8038 1.51393 34.1944C4.63098 35.5026 7.75045 36 10.8683 36C20.7659 36 30.6635 30.9897 40.5611 30.9897C43.0433 30.9897 45.5239 31.3047 48.0062 32.0922C48.285 32.1806 48.5646 32.2224 48.8379 32.2224C50.2208 32.2224 51.4294 31.1521 51.4294 29.6662V4.17295C51.4286 3.15723 50.8476 2.19616 49.9146 1.80482V1.80482ZM3.85714 8.05339C5.47393 8.45839 7.16143 8.6617 8.89714 8.77098C8.42464 11.1327 6.34821 12.9126 3.85714 12.9126V8.05339ZM3.85714 30.9552V27.1157C6.61902 27.1157 8.85375 29.3071 8.9767 32.0496C7.16625 31.9042 5.47393 31.5426 3.85714 30.9552V30.9552ZM25.7143 25.7143C22.1633 25.7143 19.2857 22.2597 19.2857 18C19.2857 13.7395 22.1641 10.2857 25.7143 10.2857C29.2645 10.2857 32.1429 13.7395 32.1429 18C32.1429 22.2613 29.2637 25.7143 25.7143 25.7143ZM47.5714 27.9466C46.1636 27.5938 44.7019 27.3962 43.2064 27.2684C43.6781 25.1727 45.4162 23.5816 47.5714 23.3084V27.9466ZM47.5714 8.97348C45.0892 8.65929 43.163 6.58688 43.0867 4.0275C44.6569 4.20188 46.1475 4.52812 47.5714 5.04482V8.97348Z" fill="#CEAA4C"/>
</svg>
