<svg width="36" height="36" viewBox="0 0 36 36" fill="none" xmlns="http://www.w3.org/2000/svg">
<g clip-path="url(#clip0_105_24)">
<path d="M9 1.125C9 0.826631 8.88147 0.540483 8.67049 0.329505C8.45952 0.118526 8.17337 0 7.875 0C7.57663 0 7.29048 0.118526 7.07951 0.329505C6.86853 0.540483 6.75 0.826631 6.75 1.125V2.25H4.5C3.30653 2.25 2.16193 2.72411 1.31802 3.56802C0.474106 4.41193 0 5.55653 0 6.75L0 9H36V6.75C36 5.55653 35.5259 4.41193 34.682 3.56802C33.8381 2.72411 32.6935 2.25 31.5 2.25H29.25V1.125C29.25 0.826631 29.1315 0.540483 28.9205 0.329505C28.7095 0.118526 28.4234 0 28.125 0C27.8266 0 27.5405 0.118526 27.3295 0.329505C27.1185 0.540483 27 0.826631 27 1.125V2.25H9V1.125ZM36 31.5V11.25H0V31.5C0 32.6935 0.474106 33.8381 1.31802 34.682C2.16193 35.5259 3.30653 36 4.5 36H31.5C32.6935 36 33.8381 35.5259 34.682 34.682C35.5259 33.8381 36 32.6935 36 31.5ZM24.4215 19.9215L17.6715 26.6715C17.567 26.7763 17.4429 26.8594 17.3062 26.9161C17.1695 26.9728 17.023 27.002 16.875 27.002C16.727 27.002 16.5805 26.9728 16.4438 26.9161C16.3071 26.8594 16.183 26.7763 16.0785 26.6715L12.7035 23.2965C12.4923 23.0853 12.3736 22.7987 12.3736 22.5C12.3736 22.2013 12.4923 21.9147 12.7035 21.7035C12.9147 21.4923 13.2013 21.3736 13.5 21.3736C13.7987 21.3736 14.0853 21.4923 14.2965 21.7035L16.875 24.2843L22.8285 18.3285C23.0397 18.1173 23.3263 17.9986 23.625 17.9986C23.9237 17.9986 24.2103 18.1173 24.4215 18.3285C24.6327 18.5397 24.7514 18.8263 24.7514 19.125C24.7514 19.4237 24.6327 19.7103 24.4215 19.9215V19.9215Z" fill="#CEAA4C"/>
</g>
<defs>
<clipPath id="clip0_105_24">
<rect width="36" height="36" fill="white"/>
</clipPath>
</defs>
</svg>
