<svg width="187" height="51" viewBox="0 0 187 51" fill="none" xmlns="http://www.w3.org/2000/svg">
<path d="M67.7511 13.8759C67.1887 14.9037 66.4518 15.6794 65.5403 16.2128C64.6288 16.7461 63.6494 17.0079 62.5828 17.0079C61.5452 17.0079 60.5658 16.7364 59.6446 16.1934C58.7235 15.6504 57.9768 14.8552 57.4144 13.8177C56.852 12.7801 56.5708 11.568 56.5708 10.2008C56.5708 8.82385 56.852 7.64085 57.4144 6.63239C57.9768 5.63362 58.7138 4.86758 59.6253 4.35366C60.5367 3.83973 61.5161 3.57792 62.5828 3.57792C63.6397 3.57792 64.6191 3.83973 65.5403 4.37305C66.4518 4.90637 67.1887 5.67242 67.7511 6.69057C68.3135 7.70873 68.5947 8.90142 68.5947 10.2687C68.5947 11.6553 68.3135 12.8577 67.7511 13.8759ZM72.7352 20.5957V0.329508H68.5947V3.22884C67.9257 2.31734 66.9948 1.5416 65.8118 0.930709C64.6288 0.319814 63.2615 0.00952148 61.7294 0.00952148C60.0034 0.00952148 58.4229 0.436172 56.9974 1.29918C55.572 2.15249 54.4375 3.35489 53.6133 4.90637C52.7794 6.43845 52.3624 8.21296 52.3624 10.2202C52.3624 12.2177 52.7697 14.0116 53.6036 15.5922C54.4375 17.1727 55.5623 18.4042 56.9877 19.2866C58.4132 20.169 59.9937 20.6054 61.7197 20.6054C63.2324 20.6054 64.5803 20.2854 65.773 19.6454C66.956 19.0151 67.9063 18.22 68.6044 17.2697V20.5957C68.6044 22.5253 68.0905 23.9992 67.0723 25.0077C66.0542 26.0259 64.7063 26.5204 63.0579 26.5204C61.6422 26.5204 60.4204 26.2004 59.4022 25.5604C58.3841 24.9204 57.715 24.0865 57.4047 23.049H53.3418C53.5745 25.2113 54.5926 26.9374 56.3671 28.2076C58.1416 29.4779 60.3719 30.1082 63.0676 30.1082C65.0845 30.1082 66.8202 29.6912 68.2747 28.8767C69.7293 28.0622 70.8347 26.9277 71.6104 25.4925C72.3571 24.0574 72.7352 22.4284 72.7352 20.5957Z" fill="white"/>
<path d="M82.238 9.77414C82.238 7.74752 82.6453 6.3221 83.4792 5.50757C84.3131 4.69304 85.5252 4.27608 87.1349 4.27608H88.1821V0.00952148C86.8149 0.00952148 85.6319 0.290724 84.6331 0.862832C83.6343 1.42524 82.8392 2.22037 82.238 3.23853V0.339207H78.1266V20.2757H82.238V9.77414Z" fill="white"/>
<path d="M95.6001 6.60348C96.1334 5.60471 96.8413 4.84837 97.7431 4.34414C98.6449 3.83991 99.6242 3.5781 100.681 3.5781C101.738 3.5781 102.717 3.83021 103.639 4.34414C104.55 4.84837 105.277 5.60471 105.83 6.60348C106.383 7.60224 106.664 8.82403 106.664 10.2785C106.664 11.7234 106.383 12.9548 105.801 13.973C105.229 14.9912 104.473 15.7475 103.551 16.2517C102.63 16.756 101.641 17.0178 100.584 17.0178C98.9261 17.0178 97.5491 16.4263 96.4631 15.2627C95.3771 14.0991 94.8243 12.4409 94.8243 10.2882C94.805 8.83373 95.0668 7.60224 95.6001 6.60348ZM95.4837 19.3062C96.9964 20.1595 98.6933 20.5959 100.565 20.5959C102.456 20.5959 104.201 20.1692 105.772 19.3062C107.343 18.4529 108.584 17.2311 109.496 15.6699C110.407 14.0991 110.863 12.3052 110.863 10.2785C110.863 8.25192 110.417 6.44833 109.525 4.88716C108.642 3.31629 107.42 2.11389 105.888 1.27027C104.347 0.426654 102.63 0 100.739 0C98.8485 0 97.1322 0.416957 95.5904 1.27027C94.0486 2.11389 92.8462 3.31629 91.9541 4.88716C91.0717 6.45803 90.616 8.25192 90.616 10.2785C90.616 12.3246 91.0523 14.1281 91.9153 15.6796C92.788 17.2408 93.9807 18.4529 95.4837 19.3062Z" fill="white"/>
<path d="M123.1 20.2661L127.095 5.54644L131.09 20.2661H135.415L141.563 0.32959H137.539L133.437 16.2904L129.393 0.32959H125.117L120.899 16.3583L116.758 0.32959H112.579L118.785 20.2661H123.1Z" fill="white"/>
<path d="M158.648 13.8759C158.086 14.9037 157.349 15.6794 156.437 16.2128C155.526 16.7461 154.547 17.0079 153.48 17.0079C152.442 17.0079 151.463 16.7364 150.542 16.1934C149.621 15.6504 148.874 14.8552 148.312 13.8177C147.749 12.7801 147.468 11.568 147.468 10.2008C147.468 8.82385 147.749 7.64085 148.312 6.63239C148.874 5.63362 149.611 4.86758 150.522 4.35366C151.434 3.83973 152.413 3.57792 153.48 3.57792C154.537 3.57792 155.516 3.83973 156.437 4.37305C157.349 4.90637 158.086 5.67242 158.648 6.69057C159.211 7.70873 159.492 8.90142 159.492 10.2687C159.492 11.6553 159.22 12.8577 158.648 13.8759ZM159.492 3.22884C158.794 2.31734 157.863 1.5416 156.709 0.930709C155.545 0.319814 154.178 0.00952148 152.627 0.00952148C150.901 0.00952148 149.32 0.436172 147.895 1.29918C146.469 2.15249 145.335 3.35489 144.51 4.90637C143.677 6.45785 143.269 8.22266 143.269 10.2202C143.269 12.2177 143.677 14.0116 144.51 15.5922C145.344 17.1727 146.46 18.4042 147.875 19.2866C149.291 20.169 150.852 20.6054 152.559 20.6054C154.091 20.6054 155.468 20.2854 156.67 19.6648C157.873 19.0345 158.823 18.2491 159.511 17.3182V20.2854H163.652V0.329508H159.511L159.492 3.22884Z" fill="white"/>
<path d="M182.638 0.32959L176.849 15.5244L171.264 0.32959H166.697L174.503 19.9461L170.478 29.6428H174.726L186.885 0.32959H182.638Z" fill="white"/>
<path d="M6.80138 48.7355C6.22927 48.8422 5.65716 48.9391 5.07536 49.0555L3.28146 49.3852L1.27423 38.3406L3.07782 38.0109C15.2666 35.7806 24.8955 34.0061 30.4032 30.7286C34.3595 28.3723 36.5122 25.2306 34.9801 16.8526L45.9665 14.8357C48.1386 26.7724 44.9095 35.131 36.0952 40.3866C29.1814 44.498 19.2811 46.4374 6.80138 48.7355Z" fill="white"/>
<path d="M39.8285 1.0281C40.4006 0.921435 40.9727 0.824468 41.5545 0.708107L43.3484 0.378418L45.3556 11.423L43.552 11.7527C31.3632 13.9829 21.7344 15.7574 16.2266 19.0349C12.2703 21.3913 10.1177 24.533 11.6497 32.911L0.65364 34.9279C-1.51843 22.9912 1.71058 14.6326 10.5249 9.37699C17.4484 5.25588 27.3488 3.32623 39.8285 1.0281Z" fill="white"/>
<path d="M83.5242 44.6138C82.6528 44.6138 81.862 44.4496 81.1517 44.1214C80.4414 43.7871 79.8774 43.3066 79.4596 42.6799C79.0418 42.0473 78.8329 41.2833 78.8329 40.388C78.8329 39.6001 78.9881 38.9615 79.2984 38.472C79.6088 37.9766 80.0236 37.5887 80.5429 37.3082C81.0622 37.0276 81.6352 36.8187 82.2619 36.6815C82.8945 36.5382 83.5302 36.4248 84.1688 36.3412C85.0045 36.2338 85.6819 36.1532 86.2012 36.0995C86.7264 36.0398 87.1084 35.9413 87.3471 35.8041C87.5919 35.6668 87.7142 35.428 87.7142 35.0878V35.0162C87.7142 34.1328 87.4725 33.4464 86.989 32.957C86.5115 32.4676 85.7863 32.2229 84.8135 32.2229C83.8048 32.2229 83.0139 32.4437 82.4409 32.8854C81.8679 33.3271 81.4651 33.7986 81.2323 34.3L79.2268 33.5837C79.5849 32.7481 80.0624 32.0975 80.6593 31.632C81.2621 31.1605 81.9187 30.8322 82.6289 30.6472C83.3452 30.4562 84.0495 30.3607 84.7418 30.3607C85.1835 30.3607 85.6908 30.4144 86.2638 30.5218C86.8428 30.6233 87.4009 30.8352 87.938 31.1575C88.4812 31.4798 88.9318 31.9662 89.2899 32.6168C89.6481 33.2674 89.8271 34.1388 89.8271 35.2311V44.2915H87.7142V42.4292H87.6068C87.4635 42.7277 87.2248 43.047 86.8905 43.3872C86.5563 43.7274 86.1116 44.0169 85.5566 44.2556C85.0015 44.4944 84.324 44.6138 83.5242 44.6138ZM83.8465 42.7157C84.6821 42.7157 85.3864 42.5516 85.9594 42.2233C86.5384 41.8951 86.9741 41.4713 87.2666 40.952C87.565 40.4327 87.7142 39.8866 87.7142 39.3136V37.3798C87.6247 37.4872 87.4277 37.5857 87.1233 37.6752C86.8249 37.7588 86.4787 37.8334 86.0848 37.8991C85.6968 37.9587 85.3178 38.0125 84.9478 38.0602C84.5837 38.102 84.2882 38.1378 84.0614 38.1676C83.5123 38.2393 82.999 38.3557 82.5215 38.5168C82.05 38.672 81.668 38.9078 81.3755 39.2241C81.089 39.5345 80.9458 39.9582 80.9458 40.4954C80.9458 41.2296 81.2174 41.7846 81.7605 42.1607C82.3096 42.5307 83.005 42.7157 83.8465 42.7157Z" fill="white"/>
<path d="M99.2702 44.578C97.981 44.578 96.8708 44.2736 95.9397 43.6648C95.0086 43.056 94.2924 42.2174 93.791 41.149C93.2897 40.0806 93.039 38.86 93.039 37.4872C93.039 36.0906 93.2956 34.858 93.8089 33.7896C94.3282 32.7153 95.0504 31.8767 95.9756 31.2739C96.9067 30.6651 97.993 30.3607 99.2344 30.3607C100.201 30.3607 101.073 30.5397 101.849 30.8978C102.625 31.256 103.26 31.7573 103.756 32.4019C104.251 33.0466 104.558 33.7986 104.678 34.6581H102.565C102.404 34.0314 102.046 33.4763 101.491 32.9928C100.941 32.5034 100.201 32.2587 99.2702 32.2587C98.4466 32.2587 97.7244 32.4736 97.1036 32.9033C96.4889 33.3271 96.0084 33.9269 95.6622 34.7028C95.322 35.4728 95.1519 36.377 95.1519 37.4156C95.1519 38.478 95.319 39.4031 95.6532 40.191C95.9935 40.9789 96.471 41.5907 97.0857 42.0264C97.7065 42.4621 98.4346 42.6799 99.2702 42.6799C99.8194 42.6799 100.318 42.5844 100.765 42.3934C101.213 42.2024 101.592 41.9279 101.902 41.5698C102.213 41.2116 102.434 40.7819 102.565 40.2805H104.678C104.558 41.0923 104.263 41.8234 103.791 42.474C103.326 43.1186 102.708 43.6319 101.938 44.0139C101.174 44.3899 100.285 44.578 99.2702 44.578Z" fill="white"/>
<path d="M111.813 44.6138C110.942 44.6138 110.151 44.4496 109.441 44.1214C108.731 43.7871 108.166 43.3066 107.749 42.6799C107.331 42.0473 107.122 41.2833 107.122 40.388C107.122 39.6001 107.277 38.9615 107.588 38.472C107.898 37.9766 108.313 37.5887 108.832 37.3082C109.351 37.0276 109.924 36.8187 110.551 36.6815C111.184 36.5382 111.819 36.4248 112.458 36.3412C113.294 36.2338 113.971 36.1532 114.49 36.0995C115.016 36.0398 115.397 35.9413 115.636 35.8041C115.881 35.6668 116.003 35.428 116.003 35.0878V35.0162C116.003 34.1328 115.762 33.4464 115.278 32.957C114.801 32.4676 114.075 32.2229 113.103 32.2229C112.094 32.2229 111.303 32.4437 110.73 32.8854C110.157 33.3271 109.754 33.7986 109.521 34.3L107.516 33.5837C107.874 32.7481 108.352 32.0975 108.948 31.632C109.551 31.1605 110.208 30.8322 110.918 30.6472C111.634 30.4562 112.339 30.3607 113.031 30.3607C113.473 30.3607 113.98 30.4144 114.553 30.5218C115.132 30.6233 115.69 30.8352 116.227 31.1575C116.77 31.4798 117.221 31.9662 117.579 32.6168C117.937 33.2674 118.116 34.1388 118.116 35.2311V44.2915H116.003V42.4292H115.896C115.753 42.7277 115.514 43.047 115.18 43.3872C114.845 43.7274 114.401 44.0169 113.846 44.2556C113.291 44.4944 112.613 44.6138 111.813 44.6138ZM112.136 42.7157C112.971 42.7157 113.676 42.5516 114.249 42.2233C114.827 41.8951 115.263 41.4713 115.556 40.952C115.854 40.4327 116.003 39.8866 116.003 39.3136V37.3798C115.914 37.4872 115.717 37.5857 115.412 37.6752C115.114 37.7588 114.768 37.8334 114.374 37.8991C113.986 37.9587 113.607 38.0125 113.237 38.0602C112.873 38.102 112.577 38.1378 112.351 38.1676C111.801 38.2393 111.288 38.3557 110.811 38.5168C110.339 38.672 109.957 38.9078 109.665 39.2241C109.378 39.5345 109.235 39.9582 109.235 40.4954C109.235 41.2296 109.506 41.7846 110.05 42.1607C110.599 42.5307 111.294 42.7157 112.136 42.7157Z" fill="white"/>
<path d="M127.165 44.578C126.019 44.578 125.008 44.2885 124.13 43.7095C123.253 43.1246 122.567 42.3009 122.071 41.2385C121.576 40.1701 121.328 38.9078 121.328 37.4514C121.328 36.007 121.576 34.7536 122.071 33.6912C122.567 32.6287 123.256 31.8081 124.139 31.2291C125.023 30.6501 126.043 30.3607 127.201 30.3607C128.097 30.3607 128.804 30.5099 129.323 30.8083C129.848 31.1008 130.248 31.435 130.523 31.811C130.803 32.1811 131.021 32.4855 131.176 32.7242H131.355V25.9558H133.468V44.2915H131.427V42.1786H131.176C131.021 42.4292 130.8 42.7456 130.514 43.1276C130.227 43.5036 129.818 43.8408 129.287 44.1393C128.756 44.4317 128.049 44.578 127.165 44.578ZM127.452 42.6799C128.299 42.6799 129.016 42.4591 129.601 42.0174C130.186 41.5698 130.63 40.952 130.935 40.1641C131.239 39.3703 131.391 38.4541 131.391 37.4156C131.391 36.389 131.242 35.4907 130.944 34.7208C130.645 33.9448 130.203 33.342 129.619 32.9123C129.034 32.4765 128.311 32.2587 127.452 32.2587C126.557 32.2587 125.811 32.4885 125.214 32.9481C124.623 33.4017 124.178 34.0194 123.88 34.8013C123.587 35.5773 123.441 36.4487 123.441 37.4156C123.441 38.3944 123.59 39.2838 123.889 40.0836C124.193 40.8774 124.641 41.5101 125.232 41.9816C125.828 42.4472 126.569 42.6799 127.452 42.6799Z" fill="white"/>
<path d="M143.397 44.578C142.072 44.578 140.929 44.2855 139.968 43.7006C139.013 43.1097 138.276 42.286 137.757 41.2296C137.243 40.1671 136.987 38.9316 136.987 37.523C136.987 36.1144 137.243 34.873 137.757 33.7986C138.276 32.7183 138.998 31.8767 139.923 31.2739C140.854 30.6651 141.941 30.3607 143.182 30.3607C143.898 30.3607 144.606 30.48 145.304 30.7188C146.002 30.9575 146.638 31.3455 147.211 31.8827C147.784 32.4139 148.241 33.1182 148.581 33.9956C148.921 34.873 149.091 35.9533 149.091 37.2365V38.1318H138.491V36.3054H146.942C146.942 35.5295 146.787 34.8371 146.477 34.2283C146.173 33.6195 145.737 33.1391 145.17 32.7869C144.609 32.4348 143.946 32.2587 143.182 32.2587C142.341 32.2587 141.612 32.4676 140.998 32.8854C140.389 33.2972 139.92 33.8344 139.592 34.4969C139.264 35.1594 139.1 35.8697 139.1 36.6277V37.8453C139.1 38.8839 139.279 39.7643 139.637 40.4865C140.001 41.2027 140.505 41.7488 141.15 42.1248C141.795 42.4949 142.544 42.6799 143.397 42.6799C143.952 42.6799 144.454 42.6023 144.901 42.4472C145.355 42.286 145.746 42.0473 146.074 41.7309C146.402 41.4086 146.656 41.0087 146.835 40.5312L148.876 41.1042C148.661 41.7966 148.3 42.4054 147.793 42.9306C147.286 43.4499 146.659 43.8557 145.913 44.1482C145.167 44.4347 144.328 44.578 143.397 44.578Z" fill="white"/>
<path d="M152.305 44.2915V30.5397H154.347V32.6884H154.526C154.812 31.9543 155.275 31.3843 155.913 30.9784C156.552 30.5666 157.319 30.3607 158.214 30.3607C159.121 30.3607 159.877 30.5666 160.479 30.9784C161.088 31.3843 161.563 31.9543 161.903 32.6884H162.046C162.398 31.9782 162.926 31.4141 163.631 30.9963C164.335 30.5726 165.18 30.3607 166.164 30.3607C167.394 30.3607 168.4 30.7456 169.182 31.5156C169.964 32.2796 170.354 33.4703 170.354 35.0878V44.2915H168.242V35.0878C168.242 34.0732 167.964 33.348 167.409 32.9123C166.854 32.4765 166.2 32.2587 165.448 32.2587C164.481 32.2587 163.732 32.5512 163.201 33.1361C162.67 33.715 162.404 34.4492 162.404 35.3385V44.2915H160.256V34.873C160.256 34.0911 160.002 33.4614 159.495 32.9839C158.987 32.5004 158.334 32.2587 157.534 32.2587C156.985 32.2587 156.471 32.4049 155.994 32.6974C155.522 32.9898 155.14 33.3957 154.848 33.915C154.561 34.4283 154.418 35.0222 154.418 35.6966V44.2915H152.305Z" fill="white"/>
<path d="M175.086 49.4484C174.728 49.4484 174.409 49.4185 174.128 49.3588C173.848 49.3051 173.654 49.2514 173.546 49.1977L174.083 47.3355C174.597 47.4668 175.05 47.5145 175.444 47.4787C175.838 47.4429 176.187 47.2668 176.492 46.9505C176.802 46.6401 177.086 46.1358 177.342 45.4374L177.736 44.3631L172.651 30.5397H174.943L178.739 41.4981H178.882L182.678 30.5397H184.97L179.133 46.2969C178.87 47.0072 178.545 47.5951 178.157 48.0607C177.769 48.5322 177.318 48.8813 176.805 49.1081C176.298 49.335 175.725 49.4484 175.086 49.4484Z" fill="white"/>
<path d="M74.0432 43.4078C73.5166 43.4078 73.0647 43.2192 72.6875 42.8421C72.3104 42.4649 72.1218 42.013 72.1218 41.4864C72.1218 40.9598 72.3104 40.5079 72.6875 40.1307C73.0647 39.7535 73.5166 39.5649 74.0432 39.5649C74.5698 39.5649 75.0217 39.7535 75.3989 40.1307C75.7761 40.5079 75.9646 40.9598 75.9646 41.4864C75.9646 41.8351 75.8757 42.1553 75.6978 42.4471C75.527 42.7389 75.2957 42.9737 75.0039 43.1516C74.7193 43.3224 74.399 43.4078 74.0432 43.4078Z" fill="white"/>
</svg>
