<svg width="131" height="36" viewBox="0 0 131 36" fill="none" xmlns="http://www.w3.org/2000/svg">
<path d="M47.4911 9.72646C47.0968 10.447 46.5802 10.9907 45.9413 11.3646C45.3024 11.7384 44.6159 11.9219 43.8682 11.9219C43.1409 11.9219 42.4544 11.7316 41.8087 11.351C41.163 10.9703 40.6396 10.413 40.2454 9.68568C39.8511 8.9584 39.654 8.10876 39.654 7.15037C39.654 6.18519 39.8511 5.35594 40.2454 4.64905C40.6396 3.94895 41.1562 3.41198 41.7951 3.05174C42.434 2.69149 43.1205 2.50798 43.8682 2.50798C44.6091 2.50798 45.2956 2.6915 45.9413 3.06534C46.5802 3.43917 47.0968 3.97614 47.4911 4.68984C47.8853 5.40353 48.0824 6.23956 48.0824 7.19795C48.0824 8.16993 47.8853 9.01277 47.4911 9.72646ZM50.9847 14.4368V0.230952H48.0824V2.26328C47.6134 1.62436 46.9609 1.08059 46.1316 0.652373C45.3024 0.224157 44.344 0.00665283 43.2701 0.00665283C42.0602 0.00665283 40.9523 0.30572 39.9531 0.91066C38.9539 1.5088 38.1587 2.35164 37.5809 3.43917C36.9964 4.51311 36.7041 5.75698 36.7041 7.16397C36.7041 8.56417 36.9896 9.82163 37.5741 10.9295C38.1587 12.0375 38.9471 12.9007 39.9463 13.5192C40.9455 14.1378 42.0534 14.4436 43.2633 14.4436C44.3236 14.4436 45.2684 14.2193 46.1045 13.7707C46.9337 13.3289 47.5998 12.7716 48.0892 12.1054V14.4368C48.0892 15.7895 47.729 16.8226 47.0153 17.5295C46.3016 18.2432 45.3568 18.5898 44.2013 18.5898C43.2089 18.5898 42.3525 18.3655 41.6388 17.9169C40.9251 17.4683 40.4561 16.8838 40.2386 16.1565H37.3906C37.5537 17.6722 38.2674 18.8821 39.5113 19.7725C40.7552 20.663 42.3185 21.1048 44.2081 21.1048C45.6219 21.1048 46.8385 20.8125 47.8581 20.2415C48.8777 19.6706 49.6525 18.8753 50.1963 17.8694C50.7197 16.8634 50.9847 15.7215 50.9847 14.4368Z" fill="black" fill-opacity="0.3"/>
<path d="M57.6461 6.8513C57.6461 5.43072 57.9316 4.43155 58.5161 3.86059C59.1007 3.28964 59.9503 2.99736 61.0786 2.99736H61.8127V0.00665283C60.8543 0.00665283 60.0251 0.203766 59.325 0.604793C58.6249 0.999024 58.0675 1.55638 57.6461 2.27007V0.237751H54.7642V14.2125H57.6461V6.8513Z" fill="black" fill-opacity="0.3"/>
<path d="M67.0122 4.6288C67.3861 3.92871 67.8823 3.39854 68.5144 3.04509C69.1465 2.69164 69.833 2.50812 70.5739 2.50812C71.3148 2.50812 72.0013 2.68485 72.647 3.04509C73.2859 3.39854 73.7957 3.92871 74.1832 4.6288C74.5706 5.3289 74.7677 6.18533 74.7677 7.20489C74.7677 8.21766 74.5706 9.08089 74.1628 9.79458C73.7617 10.5083 73.2316 11.0384 72.5858 11.3919C71.9401 11.7453 71.2468 11.9289 70.5059 11.9289C69.3436 11.9289 68.3785 11.5142 67.6172 10.6986C66.8559 9.88294 66.4685 8.72064 66.4685 7.21169C66.4549 6.19213 66.6384 5.3289 67.0122 4.6288ZM66.9307 13.533C67.991 14.1311 69.1805 14.437 70.4923 14.437C71.8178 14.437 73.0413 14.1379 74.1424 13.533C75.2435 12.9348 76.1135 12.0784 76.7525 10.9841C77.3914 9.88294 77.7108 8.62548 77.7108 7.20489C77.7108 5.78431 77.3982 4.52005 76.7728 3.42572C76.1543 2.3246 75.2979 1.48176 74.2239 0.890415C73.1432 0.299069 71.9401 0 70.6147 0C69.2893 0 68.0862 0.292272 67.0055 0.890415C65.9247 1.48176 65.0819 2.3246 64.4565 3.42572C63.838 4.52685 63.5186 5.78431 63.5186 7.20489C63.5186 8.63908 63.8244 9.90333 64.4294 10.9909C65.0411 12.0852 65.8771 12.9348 66.9307 13.533Z" fill="black" fill-opacity="0.3"/>
<path d="M86.2889 14.2058L89.0893 3.88785L91.8897 14.2058H94.9212L99.2305 0.231018H96.4097L93.5346 11.419L90.7002 0.231018H87.7027L84.7459 11.4666L81.8436 0.231018H78.9141L83.2642 14.2058H86.2889Z" fill="black" fill-opacity="0.3"/>
<path d="M111.207 9.72646C110.813 10.447 110.296 10.9907 109.657 11.3646C109.018 11.7384 108.332 11.9219 107.584 11.9219C106.857 11.9219 106.17 11.7316 105.525 11.351C104.879 10.9703 104.355 10.413 103.961 9.68568C103.567 8.95839 103.37 8.10876 103.37 7.15037C103.37 6.18519 103.567 5.35594 103.961 4.64905C104.355 3.94895 104.872 3.41198 105.511 3.05174C106.15 2.69149 106.836 2.50798 107.584 2.50798C108.325 2.50798 109.011 2.6915 109.657 3.06534C110.296 3.43917 110.813 3.97614 111.207 4.68983C111.601 5.40353 111.798 6.23956 111.798 7.19795C111.798 8.16993 111.608 9.01277 111.207 9.72646ZM111.798 2.26328C111.309 1.62436 110.656 1.08059 109.848 0.652373C109.032 0.224157 108.073 0.00665283 106.986 0.00665283C105.776 0.00665283 104.668 0.30572 103.669 0.910659C102.67 1.5088 101.875 2.35164 101.297 3.43917C100.712 4.5267 100.427 5.76377 100.427 7.16397C100.427 8.56417 100.712 9.82162 101.297 10.9295C101.881 12.0375 102.663 12.9007 103.655 13.5192C104.648 14.1378 105.742 14.4436 106.938 14.4436C108.012 14.4436 108.977 14.2193 109.82 13.7843C110.663 13.3425 111.329 12.7919 111.812 12.1394V14.2193H114.714V0.230952H111.812L111.798 2.26328Z" fill="black" fill-opacity="0.3"/>
<path d="M128.023 0.231018L123.965 10.882L120.05 0.231018H116.849L122.32 13.9815L119.499 20.7786H122.477L131 0.231018H128.023Z" fill="black" fill-opacity="0.3"/>
<path d="M4.7674 34.1619C4.36637 34.2366 3.96535 34.3046 3.55752 34.3862L2.30006 34.6173L0.893066 26.8754L2.15732 26.6443C10.7012 25.081 17.4507 23.8371 21.3115 21.5397C24.0847 19.888 25.5936 17.6858 24.5197 11.8131L32.2208 10.3993C33.7433 18.7665 31.4799 24.6256 25.3014 28.3096C20.455 31.1915 13.5152 32.551 4.7674 34.1619Z" fill="black" fill-opacity="0.3"/>
<path d="M27.9184 0.720663C28.3194 0.645895 28.7204 0.577924 29.1282 0.496359L30.3857 0.265259L31.7927 8.00712L30.5284 8.23822C21.9845 9.80155 15.235 11.0454 11.3743 13.3428C8.60107 14.9945 7.09212 17.1968 8.16606 23.0694L0.458179 24.4832C-1.06437 16.116 1.19906 10.257 7.3776 6.57294C12.2307 3.68419 19.1705 2.33157 27.9184 0.720663Z" fill="black" fill-opacity="0.3"/>
<path d="M58.5477 31.2727C57.9369 31.2727 57.3826 31.1576 56.8847 30.9275C56.3868 30.6932 55.9914 30.3564 55.6986 29.9171C55.4057 29.4736 55.2593 28.9381 55.2593 28.3105C55.2593 27.7583 55.3681 27.3106 55.5856 26.9675C55.8032 26.6203 56.0939 26.3483 56.4579 26.1517C56.8219 25.955 57.2236 25.8086 57.6629 25.7124C58.1064 25.612 58.5519 25.5325 58.9996 25.4739C59.5853 25.3986 60.0602 25.3421 60.4242 25.3045C60.7924 25.2626 61.0601 25.1936 61.2275 25.0974C61.399 25.0011 61.4848 24.8338 61.4848 24.5953V24.5451C61.4848 23.9259 61.3153 23.4448 60.9764 23.1017C60.6417 22.7586 60.1334 22.5871 59.4514 22.5871C58.7444 22.5871 58.19 22.7419 57.7884 23.0515C57.3867 23.3611 57.1043 23.6916 56.9412 24.043L55.5354 23.541C55.7864 22.9553 56.1211 22.4992 56.5395 22.1729C56.9621 21.8424 57.4223 21.6123 57.9202 21.4826C58.4222 21.3487 58.9159 21.2817 59.4012 21.2817C59.7108 21.2817 60.0665 21.3194 60.4681 21.3947C60.8739 21.4658 61.2651 21.6144 61.6417 21.8403C62.0224 22.0662 62.3383 22.4072 62.5893 22.8632C62.8403 23.3193 62.9658 23.9301 62.9658 24.6957V31.0467H61.4848V29.7414H61.4095C61.3091 29.9506 61.1417 30.1744 60.9074 30.4129C60.6731 30.6514 60.3614 30.8543 59.9723 31.0216C59.5832 31.189 59.1084 31.2727 58.5477 31.2727ZM58.7737 29.9422C59.3594 29.9422 59.8531 29.8272 60.2547 29.5971C60.6606 29.3669 60.966 29.0699 61.171 28.7059C61.3802 28.3419 61.4848 27.9591 61.4848 27.5574V26.2019C61.422 26.2772 61.284 26.3462 61.0706 26.409C60.8614 26.4676 60.6187 26.5199 60.3426 26.5659C60.0707 26.6077 59.805 26.6454 59.5456 26.6788C59.2904 26.7081 59.0833 26.7332 58.9243 26.7542C58.5394 26.8044 58.1796 26.8859 57.8449 26.9989C57.5143 27.1077 57.2466 27.2729 57.0416 27.4947C56.8408 27.7122 56.7403 28.0093 56.7403 28.3858C56.7403 28.9004 56.9307 29.2895 57.3114 29.5531C57.6963 29.8125 58.1838 29.9422 58.7737 29.9422Z" fill="black" fill-opacity="0.3"/>
<path d="M69.5851 31.2476C68.6814 31.2476 67.9033 31.0342 67.2506 30.6074C66.5979 30.1807 66.0959 29.5929 65.7444 28.844C65.393 28.0951 65.2173 27.2395 65.2173 26.2772C65.2173 25.2982 65.3972 24.4342 65.757 23.6853C66.121 22.9322 66.6272 22.3444 67.2757 21.9219C67.9284 21.4951 68.6898 21.2817 69.56 21.2817C70.2378 21.2817 70.8487 21.4073 71.3925 21.6583C71.9364 21.9093 72.382 22.2607 72.7293 22.7126C73.0765 23.1645 73.292 23.6916 73.3757 24.2941H71.8946C71.7816 23.8548 71.5306 23.4657 71.1415 23.1268C70.7566 22.7837 70.2378 22.6122 69.5851 22.6122C69.0078 22.6122 68.5015 22.7628 68.0664 23.064C67.6355 23.3611 67.2987 23.7816 67.056 24.3255C66.8176 24.8652 66.6983 25.499 66.6983 26.227C66.6983 26.9717 66.8155 27.6202 67.0498 28.1725C67.2882 28.7247 67.6229 29.1536 68.0539 29.459C68.489 29.7644 68.9994 29.9171 69.5851 29.9171C69.9701 29.9171 70.3194 29.8502 70.6332 29.7163C70.947 29.5824 71.2126 29.39 71.4302 29.1389C71.6478 28.8879 71.8026 28.5867 71.8946 28.2352H73.3757C73.292 28.8042 73.0849 29.3167 72.7544 29.7728C72.428 30.2246 71.995 30.5844 71.4553 30.8522C70.9198 31.1158 70.2964 31.2476 69.5851 31.2476Z" fill="black" fill-opacity="0.3"/>
<path d="M78.3774 31.2727C77.7666 31.2727 77.2122 31.1576 76.7143 30.9275C76.2165 30.6932 75.8211 30.3564 75.5282 29.9171C75.2354 29.4736 75.0889 28.9381 75.0889 28.3105C75.0889 27.7583 75.1977 27.3106 75.4153 26.9675C75.6328 26.6203 75.9236 26.3483 76.2876 26.1517C76.6516 25.955 77.0532 25.8086 77.4925 25.7124C77.936 25.612 78.3816 25.5325 78.8293 25.4739C79.415 25.3986 79.8899 25.3421 80.2538 25.3045C80.622 25.2626 80.8898 25.1936 81.0571 25.0974C81.2287 25.0011 81.3144 24.8338 81.3144 24.5953V24.5451C81.3144 23.9259 81.145 23.4448 80.8061 23.1017C80.4714 22.7586 79.9631 22.5871 79.2811 22.5871C78.574 22.5871 78.0197 22.7419 77.618 23.0515C77.2164 23.3611 76.934 23.6916 76.7708 24.043L75.3651 23.541C75.6161 22.9553 75.9508 22.4992 76.3692 22.1729C76.7917 21.8424 77.252 21.6123 77.7498 21.4826C78.2519 21.3487 78.7456 21.2817 79.2309 21.2817C79.5405 21.2817 79.8961 21.3194 80.2978 21.3947C80.7036 21.4658 81.0948 21.6144 81.4713 21.8403C81.8521 22.0662 82.1679 22.4072 82.419 22.8632C82.67 23.3193 82.7955 23.9301 82.7955 24.6957V31.0467H81.3144V29.7414H81.2391C81.1387 29.9506 80.9714 30.1744 80.7371 30.4129C80.5028 30.6514 80.1911 30.8543 79.802 31.0216C79.4129 31.189 78.938 31.2727 78.3774 31.2727ZM78.6033 29.9422C79.1891 29.9422 79.6828 29.8272 80.0844 29.5971C80.4902 29.3669 80.7956 29.0699 81.0007 28.7059C81.2098 28.3419 81.3144 27.9591 81.3144 27.5574V26.2019C81.2517 26.2772 81.1136 26.3462 80.9002 26.409C80.6911 26.4676 80.4484 26.5199 80.1723 26.5659C79.9003 26.6077 79.6346 26.6454 79.3752 26.6788C79.12 26.7081 78.9129 26.7332 78.754 26.7542C78.369 26.8044 78.0092 26.8859 77.6745 26.9989C77.344 27.1077 77.0762 27.2729 76.8712 27.4947C76.6704 27.7122 76.57 28.0093 76.57 28.3858C76.57 28.9004 76.7604 29.2895 77.1411 29.5531C77.526 29.8125 78.0134 29.9422 78.6033 29.9422Z" fill="black" fill-opacity="0.3"/>
<path d="M89.1387 31.2476C88.3354 31.2476 87.6262 31.0446 87.0112 30.6388C86.3962 30.2288 85.9151 29.6514 85.5678 28.9067C85.2205 28.1578 85.0469 27.2729 85.0469 26.2521C85.0469 25.2396 85.2205 24.361 85.5678 23.6163C85.9151 22.8716 86.3983 22.2963 87.0175 21.8905C87.6367 21.4847 88.3521 21.2817 89.1638 21.2817C89.7914 21.2817 90.2871 21.3863 90.6511 21.5955C91.0193 21.8005 91.2996 22.0348 91.4921 22.2984C91.6887 22.5578 91.8414 22.7712 91.9502 22.9385H92.0757V18.1941H93.5568V31.0467H92.1259V29.5657H91.9502C91.8414 29.7414 91.6866 29.9631 91.4858 30.2309C91.285 30.4945 90.9984 30.7309 90.626 30.9401C90.2537 31.1451 89.7579 31.2476 89.1387 31.2476ZM89.3395 29.9171C89.9336 29.9171 90.4357 29.7623 90.8457 29.4527C91.2557 29.1389 91.5674 28.7059 91.7808 28.1536C91.9941 27.5972 92.1008 26.955 92.1008 26.227C92.1008 25.5074 91.9962 24.8777 91.787 24.338C91.5778 23.7941 91.2682 23.3715 90.8582 23.0703C90.4482 22.7649 89.942 22.6122 89.3395 22.6122C88.7119 22.6122 88.189 22.7733 87.7706 23.0954C87.3564 23.4134 87.0447 23.8464 86.8355 24.3945C86.6305 24.9384 86.528 25.5492 86.528 26.227C86.528 26.9131 86.6326 27.5365 86.8418 28.0972C87.0551 28.6536 87.3689 29.0971 87.7831 29.4276C88.2015 29.7539 88.7203 29.9171 89.3395 29.9171Z" fill="black" fill-opacity="0.3"/>
<path d="M100.517 31.2476C99.5877 31.2476 98.7865 31.0426 98.1129 30.6325C97.4435 30.2183 96.9268 29.641 96.5628 28.9004C96.203 28.1557 96.0231 27.2897 96.0231 26.3023C96.0231 25.3149 96.203 24.4447 96.5628 23.6916C96.9268 22.9343 97.4331 22.3444 98.0816 21.9219C98.7342 21.4951 99.4957 21.2817 100.366 21.2817C100.868 21.2817 101.364 21.3654 101.853 21.5328C102.343 21.7001 102.788 21.9721 103.19 22.3486C103.592 22.721 103.912 23.2147 104.15 23.8297C104.389 24.4447 104.508 25.202 104.508 26.1015V26.7291H97.0774V25.4488H103.002C103.002 24.9049 102.893 24.4196 102.675 23.9928C102.462 23.5661 102.157 23.2293 101.759 22.9825C101.366 22.7356 100.901 22.6122 100.366 22.6122C99.776 22.6122 99.2656 22.7586 98.8346 23.0515C98.4079 23.3402 98.0795 23.7167 97.8494 24.1811C97.6192 24.6455 97.5042 25.1434 97.5042 25.6747V26.5282C97.5042 27.2562 97.6297 27.8733 97.8807 28.3796C98.1359 28.8816 98.4895 29.2644 98.9413 29.528C99.3932 29.7874 99.9182 29.9171 100.517 29.9171C100.906 29.9171 101.257 29.8627 101.571 29.7539C101.889 29.641 102.163 29.4736 102.393 29.2519C102.623 29.026 102.801 28.7456 102.926 28.4109L104.357 28.8126C104.207 29.2979 103.954 29.7247 103.598 30.0928C103.242 30.4568 102.803 30.7413 102.28 30.9463C101.757 31.1471 101.169 31.2476 100.517 31.2476Z" fill="black" fill-opacity="0.3"/>
<path d="M106.761 31.0467V21.4073H108.192V22.9134H108.317C108.518 22.3988 108.842 21.9993 109.29 21.7148C109.738 21.4261 110.275 21.2817 110.903 21.2817C111.539 21.2817 112.068 21.4261 112.491 21.7148C112.917 21.9993 113.25 22.3988 113.488 22.9134H113.589C113.836 22.4156 114.206 22.0202 114.7 21.7273C115.193 21.4303 115.785 21.2817 116.476 21.2817C117.338 21.2817 118.042 21.5516 118.591 22.0913C119.139 22.6268 119.413 23.4615 119.413 24.5953V31.0467H117.932V24.5953C117.932 23.8841 117.737 23.3757 117.348 23.0703C116.959 22.7649 116.501 22.6122 115.974 22.6122C115.296 22.6122 114.771 22.8172 114.398 23.2272C114.026 23.633 113.84 24.1476 113.84 24.771V31.0467H112.334V24.4447C112.334 23.8966 112.156 23.4552 111.8 23.1205C111.445 22.7816 110.986 22.6122 110.426 22.6122C110.041 22.6122 109.681 22.7147 109.346 22.9197C109.016 23.1247 108.748 23.4092 108.543 23.7732C108.342 24.133 108.242 24.5493 108.242 25.0221V31.0467H106.761Z" fill="black" fill-opacity="0.3"/>
<path d="M122.729 34.6615C122.478 34.6615 122.255 34.6406 122.058 34.5988C121.861 34.5611 121.725 34.5235 121.65 34.4858L122.027 33.1805C122.386 33.2725 122.704 33.306 122.98 33.2809C123.257 33.2558 123.501 33.1324 123.715 32.9106C123.932 32.6931 124.131 32.3395 124.311 31.85L124.587 31.0969L121.022 21.4073H122.629L125.29 29.0887H125.39L128.051 21.4073H129.658L125.566 32.4525C125.382 32.9504 125.154 33.3625 124.882 33.6888C124.61 34.0193 124.294 34.2641 123.934 34.4231C123.579 34.5821 123.177 34.6615 122.729 34.6615Z" fill="black" fill-opacity="0.3"/>
<path d="M51.9016 30.4274C51.5324 30.4274 51.2156 30.2952 50.9513 30.0308C50.6869 29.7664 50.5547 29.4496 50.5547 29.0805C50.5547 28.7114 50.6869 28.3946 50.9513 28.1302C51.2156 27.8658 51.5324 27.7336 51.9016 27.7336C52.2707 27.7336 52.5875 27.8658 52.8518 28.1302C53.1162 28.3946 53.2484 28.7114 53.2484 29.0805C53.2484 29.3249 53.1861 29.5494 53.0613 29.7539C52.9416 29.9585 52.7795 30.1231 52.575 30.2478C52.3754 30.3675 52.151 30.4274 51.9016 30.4274Z" fill="black" fill-opacity="0.3"/>
</svg>
