<svg width="72" height="20" viewBox="0 0 72 20" fill="none" xmlns="http://www.w3.org/2000/svg">
<path d="M25.8373 5.29171C25.6229 5.68369 25.3418 5.97953 24.9942 6.18291C24.6466 6.3863 24.2731 6.48614 23.8664 6.48614C23.4707 6.48614 23.0972 6.3826 22.7459 6.17551C22.3946 5.96843 22.1098 5.6652 21.8954 5.26952C21.6809 4.87385 21.5736 4.41161 21.5736 3.8902C21.5736 3.3651 21.6809 2.91395 21.8954 2.52937C22.1098 2.14848 22.3909 1.85635 22.7385 1.66036C23.0861 1.46437 23.4596 1.36453 23.8664 1.36453C24.2694 1.36453 24.6429 1.46437 24.9942 1.66775C25.3418 1.87114 25.6229 2.16328 25.8373 2.55156C26.0518 2.93984 26.1591 3.39468 26.1591 3.91609C26.1591 4.44489 26.0518 4.90343 25.8373 5.29171ZM27.7381 7.85437V0.125722H26.1591V1.2314C25.9039 0.883797 25.5489 0.587962 25.0978 0.354994C24.6466 0.122025 24.1252 0.00369263 23.5409 0.00369263C22.8827 0.00369263 22.2799 0.166399 21.7364 0.495513C21.1928 0.82093 20.7601 1.27947 20.4458 1.87114C20.1278 2.45541 19.9688 3.13213 19.9688 3.8976C19.9688 4.65937 20.1241 5.34348 20.4421 5.94624C20.7601 6.549 21.1891 7.01864 21.7327 7.35515C22.2763 7.69166 22.879 7.85807 23.5372 7.85807C24.1141 7.85807 24.6281 7.73604 25.083 7.49197C25.5341 7.25161 25.8965 6.94838 26.1628 6.58598V7.85437C26.1628 8.59025 25.9668 9.15234 25.5785 9.53692C25.1902 9.9252 24.6762 10.1138 24.0476 10.1138C23.5077 10.1138 23.0417 9.99176 22.6534 9.7477C22.2652 9.50364 22.01 9.18562 21.8917 8.78994H20.3422C20.431 9.61458 20.8193 10.2728 21.496 10.7572C22.1727 11.2417 23.0232 11.482 24.0512 11.482C24.8204 11.482 25.4823 11.323 26.037 11.0124C26.5917 10.7018 27.0133 10.2691 27.3091 9.72182C27.5939 9.17452 27.7381 8.55327 27.7381 7.85437Z" fill="black"/>
<path d="M31.362 3.72749C31.362 2.95463 31.5173 2.41104 31.8353 2.10041C32.1533 1.78979 32.6156 1.63077 33.2294 1.63077H33.6288V0.00369263C33.1074 0.00369263 32.6563 0.110931 32.2754 0.329108C31.8945 0.543587 31.5913 0.846815 31.362 1.2351V0.12942H29.7941V7.73234H31.362V3.72749Z" fill="black"/>
<path d="M36.4577 2.51828C36.6611 2.13739 36.9311 1.84896 37.275 1.65667C37.6189 1.46438 37.9924 1.36453 38.3954 1.36453C38.7985 1.36453 39.172 1.46068 39.5233 1.65667C39.8709 1.84896 40.1483 2.13739 40.359 2.51828C40.5698 2.89917 40.6771 3.3651 40.6771 3.91979C40.6771 4.47078 40.5698 4.94041 40.3479 5.3287C40.1298 5.71698 39.8413 6.00542 39.49 6.19771C39.1387 6.39 38.7615 6.48984 38.3585 6.48984C37.7261 6.48984 37.201 6.26427 36.7868 5.82052C36.3727 5.37677 36.1619 4.74443 36.1619 3.92349C36.1545 3.3688 36.2544 2.89917 36.4577 2.51828ZM36.4134 7.36255C36.9902 7.68797 37.6374 7.85437 38.3511 7.85437C39.0722 7.85437 39.7378 7.69166 40.3368 7.36255C40.9359 7.03713 41.4092 6.5712 41.7569 5.97583C42.1045 5.37677 42.2783 4.69266 42.2783 3.91979C42.2783 3.14693 42.1082 2.45911 41.7679 1.86375C41.4314 1.26469 40.9655 0.806145 40.3812 0.484426C39.7933 0.162707 39.1387 0 38.4176 0C37.6965 0 37.042 0.15901 36.454 0.484426C35.8661 0.806145 35.4075 1.26469 35.0673 1.86375C34.7308 2.46281 34.557 3.14693 34.557 3.91979C34.557 4.70005 34.7234 5.38786 35.0525 5.97953C35.3853 6.57489 35.8402 7.03713 36.4134 7.36255Z" fill="black"/>
<path d="M46.945 7.72862L48.4686 2.11518L49.9921 7.72862H51.6414L53.9859 0.125702H52.4512L50.887 6.21247L49.345 0.125702H47.7142L46.1056 6.23836L44.5266 0.125702H42.9328L45.2995 7.72862H46.945Z" fill="black"/>
<path d="M60.5016 5.29171C60.2871 5.68369 60.0061 5.97953 59.6585 6.18291C59.3109 6.3863 58.9374 6.48614 58.5306 6.48614C58.1349 6.48614 57.7615 6.3826 57.4102 6.17551C57.0589 5.96843 56.7741 5.6652 56.5596 5.26952C56.3452 4.87385 56.2379 4.41161 56.2379 3.8902C56.2379 3.3651 56.3452 2.91395 56.5596 2.52937C56.7741 2.14848 57.0552 1.85635 57.4028 1.66036C57.7504 1.46437 58.1239 1.36453 58.5306 1.36453C58.9337 1.36453 59.3072 1.46437 59.6585 1.66775C60.0061 1.87114 60.2871 2.16328 60.5016 2.55156C60.7161 2.93984 60.8233 3.39468 60.8233 3.91609C60.8233 4.44489 60.7198 4.90343 60.5016 5.29171ZM60.8233 1.2314C60.5571 0.883797 60.2021 0.587962 59.762 0.354994C59.3183 0.122025 58.7969 0.00369263 58.2052 0.00369263C57.547 0.00369263 56.9442 0.166399 56.4006 0.495513C55.857 0.82093 55.4244 1.27947 55.1101 1.87114C54.792 2.46281 54.6367 3.13583 54.6367 3.8976C54.6367 4.65937 54.792 5.34348 55.1101 5.94624C55.4281 6.549 55.8533 7.01864 56.3932 7.35515C56.9331 7.69166 57.5285 7.85807 58.1793 7.85807C58.7636 7.85807 59.2887 7.73603 59.7472 7.49937C60.2058 7.259 60.5682 6.95947 60.8307 6.60447V7.73603H62.4097V0.125722H60.8307L60.8233 1.2314Z" fill="black"/>
<path d="M69.6503 0.125702L67.4426 5.92034L65.3126 0.125702H63.5709L66.5477 7.60659L65.0131 11.3045H66.6328L71.27 0.125702H69.6503Z" fill="black"/>
<path d="M2.59378 18.5857C2.3756 18.6264 2.15742 18.6634 1.93555 18.7078L1.25143 18.8335L0.485962 14.6216L1.17377 14.4958C5.82206 13.6453 9.49409 12.9686 11.5945 11.7187C13.1033 10.8201 13.9242 9.62197 13.3399 6.42697L17.5297 5.65781C18.358 10.2099 17.1266 13.3975 13.7652 15.4018C11.1286 16.9697 7.35299 17.7093 2.59378 18.5857Z" fill="black"/>
<path d="M15.1889 0.391986C15.407 0.351309 15.6252 0.31433 15.8471 0.269955L16.5312 0.144226L17.2967 4.35615L16.6089 4.48188C11.9606 5.3324 8.28854 6.00912 6.18813 7.25902C4.67938 8.15761 3.85844 9.35573 4.44271 12.5507L0.24927 13.3199C-0.579063 8.76777 0.652343 5.58016 4.01375 3.57589C6.65406 2.00428 10.4296 1.26839 15.1889 0.391986Z" fill="black"/>
<path d="M31.8526 17.0138C31.5202 17.0138 31.2186 16.9512 30.9478 16.826C30.6769 16.6986 30.4618 16.5153 30.3025 16.2763C30.1431 16.035 30.0635 15.7437 30.0635 15.4023C30.0635 15.1018 30.1227 14.8583 30.241 14.6716C30.3594 14.4827 30.5176 14.3347 30.7156 14.2278C30.9136 14.1208 31.1321 14.0411 31.3711 13.9888C31.6124 13.9341 31.8548 13.8909 32.0984 13.859C32.417 13.818 32.6754 13.7873 32.8734 13.7668C33.0737 13.7441 33.2194 13.7065 33.3104 13.6542C33.4038 13.6018 33.4504 13.5108 33.4504 13.381V13.3537C33.4504 13.0168 33.3582 12.7551 33.1739 12.5684C32.9918 12.3818 32.7152 12.2885 32.3442 12.2885C31.9595 12.2885 31.6579 12.3727 31.4394 12.5411C31.2209 12.7096 31.0673 12.8894 30.9785 13.0806L30.2137 12.8074C30.3503 12.4888 30.5324 12.2407 30.76 12.0631C30.9899 11.8833 31.2403 11.7581 31.5111 11.6875C31.7843 11.6147 32.0529 11.5783 32.3169 11.5783C32.4853 11.5783 32.6788 11.5988 32.8973 11.6397C33.1181 11.6784 33.3309 11.7592 33.5358 11.8822C33.7429 12.0051 33.9148 12.1906 34.0513 12.4387C34.1879 12.6868 34.2562 13.0191 34.2562 13.4357V16.8909H33.4504V16.1807H33.4095C33.3548 16.2945 33.2638 16.4163 33.1363 16.5461C33.0089 16.6758 32.8393 16.7862 32.6276 16.8772C32.4159 16.9683 32.1576 17.0138 31.8526 17.0138ZM31.9755 16.29C32.2941 16.29 32.5627 16.2274 32.7812 16.1022C33.002 15.977 33.1682 15.8154 33.2797 15.6174C33.3935 15.4193 33.4504 15.2111 33.4504 14.9926V14.2551C33.4163 14.296 33.3412 14.3336 33.2251 14.3677C33.1113 14.3996 32.9793 14.4281 32.829 14.4531C32.6811 14.4759 32.5365 14.4964 32.3954 14.5146C32.2566 14.5305 32.1439 14.5442 32.0574 14.5555C31.848 14.5828 31.6523 14.6272 31.4702 14.6887C31.2903 14.7479 31.1447 14.8378 31.0331 14.9584C30.9239 15.0768 30.8692 15.2384 30.8692 15.4432C30.8692 15.7232 30.9728 15.9349 31.1799 16.0783C31.3894 16.2194 31.6545 16.29 31.9755 16.29Z" fill="black"/>
<path d="M37.8574 17.0001C37.3657 17.0001 36.9424 16.8841 36.5873 16.6519C36.2322 16.4197 35.9591 16.0999 35.7679 15.6925C35.5767 15.285 35.4811 14.8196 35.4811 14.296C35.4811 13.7634 35.5789 13.2934 35.7747 12.886C35.9727 12.4762 36.2481 12.1564 36.6009 11.9265C36.956 11.6944 37.3703 11.5783 37.8437 11.5783C38.2125 11.5783 38.5448 11.6466 38.8407 11.7831C39.1366 11.9197 39.379 12.1109 39.5679 12.3567C39.7569 12.6026 39.8741 12.8894 39.9196 13.2171H39.1139C39.0524 12.9781 38.9158 12.7665 38.7041 12.5821C38.4947 12.3954 38.2125 12.3021 37.8574 12.3021C37.5433 12.3021 37.2679 12.3841 37.0311 12.5479C36.7967 12.7095 36.6135 12.9383 36.4814 13.2342C36.3517 13.5278 36.2868 13.8727 36.2868 14.2687C36.2868 14.6739 36.3506 15.0267 36.478 15.3272C36.6078 15.6276 36.7899 15.8609 37.0243 16.0271C37.261 16.1932 37.5387 16.2763 37.8574 16.2763C38.0668 16.2763 38.2569 16.2399 38.4276 16.1671C38.5983 16.0942 38.7428 15.9895 38.8612 15.853C38.9796 15.7164 39.0638 15.5525 39.1139 15.3613H39.9196C39.8741 15.6709 39.7614 15.9497 39.5816 16.1978C39.4041 16.4436 39.1685 16.6394 38.8749 16.785C38.5835 16.9284 38.2444 17.0001 37.8574 17.0001Z" fill="black"/>
<path d="M42.6408 17.0138C42.3085 17.0138 42.0069 16.9512 41.736 16.826C41.4651 16.6986 41.25 16.5153 41.0907 16.2763C40.9314 16.035 40.8517 15.7437 40.8517 15.4023C40.8517 15.1018 40.9109 14.8583 41.0293 14.6716C41.1476 14.4827 41.3058 14.3347 41.5038 14.2278C41.7019 14.1208 41.9204 14.0411 42.1594 13.9888C42.4007 13.9341 42.6431 13.8909 42.8866 13.859C43.2053 13.818 43.4636 13.7873 43.6617 13.7668C43.862 13.7441 44.0076 13.7065 44.0987 13.6542C44.192 13.6018 44.2387 13.5108 44.2387 13.381V13.3537C44.2387 13.0168 44.1465 12.7551 43.9621 12.5684C43.78 12.3818 43.5035 12.2885 43.1324 12.2885C42.7478 12.2885 42.4462 12.3727 42.2277 12.5411C42.0092 12.7096 41.8555 12.8894 41.7667 13.0806L41.0019 12.8074C41.1385 12.4888 41.3206 12.2407 41.5482 12.0631C41.7781 11.8833 42.0285 11.7581 42.2994 11.6875C42.5725 11.6147 42.8411 11.5783 43.1051 11.5783C43.2736 11.5783 43.467 11.5988 43.6856 11.6397C43.9063 11.6784 44.1192 11.7592 44.324 11.8822C44.5312 12.0051 44.703 12.1906 44.8396 12.4387C44.9762 12.6868 45.0444 13.0191 45.0444 13.4357V16.8909H44.2387V16.1807H44.1977C44.1431 16.2945 44.052 16.4163 43.9246 16.5461C43.7971 16.6758 43.6275 16.7862 43.4158 16.8772C43.2041 16.9683 42.9458 17.0138 42.6408 17.0138ZM42.7637 16.29C43.0824 16.29 43.351 16.2274 43.5695 16.1022C43.7903 15.977 43.9564 15.8154 44.068 15.6174C44.1818 15.4193 44.2387 15.2111 44.2387 14.9926V14.2551C44.2045 14.296 44.1294 14.3336 44.0133 14.3677C43.8995 14.3996 43.7675 14.4281 43.6173 14.4531C43.4693 14.4759 43.3248 14.4964 43.1837 14.5146C43.0448 14.5305 42.9321 14.5442 42.8456 14.5555C42.6362 14.5828 42.4405 14.6272 42.2584 14.6887C42.0786 14.7479 41.9329 14.8378 41.8214 14.9584C41.7121 15.0768 41.6575 15.2384 41.6575 15.4432C41.6575 15.7232 41.761 15.9349 41.9682 16.0783C42.1776 16.2194 42.4428 16.29 42.7637 16.29Z" fill="black"/>
<path d="M48.4954 17.0001C48.0584 17.0001 47.6726 16.8898 47.338 16.669C47.0034 16.4459 46.7416 16.1318 46.5527 15.7266C46.3638 15.3192 46.2693 14.8378 46.2693 14.2824C46.2693 13.7316 46.3638 13.2536 46.5527 12.8484C46.7416 12.4432 47.0045 12.1303 47.3414 11.9095C47.6783 11.6887 48.0675 11.5783 48.5091 11.5783C48.8505 11.5783 49.1202 11.6352 49.3183 11.749C49.5186 11.8605 49.6711 11.988 49.7758 12.1314C49.8827 12.2725 49.9658 12.3886 50.025 12.4797H50.0933V9.89847H50.8991V16.8909H50.1206V16.0851H50.025C49.9658 16.1807 49.8816 16.3014 49.7723 16.447C49.6631 16.5904 49.5072 16.719 49.3046 16.8328C49.102 16.9444 48.8323 17.0001 48.4954 17.0001ZM48.6047 16.2763C48.9279 16.2763 49.201 16.1921 49.4241 16.0237C49.6472 15.853 49.8167 15.6174 49.9328 15.3169C50.0489 15.0142 50.1069 14.6648 50.1069 14.2687C50.1069 13.8772 50.05 13.5347 49.9362 13.241C49.8224 12.9451 49.654 12.7152 49.4309 12.5514C49.2079 12.3852 48.9324 12.3021 48.6047 12.3021C48.2632 12.3021 47.9787 12.3897 47.7511 12.565C47.5258 12.738 47.3562 12.9736 47.2424 13.2718C47.1308 13.5677 47.0751 13.9 47.0751 14.2687C47.0751 14.642 47.132 14.9812 47.2458 15.2862C47.3619 15.5889 47.5326 15.8302 47.7579 16.01C47.9855 16.1876 48.2678 16.2763 48.6047 16.2763Z" fill="black"/>
<path d="M54.6855 17.0001C54.1802 17.0001 53.7443 16.8886 53.3778 16.6656C53.0136 16.4402 52.7325 16.1261 52.5345 15.7232C52.3387 15.3181 52.2409 14.8469 52.2409 14.3097C52.2409 13.7725 52.3387 13.2991 52.5345 12.8894C52.7325 12.4774 53.0079 12.1564 53.3607 11.9265C53.7158 11.6944 54.1301 11.5783 54.6035 11.5783C54.8767 11.5783 55.1464 11.6238 55.4127 11.7149C55.679 11.8059 55.9214 11.9539 56.14 12.1587C56.3585 12.3613 56.5326 12.6299 56.6623 12.9645C56.7921 13.2991 56.857 13.7111 56.857 14.2004V14.5419H52.8145V13.8454H56.0375C56.0375 13.5495 55.9784 13.2854 55.86 13.0533C55.7439 12.8211 55.5777 12.6379 55.3615 12.5036C55.1475 12.3693 54.8949 12.3021 54.6035 12.3021C54.2826 12.3021 54.0049 12.3818 53.7705 12.5411C53.5383 12.6982 53.3596 12.903 53.2344 13.1557C53.1092 13.4083 53.0466 13.6792 53.0466 13.9683V14.4326C53.0466 14.8287 53.1149 15.1644 53.2515 15.4398C53.3903 15.713 53.5827 15.9212 53.8285 16.0646C54.0743 16.2058 54.36 16.2763 54.6855 16.2763C54.8972 16.2763 55.0884 16.2467 55.2591 16.1876C55.4321 16.1261 55.5812 16.035 55.7063 15.9144C55.8315 15.7915 55.9283 15.639 55.9966 15.4569L56.775 15.6754C56.6931 15.9394 56.5554 16.1716 56.3619 16.3719C56.1684 16.57 55.9294 16.7247 55.6449 16.8363C55.3604 16.9455 55.0406 17.0001 54.6855 17.0001Z" fill="black"/>
<path d="M58.0827 16.8909V11.6466H58.8611V12.466H58.9294C59.0387 12.186 59.2151 11.9687 59.4586 11.8139C59.7022 11.6568 59.9947 11.5783 60.3361 11.5783C60.6821 11.5783 60.97 11.6568 61.1999 11.8139C61.4321 11.9687 61.613 12.186 61.7428 12.466H61.7974C61.9317 12.1951 62.1331 11.98 62.4017 11.8207C62.6703 11.6591 62.9924 11.5783 63.368 11.5783C63.8369 11.5783 64.2204 11.7251 64.5186 12.0187C64.8168 12.3101 64.9658 12.7642 64.9658 13.381V16.8909H64.1601V13.381C64.1601 12.9941 64.0542 12.7175 63.8426 12.5514C63.6309 12.3852 63.3816 12.3021 63.0948 12.3021C62.7261 12.3021 62.4404 12.4136 62.2378 12.6367C62.0353 12.8575 61.934 13.1375 61.934 13.4766V16.8909H61.1146V13.2991C61.1146 13.0009 61.0178 12.7608 60.8243 12.5787C60.6309 12.3943 60.3816 12.3021 60.0766 12.3021C59.8672 12.3021 59.6715 12.3579 59.4894 12.4694C59.3095 12.5809 59.1639 12.7357 59.0523 12.9338C58.9431 13.1295 58.8884 13.356 58.8884 13.6132V16.8909H58.0827Z" fill="black"/>
<path d="M66.7703 18.8575C66.6337 18.8575 66.5119 18.8461 66.405 18.8234C66.298 18.8029 66.224 18.7824 66.183 18.7619L66.3879 18.0517C66.5836 18.1018 66.7566 18.12 66.9069 18.1064C67.0571 18.0927 67.1902 18.0256 67.3063 17.9049C67.4247 17.7866 67.5328 17.5942 67.6307 17.3279L67.7809 16.9182L65.8416 11.6466H66.7157L68.1633 15.8256H68.2179L69.6656 11.6466H70.5396L68.3135 17.6557C68.2134 17.9266 68.0893 18.1508 67.9414 18.3283C67.7934 18.5081 67.6216 18.6413 67.4258 18.7278C67.2324 18.8143 67.0138 18.8575 66.7703 18.8575Z" fill="black"/>
<path d="M28.2368 16.5539C28.036 16.5539 27.8637 16.482 27.7198 16.3381C27.576 16.1943 27.5041 16.022 27.5041 15.8211C27.5041 15.6203 27.576 15.448 27.7198 15.3041C27.8637 15.1603 28.036 15.0884 28.2368 15.0884C28.4377 15.0884 28.61 15.1603 28.7538 15.3041C28.8977 15.448 28.9696 15.6203 28.9696 15.8211C28.9696 15.9541 28.9357 16.0762 28.8678 16.1875C28.8027 16.2988 28.7145 16.3883 28.6032 16.4562C28.4947 16.5213 28.3725 16.5539 28.2368 16.5539Z" fill="black"/>
</svg>
