<svg width="32" height="32" viewBox="0 0 32 32" fill="none" xmlns="http://www.w3.org/2000/svg">
<path d="M18.1811 2.93744L18.3679 2.96771H20.9521V5.87386H18.3679C18.2226 5.87386 18.0825 5.88396 17.9476 5.90414C17.8127 5.92432 17.7037 5.95964 17.6207 6.01009C17.5377 6.06054 17.4598 6.11604 17.3872 6.17659C17.3145 6.23713 17.2523 6.29768 17.2004 6.35822C17.1485 6.41877 17.107 6.48436 17.0758 6.55499C17.0447 6.62563 17.0239 6.68618 17.0136 6.73663L16.9824 6.88799L16.9668 6.99395V11.6559H22.0107L21.2946 14.5621H16.9668V29.0928H13.9779V14.5621H9.99263V11.6559H13.9779V7.14531C13.9779 6.51968 14.0609 5.95964 14.227 5.46519C14.393 4.97074 14.6162 4.58224 14.8964 4.2997C15.1766 4.01715 15.462 3.77497 15.7526 3.57316C16.0432 3.37134 16.3649 3.23007 16.7178 3.14934C17.0706 3.06862 17.3508 3.01312 17.5584 2.98285C17.766 2.95257 17.9735 2.93744 18.1811 2.93744ZM18.1811 1C16.8942 1 15.7422 1.30272 14.7251 1.90817C12.8986 2.9778 11.9853 4.72351 11.9853 7.14531V9.71847H9.99263C9.45296 9.71847 8.98594 9.91019 8.59156 10.2936C8.19719 10.6771 8 11.1312 8 11.6559V14.5621C8 15.0868 8.19719 15.5409 8.59156 15.9243C8.98594 16.3078 9.45296 16.4995 9.99263 16.4995H11.9853V29.0626C11.9853 29.6075 12.1773 30.0666 12.5613 30.44C12.9453 30.8133 13.4175 31 13.9779 31H16.9668C17.5065 31 17.9735 30.8133 18.3679 30.44C18.7623 30.0666 18.9595 29.6075 18.9595 29.0626V16.4995H21.2946C21.7512 16.4995 22.156 16.3683 22.5089 16.106C22.8617 15.8436 23.1004 15.5106 23.225 15.107L23.9099 12.2008C24.0967 11.5752 23.993 11.005 23.5986 10.4904C23.2042 9.97578 22.6749 9.71847 22.0107 9.71847H18.9595V7.8113H20.9521C21.4918 7.8113 21.9588 7.61958 22.3532 7.23613C22.7476 6.85267 22.9447 6.39859 22.9447 5.87386V2.96771C22.9447 2.42281 22.7527 1.96367 22.3688 1.59031C21.9848 1.21695 21.5229 1.03027 20.9833 1.03027H18.4302C18.3472 1.01009 18.2641 1 18.1811 1Z" fill="white"/>
</svg>
