<svg width="32" height="32" viewBox="0 0 32 32" fill="none" xmlns="http://www.w3.org/2000/svg">
<path d="M31.1875 30.9695H24.6875C24.4583 30.9695 24.2604 30.8931 24.0938 30.7403C23.9271 30.5876 23.8438 30.3992 23.8438 30.1752V19.9409C23.8438 19.2688 23.776 18.6986 23.6406 18.2301C23.5052 17.7617 23.349 17.4155 23.1719 17.1914C22.9948 16.9674 22.7708 16.7892 22.5 16.6568C22.2292 16.5244 22.026 16.4532 21.8906 16.443C21.7552 16.4328 21.5833 16.4277 21.375 16.4277C20.875 16.4277 20.4271 16.5499 20.0312 16.7943C19.6354 17.0387 19.3594 17.278 19.2031 17.5122C19.0469 17.7464 18.9167 17.9857 18.8125 18.2301C18.7708 18.3523 18.7344 18.5204 18.7031 18.7342C18.6719 18.9481 18.6562 19.1976 18.6562 19.4827V30.1752C18.6562 30.3992 18.5729 30.5927 18.4062 30.7556C18.2396 30.9185 18.0417 31 17.8125 31H11.3125C11.2083 31 11.1042 30.9796 11 30.9389C10.8958 30.8982 10.8021 30.8371 10.7188 30.7556C10.5521 30.5927 10.4792 30.3992 10.5 30.1752V27.3646L10.5156 24.5234L10.5312 21.224V14.778L10.5156 12.3951L10.5 11.0815C10.4792 10.8574 10.5521 10.6589 10.7188 10.4857C10.8854 10.3126 11.0833 10.2261 11.3125 10.2261H17.8125C17.9375 10.2261 18.0521 10.2464 18.1562 10.2872C18.2604 10.3279 18.349 10.3839 18.4219 10.4552C18.4948 10.5265 18.5521 10.613 18.5938 10.7149C18.6354 10.8167 18.6562 10.9287 18.6562 11.0509V11.5092C19.9896 10.3483 21.6667 9.76782 23.6875 9.76782C26.2917 9.76782 28.3281 10.6029 29.7969 12.2729C31.2656 13.943 32 16.2546 32 19.2077V30.1752C32 30.277 31.9792 30.3788 31.9375 30.4807C31.8958 30.5825 31.8385 30.669 31.7656 30.7403C31.6927 30.8116 31.6042 30.8676 31.5 30.9084C31.3958 30.9491 31.2917 30.9695 31.1875 30.9695ZM25.5 29.3503H30.3438V19.2077C30.3438 16.723 29.7656 14.8035 28.6094 13.4491C27.4531 12.0947 25.8125 11.4175 23.6875 11.4175C21.5208 11.4175 19.8333 12.2933 18.625 14.0448C18.5208 14.4318 18.2604 14.6253 17.8438 14.6253H17.7812C17.4688 14.6253 17.2292 14.4827 17.0625 14.1976C16.9375 13.9939 16.9167 13.78 17 13.556V11.8452H12.1562C12.1979 14.1059 12.1979 19.9409 12.1562 29.3503H17V19.4827C17 18.6884 17.0938 18.0672 17.2812 17.6191C17.4271 17.2729 17.6042 16.9521 17.8125 16.6568C18.0208 16.3615 18.2552 16.0967 18.5156 15.8625C18.776 15.6283 19.0573 15.4348 19.3594 15.2821C19.6615 15.1293 19.9844 15.0071 20.3281 14.9155C20.6719 14.8238 21.0208 14.778 21.375 14.778C22.25 14.778 22.9948 14.9817 23.6094 15.389C24.224 15.7963 24.6927 16.3819 25.0156 17.1456C25.3385 17.9094 25.5 18.8411 25.5 19.9409V29.3503ZM7.71875 30.9695H1.21875C0.989583 30.9695 0.791667 30.8931 0.625 30.7403C0.458333 30.5876 0.375 30.3992 0.375 30.1752V11.0509C0.375 10.8269 0.458333 10.6334 0.625 10.4705C0.791667 10.3075 0.989583 10.2261 1.21875 10.2261H7.71875C7.94792 10.2261 8.14583 10.3075 8.3125 10.4705C8.47917 10.6334 8.5625 10.8269 8.5625 11.0509V30.1752C8.5625 30.3177 8.52604 30.4501 8.45312 30.5723C8.38021 30.6945 8.27604 30.7912 8.14062 30.8625C8.00521 30.9338 7.86458 30.9695 7.71875 30.9695ZM2.0625 29.3503H6.90625V11.8452H2.0625V29.3503ZM4.46875 9.24847H4.4375C3.14583 9.24847 2.08333 8.85642 1.25 8.0723C0.416667 7.28819 0 6.30041 0 5.10896C0 3.91752 0.427083 2.93483 1.28125 2.1609C2.13542 1.38697 3.21875 1 4.53125 1C5.80208 1 6.85417 1.38187 7.6875 2.14562C8.52083 2.90937 8.94792 3.89206 8.96875 5.09369C8.96875 6.29532 8.54688 7.28819 7.70312 8.0723C6.85938 8.85642 5.78125 9.24847 4.46875 9.24847ZM4.53125 2.61914C3.67708 2.61914 2.98438 2.84827 2.45312 3.30652C1.92188 3.76477 1.65625 4.37067 1.65625 5.12424C1.65625 5.85743 1.91667 6.45825 2.4375 6.92668C2.95833 7.39511 3.625 7.62933 4.4375 7.62933H4.46875C5.03125 7.62933 5.52604 7.5224 5.95312 7.30855C6.38021 7.0947 6.71354 6.79939 6.95312 6.42261C7.19271 6.04582 7.3125 5.61303 7.3125 5.12424C7.29167 4.37067 7.03125 3.76477 6.53125 3.30652C6.03125 2.84827 5.36458 2.61914 4.53125 2.61914Z" fill="white"/>
</svg>
